%TF.GenerationSoftware,KiCad,Pcbnew,7.0.7*%
%TF.CreationDate,2023-09-18T16:24:31-07:00*%
%TF.ProjectId,pi_pico_dds,70695f70-6963-46f5-9f64-64732e6b6963,rev?*%
%TF.SameCoordinates,Original*%
%TF.FileFunction,Copper,L2,Inr*%
%TF.FilePolarity,Positive*%
%FSLAX46Y46*%
G04 Gerber Fmt 4.6, Leading zero omitted, Abs format (unit mm)*
G04 Created by KiCad (PCBNEW 7.0.7) date 2023-09-18 16:24:31*
%MOMM*%
%LPD*%
G01*
G04 APERTURE LIST*
%TA.AperFunction,ComponentPad*%
%ADD10R,1.700000X1.700000*%
%TD*%
%TA.AperFunction,ComponentPad*%
%ADD11O,1.700000X1.700000*%
%TD*%
%TA.AperFunction,ComponentPad*%
%ADD12C,3.800000*%
%TD*%
%TA.AperFunction,ComponentPad*%
%ADD13O,1.900000X1.200000*%
%TD*%
%TA.AperFunction,ComponentPad*%
%ADD14C,1.450000*%
%TD*%
%TA.AperFunction,ViaPad*%
%ADD15C,0.600000*%
%TD*%
G04 APERTURE END LIST*
D10*
%TO.N,Net-(J6-Pin_1)*%
%TO.C,J6*%
X177342800Y-66522600D03*
D11*
%TO.N,GND*%
X179882800Y-66522600D03*
X182422800Y-66522600D03*
%TD*%
D10*
%TO.N,+3V3*%
%TO.C,J3*%
X205866600Y-74025600D03*
D11*
%TO.N,/SDA*%
X205866600Y-76565600D03*
%TO.N,/SCL*%
X205866600Y-79105600D03*
%TO.N,GND*%
X205866600Y-81645600D03*
%TD*%
D10*
%TO.N,+5V*%
%TO.C,J2*%
X195617000Y-98679000D03*
D11*
%TO.N,GND*%
X198157000Y-98679000D03*
%TD*%
D12*
%TO.N,GND*%
%TO.C,H1*%
X205740000Y-67614800D03*
%TD*%
%TO.N,GND*%
%TO.C,H2*%
X205740000Y-99060000D03*
%TD*%
D10*
%TO.N,+3V3*%
%TO.C,J4*%
X166979600Y-77419200D03*
D11*
%TO.N,/ADC2*%
X166979600Y-79959200D03*
%TO.N,/ADC3*%
X166979600Y-82499200D03*
%TO.N,GND*%
X166979600Y-85039200D03*
%TD*%
D12*
%TO.N,GND*%
%TO.C,H3*%
X167767000Y-99060000D03*
%TD*%
%TO.N,GND*%
%TO.C,H4*%
X167767000Y-67614800D03*
%TD*%
D13*
%TO.N,unconnected-(J1-Shield-Pad6)*%
%TO.C,J1*%
X206844700Y-92924000D03*
D14*
X204144700Y-91924000D03*
X204144700Y-86924000D03*
D13*
X206844700Y-85924000D03*
%TD*%
D10*
%TO.N,/SWCLK*%
%TO.C,J5*%
X166979600Y-90754200D03*
D11*
%TO.N,/SWD*%
X166979600Y-93294200D03*
%TD*%
D15*
%TO.N,GND*%
X174371000Y-96774000D03*
X178054000Y-96647000D03*
X184912000Y-97155000D03*
X188595000Y-96901000D03*
X174726600Y-68018600D03*
%TO.N,+5V*%
X170764200Y-74549000D03*
%TO.N,GND*%
X176530000Y-88341200D03*
X196596000Y-91694000D03*
X182041800Y-85547200D03*
X192024000Y-92456000D03*
X198120000Y-91694000D03*
X194754933Y-86075735D03*
X179959000Y-84455000D03*
X201422000Y-86868000D03*
X171704000Y-69900800D03*
X194945000Y-89662000D03*
X186486800Y-79933800D03*
X175818800Y-86715600D03*
X190220600Y-84150200D03*
X186944000Y-92659200D03*
X194945000Y-90805000D03*
X173990000Y-82016600D03*
X186131200Y-84988400D03*
X199796400Y-79908400D03*
X200914000Y-79908400D03*
X186055000Y-88265000D03*
X202057000Y-95250000D03*
X188976000Y-83693000D03*
X180543200Y-87376000D03*
X191617600Y-79349600D03*
X186055000Y-83820000D03*
X195427600Y-85191600D03*
X202565000Y-88138000D03*
X194970400Y-88696800D03*
X179324000Y-82804000D03*
X188849000Y-88265000D03*
X174879000Y-79451200D03*
X191008000Y-92456000D03*
X191008000Y-75539600D03*
X193792700Y-78239556D03*
X202438000Y-87122000D03*
%TO.N,+3V3*%
X198272400Y-84429600D03*
X190856700Y-86360000D03*
X188137800Y-94818200D03*
X191795400Y-82194400D03*
X195580000Y-93472000D03*
X194665600Y-94488000D03*
X189255400Y-94894400D03*
X183667400Y-91338400D03*
X192024000Y-89662000D03*
X185724800Y-80213200D03*
X186182000Y-90627200D03*
X185978800Y-86156800D03*
X199796400Y-82550000D03*
X190398400Y-88239600D03*
X199847200Y-75539600D03*
X187325000Y-88366600D03*
X195630800Y-95453200D03*
X187375800Y-83642200D03*
%TO.N,+1V1*%
X186084465Y-86949289D03*
X190754000Y-85242400D03*
%TO.N,/SDA*%
X194614800Y-95605600D03*
%TO.N,/SCL*%
X194335400Y-93548200D03*
X199171000Y-85801200D03*
%TO.N,/ADC2*%
X171475400Y-82829400D03*
X189280800Y-91643200D03*
%TO.N,/ADC3*%
X190017400Y-92151200D03*
X171500800Y-84099400D03*
%TO.N,Net-(R5-Pad1)*%
X191135000Y-96901000D03*
X194665600Y-75895200D03*
%TD*%
%TA.AperFunction,Conductor*%
%TO.N,GND*%
G36*
X181876492Y-66292285D02*
G01*
X181922247Y-66345089D01*
X181932191Y-66414247D01*
X181928431Y-66431533D01*
X181922800Y-66450711D01*
X181922800Y-66594488D01*
X181928431Y-66613667D01*
X181928430Y-66683536D01*
X181890655Y-66742314D01*
X181827099Y-66771338D01*
X181809453Y-66772600D01*
X180496147Y-66772600D01*
X180429108Y-66752915D01*
X180383353Y-66700111D01*
X180373409Y-66630953D01*
X180377169Y-66613667D01*
X180382800Y-66594488D01*
X180382800Y-66450711D01*
X180377169Y-66431533D01*
X180377170Y-66361664D01*
X180414945Y-66302886D01*
X180478501Y-66273862D01*
X180496147Y-66272600D01*
X181809453Y-66272600D01*
X181876492Y-66292285D01*
G37*
%TD.AperFunction*%
%TA.AperFunction,Conductor*%
G36*
X208222539Y-64790185D02*
G01*
X208268294Y-64842989D01*
X208279500Y-64894500D01*
X208279500Y-66881109D01*
X208259815Y-66948148D01*
X208207011Y-66993903D01*
X208137853Y-67003847D01*
X208074297Y-66974822D01*
X208037569Y-66919427D01*
X207975874Y-66729552D01*
X207975872Y-66729547D01*
X207847295Y-66456308D01*
X207847292Y-66456302D01*
X207685486Y-66201335D01*
X207604685Y-66103664D01*
X206779444Y-66928907D01*
X206718121Y-66962392D01*
X206648429Y-66957408D01*
X206592496Y-66915536D01*
X206590755Y-66913152D01*
X206575108Y-66891178D01*
X206575104Y-66891174D01*
X206428957Y-66751823D01*
X206394022Y-66691314D01*
X206397347Y-66621524D01*
X206426846Y-66574399D01*
X207253434Y-65747812D01*
X207028530Y-65584409D01*
X207028520Y-65584402D01*
X206763890Y-65438921D01*
X206763882Y-65438917D01*
X206483110Y-65327752D01*
X206483107Y-65327751D01*
X206190600Y-65252649D01*
X205891004Y-65214800D01*
X205588995Y-65214800D01*
X205289399Y-65252649D01*
X204996892Y-65327751D01*
X204996889Y-65327752D01*
X204716117Y-65438917D01*
X204716109Y-65438921D01*
X204451479Y-65584402D01*
X204451461Y-65584414D01*
X204226565Y-65747810D01*
X204226564Y-65747812D01*
X205055765Y-66577012D01*
X205089250Y-66638335D01*
X205084266Y-66708026D01*
X205044737Y-66762163D01*
X204977458Y-66815072D01*
X204977453Y-66815077D01*
X204883278Y-66923760D01*
X204824500Y-66961534D01*
X204754630Y-66961534D01*
X204701885Y-66930238D01*
X203875312Y-66103664D01*
X203794516Y-66201330D01*
X203632707Y-66456302D01*
X203632704Y-66456308D01*
X203504127Y-66729547D01*
X203504125Y-66729552D01*
X203410805Y-67016759D01*
X203354216Y-67313409D01*
X203354215Y-67313416D01*
X203335255Y-67614794D01*
X203335255Y-67614805D01*
X203354215Y-67916183D01*
X203354216Y-67916190D01*
X203410805Y-68212840D01*
X203504125Y-68500047D01*
X203504127Y-68500052D01*
X203632704Y-68773291D01*
X203632707Y-68773297D01*
X203794513Y-69028264D01*
X203875312Y-69125933D01*
X204700554Y-68300691D01*
X204761877Y-68267206D01*
X204831568Y-68272190D01*
X204887502Y-68314061D01*
X204889242Y-68316444D01*
X204904893Y-68338423D01*
X204904895Y-68338425D01*
X205051041Y-68477775D01*
X205085976Y-68538284D01*
X205082651Y-68608074D01*
X205053152Y-68655199D01*
X204226564Y-69481786D01*
X204451474Y-69645193D01*
X204451485Y-69645200D01*
X204716109Y-69790678D01*
X204716117Y-69790682D01*
X204996889Y-69901847D01*
X204996892Y-69901848D01*
X205289399Y-69976950D01*
X205588995Y-70014799D01*
X205589007Y-70014800D01*
X205890993Y-70014800D01*
X205891004Y-70014799D01*
X206190600Y-69976950D01*
X206483107Y-69901848D01*
X206483110Y-69901847D01*
X206763882Y-69790682D01*
X206763890Y-69790678D01*
X207028514Y-69645200D01*
X207028525Y-69645193D01*
X207253433Y-69481786D01*
X207253434Y-69481786D01*
X206424234Y-68652587D01*
X206390749Y-68591264D01*
X206395733Y-68521573D01*
X206435263Y-68467436D01*
X206502540Y-68414529D01*
X206596723Y-68305835D01*
X206655496Y-68268064D01*
X206725365Y-68268063D01*
X206778113Y-68299360D01*
X207604686Y-69125933D01*
X207685483Y-69028269D01*
X207847292Y-68773297D01*
X207847295Y-68773291D01*
X207975872Y-68500052D01*
X207975874Y-68500047D01*
X208037569Y-68310172D01*
X208077006Y-68252496D01*
X208141365Y-68225298D01*
X208210211Y-68237213D01*
X208261687Y-68284457D01*
X208279500Y-68348490D01*
X208279500Y-85162254D01*
X208259815Y-85229293D01*
X208207011Y-85275048D01*
X208137853Y-85284992D01*
X208074297Y-85255967D01*
X208054493Y-85234182D01*
X208030186Y-85200048D01*
X208030179Y-85200040D01*
X207878079Y-85055014D01*
X207701274Y-84941388D01*
X207677479Y-84931862D01*
X207506157Y-84863275D01*
X207506155Y-84863274D01*
X207299786Y-84823500D01*
X207299785Y-84823500D01*
X206442275Y-84823500D01*
X206285481Y-84838472D01*
X206285482Y-84838472D01*
X206285478Y-84838473D01*
X206083827Y-84897683D01*
X205897013Y-84993991D01*
X205731816Y-85123905D01*
X205731812Y-85123909D01*
X205594178Y-85282746D01*
X205489098Y-85464750D01*
X205420356Y-85663365D01*
X205420356Y-85663367D01*
X205392282Y-85858632D01*
X205390446Y-85871401D01*
X205400445Y-86081327D01*
X205430866Y-86206722D01*
X205427541Y-86276513D01*
X205387013Y-86333427D01*
X205322148Y-86359395D01*
X205253541Y-86346171D01*
X205208786Y-86307079D01*
X205087076Y-86133259D01*
X205087071Y-86133253D01*
X204935445Y-85981627D01*
X204759790Y-85858631D01*
X204649662Y-85807278D01*
X204565447Y-85768008D01*
X204565443Y-85768007D01*
X204565439Y-85768005D01*
X204358324Y-85712509D01*
X204358320Y-85712508D01*
X204358319Y-85712508D01*
X204358318Y-85712507D01*
X204358313Y-85712507D01*
X204144702Y-85693819D01*
X204144698Y-85693819D01*
X203931086Y-85712507D01*
X203931075Y-85712509D01*
X203723960Y-85768005D01*
X203723951Y-85768009D01*
X203529610Y-85858631D01*
X203529608Y-85858632D01*
X203353959Y-85981623D01*
X203353953Y-85981628D01*
X203202328Y-86133253D01*
X203202323Y-86133259D01*
X203079335Y-86308905D01*
X203079331Y-86308910D01*
X202988709Y-86503251D01*
X202988705Y-86503260D01*
X202933209Y-86710375D01*
X202933207Y-86710386D01*
X202914518Y-86923998D01*
X202914518Y-86924001D01*
X202933207Y-87137613D01*
X202933209Y-87137624D01*
X202988705Y-87344739D01*
X202988707Y-87344743D01*
X202988708Y-87344747D01*
X203030344Y-87434035D01*
X203079331Y-87539090D01*
X203174551Y-87675077D01*
X203202327Y-87714745D01*
X203353955Y-87866373D01*
X203529609Y-87989368D01*
X203723953Y-88079992D01*
X203931081Y-88135492D01*
X204083665Y-88148841D01*
X204144698Y-88154181D01*
X204144700Y-88154181D01*
X204144702Y-88154181D01*
X204198104Y-88149508D01*
X204358319Y-88135492D01*
X204565447Y-88079992D01*
X204759791Y-87989368D01*
X204935445Y-87866373D01*
X205087073Y-87714745D01*
X205210068Y-87539091D01*
X205300692Y-87344747D01*
X205356192Y-87137619D01*
X205374881Y-86924000D01*
X205356192Y-86710381D01*
X205324445Y-86591900D01*
X205326108Y-86522051D01*
X205365270Y-86464188D01*
X205429499Y-86436684D01*
X205498401Y-86448270D01*
X205545226Y-86487878D01*
X205659214Y-86647952D01*
X205659215Y-86647953D01*
X205659220Y-86647959D01*
X205811320Y-86792985D01*
X205906278Y-86854011D01*
X205988128Y-86906613D01*
X206183243Y-86984725D01*
X206209658Y-86989816D01*
X206389614Y-87024500D01*
X206389615Y-87024500D01*
X207247119Y-87024500D01*
X207247125Y-87024500D01*
X207403918Y-87009528D01*
X207605575Y-86950316D01*
X207792382Y-86854011D01*
X207957586Y-86724092D01*
X208061787Y-86603837D01*
X208120565Y-86566064D01*
X208190435Y-86566064D01*
X208249213Y-86603838D01*
X208278238Y-86667394D01*
X208279500Y-86685041D01*
X208279500Y-92162254D01*
X208259815Y-92229293D01*
X208207011Y-92275048D01*
X208137853Y-92284992D01*
X208074297Y-92255967D01*
X208054493Y-92234182D01*
X208030186Y-92200048D01*
X208030179Y-92200040D01*
X207878079Y-92055014D01*
X207701274Y-91941388D01*
X207657843Y-91924001D01*
X207506157Y-91863275D01*
X207506155Y-91863274D01*
X207299786Y-91823500D01*
X207299785Y-91823500D01*
X206442275Y-91823500D01*
X206285481Y-91838472D01*
X206285482Y-91838472D01*
X206285478Y-91838473D01*
X206083827Y-91897683D01*
X205897013Y-91993991D01*
X205731816Y-92123905D01*
X205731812Y-92123909D01*
X205594180Y-92282745D01*
X205548462Y-92361930D01*
X205497894Y-92410145D01*
X205429287Y-92423367D01*
X205364423Y-92397399D01*
X205323895Y-92340485D01*
X205320571Y-92270694D01*
X205321288Y-92267880D01*
X205356192Y-92137619D01*
X205374881Y-91924000D01*
X205356192Y-91710381D01*
X205304551Y-91517654D01*
X205300694Y-91503260D01*
X205300693Y-91503259D01*
X205300692Y-91503253D01*
X205210068Y-91308910D01*
X205199402Y-91293678D01*
X205087076Y-91133259D01*
X205087071Y-91133253D01*
X204935445Y-90981627D01*
X204759790Y-90858631D01*
X204647884Y-90806449D01*
X204565447Y-90768008D01*
X204565443Y-90768007D01*
X204565439Y-90768005D01*
X204358324Y-90712509D01*
X204358320Y-90712508D01*
X204358319Y-90712508D01*
X204358318Y-90712507D01*
X204358313Y-90712507D01*
X204144702Y-90693819D01*
X204144698Y-90693819D01*
X203931086Y-90712507D01*
X203931075Y-90712509D01*
X203723960Y-90768005D01*
X203723951Y-90768009D01*
X203529610Y-90858631D01*
X203529608Y-90858632D01*
X203353959Y-90981623D01*
X203353953Y-90981628D01*
X203202328Y-91133253D01*
X203202323Y-91133259D01*
X203079332Y-91308908D01*
X203079331Y-91308910D01*
X202988709Y-91503251D01*
X202988705Y-91503260D01*
X202933209Y-91710375D01*
X202933207Y-91710386D01*
X202914518Y-91923998D01*
X202914518Y-91924001D01*
X202933207Y-92137613D01*
X202933209Y-92137624D01*
X202988705Y-92344739D01*
X202988707Y-92344743D01*
X202988708Y-92344747D01*
X203013260Y-92397399D01*
X203079331Y-92539090D01*
X203182641Y-92686631D01*
X203202327Y-92714745D01*
X203353955Y-92866373D01*
X203529609Y-92989368D01*
X203723953Y-93079992D01*
X203931081Y-93135492D01*
X204083666Y-93148841D01*
X204144698Y-93154181D01*
X204144700Y-93154181D01*
X204144702Y-93154181D01*
X204198104Y-93149508D01*
X204358319Y-93135492D01*
X204565447Y-93079992D01*
X204759791Y-92989368D01*
X204935445Y-92866373D01*
X205087073Y-92714745D01*
X205201948Y-92550687D01*
X205256523Y-92507065D01*
X205326022Y-92499872D01*
X205388376Y-92531394D01*
X205423790Y-92591624D01*
X205421175Y-92657487D01*
X205421749Y-92657627D01*
X205421057Y-92660479D01*
X205421019Y-92661439D01*
X205420703Y-92662364D01*
X205420357Y-92663361D01*
X205420356Y-92663366D01*
X205420356Y-92663367D01*
X205391169Y-92866373D01*
X205390446Y-92871401D01*
X205400445Y-93081327D01*
X205449996Y-93285578D01*
X205449998Y-93285582D01*
X205537298Y-93476743D01*
X205537301Y-93476748D01*
X205537302Y-93476750D01*
X205537304Y-93476753D01*
X205600327Y-93565256D01*
X205659215Y-93647953D01*
X205659220Y-93647959D01*
X205811320Y-93792985D01*
X205906278Y-93854011D01*
X205988128Y-93906613D01*
X206183243Y-93984725D01*
X206286428Y-94004612D01*
X206389614Y-94024500D01*
X206389615Y-94024500D01*
X207247119Y-94024500D01*
X207247125Y-94024500D01*
X207403918Y-94009528D01*
X207605575Y-93950316D01*
X207792382Y-93854011D01*
X207833694Y-93821523D01*
X207869982Y-93792985D01*
X207957586Y-93724092D01*
X208061787Y-93603837D01*
X208120565Y-93566064D01*
X208190435Y-93566064D01*
X208249213Y-93603838D01*
X208278238Y-93667394D01*
X208279500Y-93685041D01*
X208279500Y-98326309D01*
X208259815Y-98393348D01*
X208207011Y-98439103D01*
X208137853Y-98449047D01*
X208074297Y-98420022D01*
X208037569Y-98364627D01*
X207975874Y-98174752D01*
X207975872Y-98174747D01*
X207847295Y-97901508D01*
X207847292Y-97901502D01*
X207685486Y-97646535D01*
X207604685Y-97548864D01*
X206779444Y-98374107D01*
X206718121Y-98407592D01*
X206648429Y-98402608D01*
X206592496Y-98360736D01*
X206590755Y-98358352D01*
X206575108Y-98336378D01*
X206575104Y-98336374D01*
X206428957Y-98197023D01*
X206394022Y-98136514D01*
X206397347Y-98066724D01*
X206426846Y-98019599D01*
X207253434Y-97193012D01*
X207028530Y-97029609D01*
X207028520Y-97029602D01*
X206763890Y-96884121D01*
X206763882Y-96884117D01*
X206483110Y-96772952D01*
X206483107Y-96772951D01*
X206190600Y-96697849D01*
X205891004Y-96660000D01*
X205588995Y-96660000D01*
X205289399Y-96697849D01*
X204996892Y-96772951D01*
X204996889Y-96772952D01*
X204716117Y-96884117D01*
X204716109Y-96884121D01*
X204451479Y-97029602D01*
X204451461Y-97029614D01*
X204226565Y-97193010D01*
X204226564Y-97193012D01*
X205055765Y-98022212D01*
X205089250Y-98083535D01*
X205084266Y-98153226D01*
X205044737Y-98207363D01*
X204977458Y-98260272D01*
X204977453Y-98260277D01*
X204883278Y-98368960D01*
X204824500Y-98406734D01*
X204754630Y-98406734D01*
X204701885Y-98375438D01*
X203875312Y-97548864D01*
X203794516Y-97646530D01*
X203632707Y-97901502D01*
X203632704Y-97901508D01*
X203504127Y-98174747D01*
X203504125Y-98174752D01*
X203410805Y-98461959D01*
X203354216Y-98758609D01*
X203354215Y-98758616D01*
X203335255Y-99059994D01*
X203335255Y-99060005D01*
X203354215Y-99361383D01*
X203354216Y-99361390D01*
X203410805Y-99658040D01*
X203504125Y-99945247D01*
X203504127Y-99945252D01*
X203632704Y-100218491D01*
X203632707Y-100218497D01*
X203794513Y-100473464D01*
X203875312Y-100571133D01*
X204700554Y-99745891D01*
X204761877Y-99712406D01*
X204831568Y-99717390D01*
X204887502Y-99759261D01*
X204889242Y-99761644D01*
X204904893Y-99783623D01*
X204904895Y-99783625D01*
X205051041Y-99922975D01*
X205085976Y-99983484D01*
X205082651Y-100053274D01*
X205053152Y-100100399D01*
X204226564Y-100926986D01*
X204451474Y-101090393D01*
X204451485Y-101090400D01*
X204716109Y-101235878D01*
X204716117Y-101235882D01*
X204996889Y-101347046D01*
X205029406Y-101355396D01*
X205089444Y-101391134D01*
X205120629Y-101453658D01*
X205113061Y-101523117D01*
X205069142Y-101577457D01*
X205002817Y-101599427D01*
X204998568Y-101599500D01*
X168508432Y-101599500D01*
X168441393Y-101579815D01*
X168395638Y-101527011D01*
X168385694Y-101457853D01*
X168414719Y-101394297D01*
X168473497Y-101356523D01*
X168477594Y-101355396D01*
X168510110Y-101347046D01*
X168790882Y-101235882D01*
X168790890Y-101235878D01*
X169055514Y-101090400D01*
X169055525Y-101090393D01*
X169280433Y-100926986D01*
X169280434Y-100926986D01*
X168451234Y-100097787D01*
X168417749Y-100036464D01*
X168422733Y-99966773D01*
X168462263Y-99912636D01*
X168529540Y-99859729D01*
X168623723Y-99751035D01*
X168682496Y-99713264D01*
X168752365Y-99713263D01*
X168805113Y-99744560D01*
X169631686Y-100571133D01*
X169712483Y-100473469D01*
X169874292Y-100218497D01*
X169874295Y-100218491D01*
X170002872Y-99945252D01*
X170002874Y-99945247D01*
X170096194Y-99658040D01*
X170111678Y-99576870D01*
X194266500Y-99576870D01*
X194266501Y-99576876D01*
X194272908Y-99636483D01*
X194323202Y-99771328D01*
X194323206Y-99771335D01*
X194409452Y-99886544D01*
X194409455Y-99886547D01*
X194524664Y-99972793D01*
X194524671Y-99972797D01*
X194659517Y-100023091D01*
X194659516Y-100023091D01*
X194666444Y-100023835D01*
X194719127Y-100029500D01*
X196514872Y-100029499D01*
X196574483Y-100023091D01*
X196709331Y-99972796D01*
X196824546Y-99886546D01*
X196910796Y-99771331D01*
X196920285Y-99745891D01*
X196960002Y-99639402D01*
X197001872Y-99583468D01*
X197067337Y-99559050D01*
X197135610Y-99573901D01*
X197163865Y-99595053D01*
X197285917Y-99717105D01*
X197479421Y-99852600D01*
X197693507Y-99952429D01*
X197693516Y-99952433D01*
X197906999Y-100009633D01*
X197906999Y-99291301D01*
X197926683Y-99224262D01*
X197979487Y-99178507D01*
X198048646Y-99168563D01*
X198055380Y-99169531D01*
X198121237Y-99179000D01*
X198121238Y-99179000D01*
X198192762Y-99179000D01*
X198192763Y-99179000D01*
X198265353Y-99168563D01*
X198334512Y-99178507D01*
X198387315Y-99224262D01*
X198407000Y-99291301D01*
X198407000Y-100009633D01*
X198620483Y-99952433D01*
X198620492Y-99952429D01*
X198834578Y-99852600D01*
X199028082Y-99717105D01*
X199195105Y-99550082D01*
X199330600Y-99356578D01*
X199430429Y-99142492D01*
X199430432Y-99142486D01*
X199487636Y-98929000D01*
X198770347Y-98929000D01*
X198703308Y-98909315D01*
X198657553Y-98856511D01*
X198647609Y-98787353D01*
X198651369Y-98770067D01*
X198657000Y-98750888D01*
X198657000Y-98607111D01*
X198651369Y-98587933D01*
X198651370Y-98518064D01*
X198689145Y-98459286D01*
X198752701Y-98430262D01*
X198770347Y-98429000D01*
X199487636Y-98429000D01*
X199487635Y-98428999D01*
X199430432Y-98215513D01*
X199430429Y-98215507D01*
X199330600Y-98001422D01*
X199330599Y-98001420D01*
X199195113Y-97807926D01*
X199195108Y-97807920D01*
X199028082Y-97640894D01*
X198834578Y-97505399D01*
X198620492Y-97405570D01*
X198620486Y-97405567D01*
X198407000Y-97348364D01*
X198407000Y-98066698D01*
X198387315Y-98133737D01*
X198334511Y-98179492D01*
X198265355Y-98189436D01*
X198192766Y-98179000D01*
X198192763Y-98179000D01*
X198121237Y-98179000D01*
X198121233Y-98179000D01*
X198048644Y-98189436D01*
X197979486Y-98179492D01*
X197926683Y-98133736D01*
X197906999Y-98066698D01*
X197906999Y-97348364D01*
X197693513Y-97405567D01*
X197693507Y-97405570D01*
X197479422Y-97505399D01*
X197479420Y-97505400D01*
X197285926Y-97640886D01*
X197163865Y-97762947D01*
X197102542Y-97796431D01*
X197032850Y-97791447D01*
X196976917Y-97749575D01*
X196960002Y-97718598D01*
X196910797Y-97586671D01*
X196910793Y-97586664D01*
X196824547Y-97471455D01*
X196824544Y-97471452D01*
X196709335Y-97385206D01*
X196709328Y-97385202D01*
X196574482Y-97334908D01*
X196574483Y-97334908D01*
X196514883Y-97328501D01*
X196514881Y-97328500D01*
X196514873Y-97328500D01*
X196514864Y-97328500D01*
X194719129Y-97328500D01*
X194719123Y-97328501D01*
X194659516Y-97334908D01*
X194524671Y-97385202D01*
X194524664Y-97385206D01*
X194409455Y-97471452D01*
X194409452Y-97471455D01*
X194323206Y-97586664D01*
X194323202Y-97586671D01*
X194272908Y-97721517D01*
X194266501Y-97781116D01*
X194266500Y-97781135D01*
X194266500Y-99576870D01*
X170111678Y-99576870D01*
X170152783Y-99361390D01*
X170152784Y-99361383D01*
X170171745Y-99060005D01*
X170171745Y-99059994D01*
X170152784Y-98758616D01*
X170152783Y-98758609D01*
X170096194Y-98461959D01*
X170002874Y-98174752D01*
X170002872Y-98174747D01*
X169874295Y-97901508D01*
X169874292Y-97901502D01*
X169712486Y-97646535D01*
X169631685Y-97548864D01*
X168806444Y-98374107D01*
X168745121Y-98407592D01*
X168675429Y-98402608D01*
X168619496Y-98360736D01*
X168617755Y-98358352D01*
X168602108Y-98336378D01*
X168602104Y-98336374D01*
X168455957Y-98197023D01*
X168421022Y-98136514D01*
X168424347Y-98066724D01*
X168453846Y-98019599D01*
X169280434Y-97193012D01*
X169055530Y-97029609D01*
X169055520Y-97029602D01*
X168821598Y-96901003D01*
X190329435Y-96901003D01*
X190349630Y-97080249D01*
X190349631Y-97080254D01*
X190409211Y-97250523D01*
X190462234Y-97334908D01*
X190505184Y-97403262D01*
X190632738Y-97530816D01*
X190785478Y-97626789D01*
X190825788Y-97640894D01*
X190955745Y-97686368D01*
X190955750Y-97686369D01*
X191134996Y-97706565D01*
X191135000Y-97706565D01*
X191135004Y-97706565D01*
X191314249Y-97686369D01*
X191314252Y-97686368D01*
X191314255Y-97686368D01*
X191484522Y-97626789D01*
X191637262Y-97530816D01*
X191764816Y-97403262D01*
X191860789Y-97250522D01*
X191920368Y-97080255D01*
X191926074Y-97029614D01*
X191940565Y-96901003D01*
X191940565Y-96900996D01*
X191920369Y-96721750D01*
X191920368Y-96721745D01*
X191860788Y-96551476D01*
X191764815Y-96398737D01*
X191637262Y-96271184D01*
X191484523Y-96175211D01*
X191314254Y-96115631D01*
X191314249Y-96115630D01*
X191135004Y-96095435D01*
X191134996Y-96095435D01*
X190955750Y-96115630D01*
X190955745Y-96115631D01*
X190785476Y-96175211D01*
X190632737Y-96271184D01*
X190505184Y-96398737D01*
X190409211Y-96551476D01*
X190349631Y-96721745D01*
X190349630Y-96721750D01*
X190329435Y-96900996D01*
X190329435Y-96901003D01*
X168821598Y-96901003D01*
X168790890Y-96884121D01*
X168790882Y-96884117D01*
X168510110Y-96772952D01*
X168510107Y-96772951D01*
X168217600Y-96697849D01*
X167918004Y-96660000D01*
X167615995Y-96660000D01*
X167316399Y-96697849D01*
X167023892Y-96772951D01*
X167023889Y-96772952D01*
X166743117Y-96884117D01*
X166743109Y-96884121D01*
X166478479Y-97029602D01*
X166478461Y-97029614D01*
X166253565Y-97193010D01*
X166253564Y-97193012D01*
X167082765Y-98022212D01*
X167116250Y-98083535D01*
X167111266Y-98153226D01*
X167071737Y-98207363D01*
X167004458Y-98260272D01*
X167004453Y-98260277D01*
X166910278Y-98368960D01*
X166851500Y-98406734D01*
X166781630Y-98406734D01*
X166728885Y-98375438D01*
X165902312Y-97548864D01*
X165821516Y-97646530D01*
X165659707Y-97901502D01*
X165659704Y-97901508D01*
X165531127Y-98174747D01*
X165531125Y-98174752D01*
X165437805Y-98461959D01*
X165381216Y-98758609D01*
X165381215Y-98758616D01*
X165362255Y-99059994D01*
X165362255Y-99060005D01*
X165381215Y-99361383D01*
X165381216Y-99361390D01*
X165437805Y-99658040D01*
X165531125Y-99945247D01*
X165531127Y-99945252D01*
X165659704Y-100218491D01*
X165659707Y-100218497D01*
X165821513Y-100473464D01*
X165902312Y-100571133D01*
X166727554Y-99745891D01*
X166788877Y-99712406D01*
X166858568Y-99717390D01*
X166914502Y-99759261D01*
X166916242Y-99761644D01*
X166931893Y-99783623D01*
X166931895Y-99783625D01*
X167078041Y-99922975D01*
X167112976Y-99983484D01*
X167109651Y-100053274D01*
X167080152Y-100100399D01*
X166253564Y-100926986D01*
X166478474Y-101090393D01*
X166478485Y-101090400D01*
X166743109Y-101235878D01*
X166743117Y-101235882D01*
X167023889Y-101347046D01*
X167056406Y-101355396D01*
X167116444Y-101391134D01*
X167147629Y-101453658D01*
X167140061Y-101523117D01*
X167096142Y-101577457D01*
X167029817Y-101599427D01*
X167025568Y-101599500D01*
X165224500Y-101599500D01*
X165157461Y-101579815D01*
X165111706Y-101527011D01*
X165100500Y-101475500D01*
X165100500Y-94818203D01*
X187332235Y-94818203D01*
X187352430Y-94997449D01*
X187352431Y-94997454D01*
X187412011Y-95167723D01*
X187507983Y-95320461D01*
X187507984Y-95320462D01*
X187635538Y-95448016D01*
X187788278Y-95543989D01*
X187958545Y-95603568D01*
X187958550Y-95603569D01*
X188137796Y-95623765D01*
X188137800Y-95623765D01*
X188137804Y-95623765D01*
X188317049Y-95603569D01*
X188317052Y-95603568D01*
X188317055Y-95603568D01*
X188487322Y-95543989D01*
X188578981Y-95486395D01*
X188646213Y-95467396D01*
X188713048Y-95487763D01*
X188732631Y-95503709D01*
X188753138Y-95524216D01*
X188784605Y-95543988D01*
X188882664Y-95605603D01*
X188905878Y-95620189D01*
X189076144Y-95679768D01*
X189076145Y-95679768D01*
X189076150Y-95679769D01*
X189255396Y-95699965D01*
X189255400Y-95699965D01*
X189255404Y-95699965D01*
X189434649Y-95679769D01*
X189434652Y-95679768D01*
X189434655Y-95679768D01*
X189604922Y-95620189D01*
X189757662Y-95524216D01*
X189885216Y-95396662D01*
X189981189Y-95243922D01*
X190040768Y-95073655D01*
X190046656Y-95021400D01*
X190060965Y-94894403D01*
X190060965Y-94894396D01*
X190040769Y-94715150D01*
X190040768Y-94715145D01*
X190024212Y-94667830D01*
X189981189Y-94544878D01*
X189885216Y-94392138D01*
X189757662Y-94264584D01*
X189746178Y-94257368D01*
X189604923Y-94168611D01*
X189434654Y-94109031D01*
X189434649Y-94109030D01*
X189255404Y-94088835D01*
X189255396Y-94088835D01*
X189076150Y-94109030D01*
X189076145Y-94109031D01*
X188905876Y-94168611D01*
X188814221Y-94226203D01*
X188746985Y-94245203D01*
X188680149Y-94224835D01*
X188660568Y-94208890D01*
X188640062Y-94188384D01*
X188487323Y-94092411D01*
X188317054Y-94032831D01*
X188317049Y-94032830D01*
X188137804Y-94012635D01*
X188137796Y-94012635D01*
X187958550Y-94032830D01*
X187958545Y-94032831D01*
X187788276Y-94092411D01*
X187635537Y-94188384D01*
X187507984Y-94315937D01*
X187412011Y-94468676D01*
X187352431Y-94638945D01*
X187352430Y-94638950D01*
X187332235Y-94818196D01*
X187332235Y-94818203D01*
X165100500Y-94818203D01*
X165100500Y-93294200D01*
X165623941Y-93294200D01*
X165644536Y-93529603D01*
X165644538Y-93529613D01*
X165705694Y-93757855D01*
X165705696Y-93757859D01*
X165705697Y-93757863D01*
X165795440Y-93950316D01*
X165805565Y-93972030D01*
X165805567Y-93972034D01*
X165901494Y-94109031D01*
X165941105Y-94165601D01*
X166108199Y-94332695D01*
X166128095Y-94346626D01*
X166301765Y-94468232D01*
X166301767Y-94468233D01*
X166301770Y-94468235D01*
X166515937Y-94568103D01*
X166744192Y-94629263D01*
X166932518Y-94645739D01*
X166979599Y-94649859D01*
X166979600Y-94649859D01*
X166979601Y-94649859D01*
X167018834Y-94646426D01*
X167215008Y-94629263D01*
X167443263Y-94568103D01*
X167657430Y-94468235D01*
X167851001Y-94332695D01*
X168018095Y-94165601D01*
X168153635Y-93972030D01*
X168253503Y-93757863D01*
X168309681Y-93548203D01*
X193529835Y-93548203D01*
X193550030Y-93727449D01*
X193550031Y-93727454D01*
X193609611Y-93897723D01*
X193679862Y-94009526D01*
X193705584Y-94050462D01*
X193833138Y-94178016D01*
X193833143Y-94178019D01*
X193837306Y-94181339D01*
X193877447Y-94238527D01*
X193880678Y-94301787D01*
X193881011Y-94301825D01*
X193880783Y-94303844D01*
X193880887Y-94305871D01*
X193880231Y-94308744D01*
X193860035Y-94487996D01*
X193860035Y-94488003D01*
X193880230Y-94667249D01*
X193880231Y-94667254D01*
X193939811Y-94837522D01*
X194007204Y-94944777D01*
X194026204Y-95012013D01*
X194005836Y-95078849D01*
X193989896Y-95098426D01*
X193984983Y-95103338D01*
X193889011Y-95256076D01*
X193829431Y-95426345D01*
X193829430Y-95426350D01*
X193809235Y-95605596D01*
X193809235Y-95605603D01*
X193829430Y-95784849D01*
X193829431Y-95784854D01*
X193889011Y-95955123D01*
X193969372Y-96083016D01*
X193984984Y-96107862D01*
X194112538Y-96235416D01*
X194265278Y-96331389D01*
X194435545Y-96390967D01*
X194435545Y-96390968D01*
X194435550Y-96390969D01*
X194614796Y-96411165D01*
X194614800Y-96411165D01*
X194614804Y-96411165D01*
X194794049Y-96390969D01*
X194794052Y-96390968D01*
X194794055Y-96390968D01*
X194964322Y-96331389D01*
X195117062Y-96235416D01*
X195146334Y-96206143D01*
X195207656Y-96172658D01*
X195274971Y-96176782D01*
X195451545Y-96238568D01*
X195451550Y-96238569D01*
X195630796Y-96258765D01*
X195630800Y-96258765D01*
X195630804Y-96258765D01*
X195810049Y-96238569D01*
X195810052Y-96238568D01*
X195810055Y-96238568D01*
X195980322Y-96178989D01*
X196133062Y-96083016D01*
X196260616Y-95955462D01*
X196356589Y-95802722D01*
X196416168Y-95632455D01*
X196417550Y-95620188D01*
X196436365Y-95453203D01*
X196436365Y-95453196D01*
X196416169Y-95273950D01*
X196416168Y-95273945D01*
X196356588Y-95103676D01*
X196298992Y-95012013D01*
X196260616Y-94950938D01*
X196133062Y-94823384D01*
X196133061Y-94823384D01*
X195980323Y-94727411D01*
X195810054Y-94667831D01*
X195810049Y-94667830D01*
X195630804Y-94647635D01*
X195630802Y-94647635D01*
X195630800Y-94647635D01*
X195619963Y-94648855D01*
X195605405Y-94650496D01*
X195536583Y-94638439D01*
X195485205Y-94591089D01*
X195467582Y-94523479D01*
X195468304Y-94513390D01*
X195471165Y-94488000D01*
X195471165Y-94487996D01*
X195462991Y-94415448D01*
X195475046Y-94346626D01*
X195522395Y-94295247D01*
X195573393Y-94281116D01*
X195573081Y-94278345D01*
X195759249Y-94257369D01*
X195759252Y-94257368D01*
X195759255Y-94257368D01*
X195929522Y-94197789D01*
X196082262Y-94101816D01*
X196209816Y-93974262D01*
X196305789Y-93821522D01*
X196365368Y-93651255D01*
X196365369Y-93651249D01*
X196385565Y-93472003D01*
X196385565Y-93471996D01*
X196365369Y-93292750D01*
X196365368Y-93292745D01*
X196362859Y-93285576D01*
X196305789Y-93122478D01*
X196209816Y-92969738D01*
X196082262Y-92842184D01*
X196063723Y-92830535D01*
X195929523Y-92746211D01*
X195759254Y-92686631D01*
X195759249Y-92686630D01*
X195580004Y-92666435D01*
X195579996Y-92666435D01*
X195400750Y-92686630D01*
X195400745Y-92686631D01*
X195230476Y-92746211D01*
X195077739Y-92842183D01*
X195007188Y-92912734D01*
X194945864Y-92946218D01*
X194876173Y-92941233D01*
X194842191Y-92921996D01*
X194837663Y-92918385D01*
X194837662Y-92918384D01*
X194754887Y-92866373D01*
X194684923Y-92822411D01*
X194514654Y-92762831D01*
X194514649Y-92762830D01*
X194335404Y-92742635D01*
X194335396Y-92742635D01*
X194156150Y-92762830D01*
X194156145Y-92762831D01*
X193985876Y-92822411D01*
X193833137Y-92918384D01*
X193705584Y-93045937D01*
X193609611Y-93198676D01*
X193550031Y-93368945D01*
X193550030Y-93368950D01*
X193529835Y-93548196D01*
X193529835Y-93548203D01*
X168309681Y-93548203D01*
X168314663Y-93529608D01*
X168335259Y-93294200D01*
X168334504Y-93285576D01*
X168326902Y-93198678D01*
X168314663Y-93058792D01*
X168256624Y-92842184D01*
X168253505Y-92830544D01*
X168253504Y-92830543D01*
X168253503Y-92830537D01*
X168153635Y-92616371D01*
X168107644Y-92550689D01*
X168018096Y-92422800D01*
X167957226Y-92361930D01*
X167896167Y-92300871D01*
X167862684Y-92239551D01*
X167867668Y-92169859D01*
X167909539Y-92113925D01*
X167940515Y-92097010D01*
X168071931Y-92047996D01*
X168187146Y-91961746D01*
X168273396Y-91846531D01*
X168323691Y-91711683D01*
X168330100Y-91652073D01*
X168330100Y-91338403D01*
X182861835Y-91338403D01*
X182882030Y-91517649D01*
X182882031Y-91517654D01*
X182941611Y-91687923D01*
X182955726Y-91710386D01*
X183037584Y-91840662D01*
X183165138Y-91968216D01*
X183206159Y-91993991D01*
X183292108Y-92047997D01*
X183317878Y-92064189D01*
X183411675Y-92097010D01*
X183488145Y-92123768D01*
X183488150Y-92123769D01*
X183667396Y-92143965D01*
X183667400Y-92143965D01*
X183667404Y-92143965D01*
X183846649Y-92123769D01*
X183846652Y-92123768D01*
X183846655Y-92123768D01*
X184016922Y-92064189D01*
X184169662Y-91968216D01*
X184297216Y-91840662D01*
X184393189Y-91687922D01*
X184408837Y-91643203D01*
X188475235Y-91643203D01*
X188495430Y-91822449D01*
X188495431Y-91822454D01*
X188555011Y-91992723D01*
X188631168Y-92113925D01*
X188650984Y-92145462D01*
X188778538Y-92273016D01*
X188781772Y-92275048D01*
X188920043Y-92361930D01*
X188931278Y-92368989D01*
X189048895Y-92410145D01*
X189101545Y-92428568D01*
X189101550Y-92428569D01*
X189197959Y-92439431D01*
X189262374Y-92466497D01*
X189289071Y-92496679D01*
X189291610Y-92500720D01*
X189291611Y-92500722D01*
X189387584Y-92653462D01*
X189515138Y-92781016D01*
X189581018Y-92822411D01*
X189658984Y-92871401D01*
X189667878Y-92876989D01*
X189786178Y-92918384D01*
X189838145Y-92936568D01*
X189838150Y-92936569D01*
X190017396Y-92956765D01*
X190017400Y-92956765D01*
X190017404Y-92956765D01*
X190196649Y-92936569D01*
X190196652Y-92936568D01*
X190196655Y-92936568D01*
X190366922Y-92876989D01*
X190519662Y-92781016D01*
X190647216Y-92653462D01*
X190743189Y-92500722D01*
X190802768Y-92330455D01*
X190806101Y-92300873D01*
X190822965Y-92151203D01*
X190822965Y-92151196D01*
X190802769Y-91971950D01*
X190802768Y-91971945D01*
X190799199Y-91961746D01*
X190743189Y-91801678D01*
X190647216Y-91648938D01*
X190519662Y-91521384D01*
X190490804Y-91503251D01*
X190366921Y-91425410D01*
X190196649Y-91365830D01*
X190100240Y-91354968D01*
X190035826Y-91327902D01*
X190009129Y-91297720D01*
X189910615Y-91140937D01*
X189783062Y-91013384D01*
X189630323Y-90917411D01*
X189460054Y-90857831D01*
X189460049Y-90857830D01*
X189280804Y-90837635D01*
X189280796Y-90837635D01*
X189101550Y-90857830D01*
X189101545Y-90857831D01*
X188931276Y-90917411D01*
X188778537Y-91013384D01*
X188650984Y-91140937D01*
X188555011Y-91293676D01*
X188495431Y-91463945D01*
X188495430Y-91463950D01*
X188475235Y-91643196D01*
X188475235Y-91643203D01*
X184408837Y-91643203D01*
X184452768Y-91517655D01*
X184462333Y-91432765D01*
X184472965Y-91338403D01*
X184472965Y-91338396D01*
X184452769Y-91159150D01*
X184452768Y-91159145D01*
X184393188Y-90988876D01*
X184310847Y-90857832D01*
X184297216Y-90836138D01*
X184169662Y-90708584D01*
X184146164Y-90693819D01*
X184040146Y-90627203D01*
X185376435Y-90627203D01*
X185396630Y-90806449D01*
X185396631Y-90806454D01*
X185456211Y-90976723D01*
X185463849Y-90988878D01*
X185552184Y-91129462D01*
X185679738Y-91257016D01*
X185738082Y-91293676D01*
X185809264Y-91338403D01*
X185832478Y-91352989D01*
X186002744Y-91412567D01*
X186002745Y-91412568D01*
X186002750Y-91412569D01*
X186181996Y-91432765D01*
X186182000Y-91432765D01*
X186182004Y-91432765D01*
X186361249Y-91412569D01*
X186361252Y-91412568D01*
X186361255Y-91412568D01*
X186531522Y-91352989D01*
X186684262Y-91257016D01*
X186811816Y-91129462D01*
X186907789Y-90976722D01*
X186967368Y-90806455D01*
X186971700Y-90768008D01*
X186987565Y-90627203D01*
X186987565Y-90627196D01*
X186967369Y-90447950D01*
X186967368Y-90447945D01*
X186967166Y-90447368D01*
X186907789Y-90277678D01*
X186811816Y-90124938D01*
X186684262Y-89997384D01*
X186531523Y-89901411D01*
X186361254Y-89841831D01*
X186361249Y-89841830D01*
X186182004Y-89821635D01*
X186181996Y-89821635D01*
X186002750Y-89841830D01*
X186002745Y-89841831D01*
X185832476Y-89901411D01*
X185679737Y-89997384D01*
X185552184Y-90124937D01*
X185456211Y-90277676D01*
X185396631Y-90447945D01*
X185396630Y-90447950D01*
X185376435Y-90627196D01*
X185376435Y-90627203D01*
X184040146Y-90627203D01*
X184016923Y-90612611D01*
X183846654Y-90553031D01*
X183846649Y-90553030D01*
X183667404Y-90532835D01*
X183667396Y-90532835D01*
X183488150Y-90553030D01*
X183488145Y-90553031D01*
X183317876Y-90612611D01*
X183165137Y-90708584D01*
X183037584Y-90836137D01*
X182941611Y-90988876D01*
X182882031Y-91159145D01*
X182882030Y-91159150D01*
X182861835Y-91338396D01*
X182861835Y-91338403D01*
X168330100Y-91338403D01*
X168330099Y-89856328D01*
X168323691Y-89796717D01*
X168273446Y-89662003D01*
X191218435Y-89662003D01*
X191238630Y-89841249D01*
X191238631Y-89841254D01*
X191298211Y-90011523D01*
X191369474Y-90124937D01*
X191394184Y-90164262D01*
X191521738Y-90291816D01*
X191674478Y-90387789D01*
X191844745Y-90447367D01*
X191844745Y-90447368D01*
X191844750Y-90447369D01*
X192023996Y-90467565D01*
X192024000Y-90467565D01*
X192024004Y-90467565D01*
X192203249Y-90447369D01*
X192203252Y-90447368D01*
X192203255Y-90447368D01*
X192373522Y-90387789D01*
X192526262Y-90291816D01*
X192653816Y-90164262D01*
X192749789Y-90011522D01*
X192809368Y-89841255D01*
X192811579Y-89821635D01*
X192829565Y-89662003D01*
X192829565Y-89661996D01*
X192809369Y-89482750D01*
X192809368Y-89482745D01*
X192801550Y-89460402D01*
X192749789Y-89312478D01*
X192653816Y-89159738D01*
X192526262Y-89032184D01*
X192469336Y-88996415D01*
X192373523Y-88936211D01*
X192203254Y-88876631D01*
X192203249Y-88876630D01*
X192024004Y-88856435D01*
X192023996Y-88856435D01*
X191844750Y-88876630D01*
X191844745Y-88876631D01*
X191674476Y-88936211D01*
X191521737Y-89032184D01*
X191394184Y-89159737D01*
X191298211Y-89312476D01*
X191238631Y-89482745D01*
X191238630Y-89482750D01*
X191218435Y-89661996D01*
X191218435Y-89662003D01*
X168273446Y-89662003D01*
X168273443Y-89661996D01*
X168273397Y-89661871D01*
X168273393Y-89661864D01*
X168187147Y-89546655D01*
X168187144Y-89546652D01*
X168071935Y-89460406D01*
X168071928Y-89460402D01*
X167937082Y-89410108D01*
X167937083Y-89410108D01*
X167877483Y-89403701D01*
X167877481Y-89403700D01*
X167877473Y-89403700D01*
X167877464Y-89403700D01*
X166081729Y-89403700D01*
X166081723Y-89403701D01*
X166022116Y-89410108D01*
X165887271Y-89460402D01*
X165887264Y-89460406D01*
X165772055Y-89546652D01*
X165772052Y-89546655D01*
X165685806Y-89661864D01*
X165685802Y-89661871D01*
X165635508Y-89796717D01*
X165630658Y-89841832D01*
X165629101Y-89856323D01*
X165629100Y-89856335D01*
X165629100Y-91652070D01*
X165629101Y-91652076D01*
X165635508Y-91711683D01*
X165685802Y-91846528D01*
X165685806Y-91846535D01*
X165772052Y-91961744D01*
X165772055Y-91961747D01*
X165887264Y-92047993D01*
X165887271Y-92047997D01*
X166018681Y-92097010D01*
X166074615Y-92138881D01*
X166099032Y-92204345D01*
X166084180Y-92272618D01*
X166063030Y-92300873D01*
X165941103Y-92422800D01*
X165805565Y-92616369D01*
X165805564Y-92616371D01*
X165705698Y-92830535D01*
X165705694Y-92830544D01*
X165644538Y-93058786D01*
X165644536Y-93058796D01*
X165623941Y-93294199D01*
X165623941Y-93294200D01*
X165100500Y-93294200D01*
X165100500Y-88366603D01*
X186519435Y-88366603D01*
X186539630Y-88545849D01*
X186539631Y-88545854D01*
X186599211Y-88716123D01*
X186687376Y-88856435D01*
X186695184Y-88868862D01*
X186822738Y-88996416D01*
X186975478Y-89092389D01*
X187145745Y-89151968D01*
X187145750Y-89151969D01*
X187324996Y-89172165D01*
X187325000Y-89172165D01*
X187325004Y-89172165D01*
X187504249Y-89151969D01*
X187504252Y-89151968D01*
X187504255Y-89151968D01*
X187674522Y-89092389D01*
X187827262Y-88996416D01*
X187954816Y-88868862D01*
X188050789Y-88716122D01*
X188110368Y-88545855D01*
X188110369Y-88545849D01*
X188130565Y-88366603D01*
X188130565Y-88366596D01*
X188116256Y-88239603D01*
X189592835Y-88239603D01*
X189613030Y-88418849D01*
X189613031Y-88418854D01*
X189672611Y-88589123D01*
X189752410Y-88716122D01*
X189768584Y-88741862D01*
X189896138Y-88869416D01*
X189986480Y-88926182D01*
X190002441Y-88936211D01*
X190048878Y-88965389D01*
X190137548Y-88996416D01*
X190219145Y-89024968D01*
X190219150Y-89024969D01*
X190398396Y-89045165D01*
X190398400Y-89045165D01*
X190398404Y-89045165D01*
X190577649Y-89024969D01*
X190577652Y-89024968D01*
X190577655Y-89024968D01*
X190747922Y-88965389D01*
X190900662Y-88869416D01*
X191028216Y-88741862D01*
X191124189Y-88589122D01*
X191183768Y-88418855D01*
X191183769Y-88418849D01*
X191203965Y-88239603D01*
X191203965Y-88239596D01*
X191183769Y-88060350D01*
X191183768Y-88060345D01*
X191168628Y-88017078D01*
X191124189Y-87890078D01*
X191108015Y-87864338D01*
X191028215Y-87737337D01*
X190900662Y-87609784D01*
X190747923Y-87513811D01*
X190577654Y-87454231D01*
X190577649Y-87454230D01*
X190398404Y-87434035D01*
X190398396Y-87434035D01*
X190219150Y-87454230D01*
X190219145Y-87454231D01*
X190048876Y-87513811D01*
X189896137Y-87609784D01*
X189768584Y-87737337D01*
X189672611Y-87890076D01*
X189613031Y-88060345D01*
X189613030Y-88060350D01*
X189592835Y-88239596D01*
X189592835Y-88239603D01*
X188116256Y-88239603D01*
X188110369Y-88187350D01*
X188110368Y-88187345D01*
X188072804Y-88079994D01*
X188050789Y-88017078D01*
X187954816Y-87864338D01*
X187827262Y-87736784D01*
X187827262Y-87736783D01*
X187674523Y-87640811D01*
X187504254Y-87581231D01*
X187504249Y-87581230D01*
X187325004Y-87561035D01*
X187324996Y-87561035D01*
X187145750Y-87581230D01*
X187145745Y-87581231D01*
X186975476Y-87640811D01*
X186822737Y-87736784D01*
X186695184Y-87864337D01*
X186599211Y-88017076D01*
X186539631Y-88187345D01*
X186539630Y-88187350D01*
X186519435Y-88366596D01*
X186519435Y-88366603D01*
X165100500Y-88366603D01*
X165100500Y-82499200D01*
X165623941Y-82499200D01*
X165644536Y-82734603D01*
X165644538Y-82734613D01*
X165705694Y-82962855D01*
X165705696Y-82962859D01*
X165705697Y-82962863D01*
X165728789Y-83012384D01*
X165805565Y-83177030D01*
X165805567Y-83177034D01*
X165913840Y-83331662D01*
X165941105Y-83370601D01*
X166108199Y-83537695D01*
X166260349Y-83644232D01*
X166294194Y-83667930D01*
X166337819Y-83722507D01*
X166345013Y-83792005D01*
X166313490Y-83854360D01*
X166294195Y-83871080D01*
X166108522Y-84001090D01*
X166108520Y-84001091D01*
X165941491Y-84168120D01*
X165941486Y-84168126D01*
X165806000Y-84361620D01*
X165805999Y-84361622D01*
X165706170Y-84575707D01*
X165706167Y-84575713D01*
X165648964Y-84789199D01*
X165648964Y-84789200D01*
X166366253Y-84789200D01*
X166433292Y-84808885D01*
X166479047Y-84861689D01*
X166488991Y-84930847D01*
X166485231Y-84948133D01*
X166479600Y-84967311D01*
X166479600Y-85111088D01*
X166485231Y-85130267D01*
X166485230Y-85200136D01*
X166447455Y-85258914D01*
X166383899Y-85287938D01*
X166366253Y-85289200D01*
X165648964Y-85289200D01*
X165706167Y-85502686D01*
X165706170Y-85502692D01*
X165805999Y-85716778D01*
X165941494Y-85910282D01*
X166108517Y-86077305D01*
X166302021Y-86212800D01*
X166516107Y-86312629D01*
X166516116Y-86312633D01*
X166729600Y-86369834D01*
X166729600Y-85651501D01*
X166749285Y-85584462D01*
X166802089Y-85538707D01*
X166871247Y-85528763D01*
X166943837Y-85539200D01*
X166943838Y-85539200D01*
X167015362Y-85539200D01*
X167015363Y-85539200D01*
X167087953Y-85528763D01*
X167157112Y-85538707D01*
X167209915Y-85584462D01*
X167229600Y-85651501D01*
X167229600Y-86369833D01*
X167443083Y-86312633D01*
X167443092Y-86312629D01*
X167657178Y-86212800D01*
X167737149Y-86156803D01*
X185173235Y-86156803D01*
X185193430Y-86336049D01*
X185193433Y-86336062D01*
X185253009Y-86506320D01*
X185310111Y-86597198D01*
X185329111Y-86664435D01*
X185322159Y-86704122D01*
X185299096Y-86770034D01*
X185299096Y-86770035D01*
X185278900Y-86949285D01*
X185278900Y-86949292D01*
X185299095Y-87128538D01*
X185299096Y-87128543D01*
X185358676Y-87298812D01*
X185387540Y-87344748D01*
X185454649Y-87451551D01*
X185582203Y-87579105D01*
X185734943Y-87675078D01*
X185848305Y-87714745D01*
X185905210Y-87734657D01*
X185905215Y-87734658D01*
X186084461Y-87754854D01*
X186084465Y-87754854D01*
X186084469Y-87754854D01*
X186263714Y-87734658D01*
X186263717Y-87734657D01*
X186263720Y-87734657D01*
X186433987Y-87675078D01*
X186586727Y-87579105D01*
X186714281Y-87451551D01*
X186810254Y-87298811D01*
X186869833Y-87128544D01*
X186869834Y-87128538D01*
X186890030Y-86949292D01*
X186890030Y-86949285D01*
X186869834Y-86770039D01*
X186869833Y-86770034D01*
X186848961Y-86710386D01*
X186810254Y-86599767D01*
X186753151Y-86508889D01*
X186734152Y-86441654D01*
X186741104Y-86401965D01*
X186764168Y-86336055D01*
X186766807Y-86312633D01*
X186784365Y-86156803D01*
X186784365Y-86156796D01*
X186764169Y-85977550D01*
X186764168Y-85977545D01*
X186740632Y-85910282D01*
X186704589Y-85807278D01*
X186700767Y-85801196D01*
X186647724Y-85716778D01*
X186608616Y-85654538D01*
X186481062Y-85526984D01*
X186382027Y-85464756D01*
X186328323Y-85431011D01*
X186158054Y-85371431D01*
X186158049Y-85371430D01*
X185978804Y-85351235D01*
X185978796Y-85351235D01*
X185799550Y-85371430D01*
X185799545Y-85371431D01*
X185629276Y-85431011D01*
X185476537Y-85526984D01*
X185348984Y-85654537D01*
X185253011Y-85807276D01*
X185193431Y-85977545D01*
X185193430Y-85977550D01*
X185173235Y-86156796D01*
X185173235Y-86156803D01*
X167737149Y-86156803D01*
X167850682Y-86077305D01*
X168017705Y-85910282D01*
X168153200Y-85716778D01*
X168253029Y-85502692D01*
X168253032Y-85502686D01*
X168310236Y-85289200D01*
X167592947Y-85289200D01*
X167525908Y-85269515D01*
X167502415Y-85242403D01*
X189948435Y-85242403D01*
X189968630Y-85421649D01*
X189968631Y-85421654D01*
X190028211Y-85591923D01*
X190124184Y-85744662D01*
X190160964Y-85781442D01*
X190194449Y-85842765D01*
X190189465Y-85912457D01*
X190178277Y-85935095D01*
X190130911Y-86010476D01*
X190071331Y-86180745D01*
X190071330Y-86180750D01*
X190051135Y-86359996D01*
X190051135Y-86360003D01*
X190071330Y-86539249D01*
X190071331Y-86539254D01*
X190130911Y-86709523D01*
X190168936Y-86770039D01*
X190226884Y-86862262D01*
X190354438Y-86989816D01*
X190507178Y-87085789D01*
X190655300Y-87137619D01*
X190677445Y-87145368D01*
X190677450Y-87145369D01*
X190856696Y-87165565D01*
X190856700Y-87165565D01*
X190856704Y-87165565D01*
X191035949Y-87145369D01*
X191035952Y-87145368D01*
X191035955Y-87145368D01*
X191206222Y-87085789D01*
X191358962Y-86989816D01*
X191486516Y-86862262D01*
X191582489Y-86709522D01*
X191642068Y-86539255D01*
X191643450Y-86526988D01*
X191662265Y-86360003D01*
X191662265Y-86359996D01*
X191642069Y-86180750D01*
X191642068Y-86180745D01*
X191625452Y-86133259D01*
X191582489Y-86010478D01*
X191486516Y-85857738D01*
X191449735Y-85820957D01*
X191416250Y-85759634D01*
X191421234Y-85689942D01*
X191432417Y-85667313D01*
X191479789Y-85591922D01*
X191539368Y-85421655D01*
X191545048Y-85371247D01*
X191559565Y-85242403D01*
X191559565Y-85242396D01*
X191539369Y-85063150D01*
X191539368Y-85063145D01*
X191505834Y-84967311D01*
X191479789Y-84892878D01*
X191470606Y-84878264D01*
X191437257Y-84825189D01*
X191383816Y-84740138D01*
X191256262Y-84612584D01*
X191238880Y-84601662D01*
X191103523Y-84516611D01*
X190933254Y-84457031D01*
X190933249Y-84457030D01*
X190754004Y-84436835D01*
X190753996Y-84436835D01*
X190574750Y-84457030D01*
X190574745Y-84457031D01*
X190404476Y-84516611D01*
X190251737Y-84612584D01*
X190124184Y-84740137D01*
X190028211Y-84892876D01*
X189968631Y-85063145D01*
X189968630Y-85063150D01*
X189948435Y-85242396D01*
X189948435Y-85242403D01*
X167502415Y-85242403D01*
X167480153Y-85216711D01*
X167470209Y-85147553D01*
X167473969Y-85130267D01*
X167479600Y-85111088D01*
X167479600Y-84967311D01*
X167473969Y-84948133D01*
X167473970Y-84878264D01*
X167511745Y-84819486D01*
X167575301Y-84790462D01*
X167592947Y-84789200D01*
X168310236Y-84789200D01*
X168310235Y-84789199D01*
X168253032Y-84575713D01*
X168253029Y-84575707D01*
X168153200Y-84361622D01*
X168153199Y-84361620D01*
X168017713Y-84168126D01*
X168017708Y-84168120D01*
X167850678Y-84001090D01*
X167665005Y-83871079D01*
X167621380Y-83816502D01*
X167614188Y-83747004D01*
X167645710Y-83684649D01*
X167665006Y-83667930D01*
X167851001Y-83537695D01*
X168018095Y-83370601D01*
X168153635Y-83177030D01*
X168253503Y-82962863D01*
X168289263Y-82829403D01*
X170669835Y-82829403D01*
X170690030Y-83008649D01*
X170690031Y-83008654D01*
X170749611Y-83178923D01*
X170845584Y-83331662D01*
X170903340Y-83389418D01*
X170936825Y-83450741D01*
X170931841Y-83520433D01*
X170903341Y-83564779D01*
X170870986Y-83597134D01*
X170775011Y-83749876D01*
X170715431Y-83920145D01*
X170715430Y-83920150D01*
X170695235Y-84099396D01*
X170695235Y-84099403D01*
X170715430Y-84278649D01*
X170715431Y-84278654D01*
X170775011Y-84448923D01*
X170854675Y-84575707D01*
X170870984Y-84601662D01*
X170998538Y-84729216D01*
X171088880Y-84785982D01*
X171142201Y-84819486D01*
X171151278Y-84825189D01*
X171255589Y-84861689D01*
X171321545Y-84884768D01*
X171321550Y-84884769D01*
X171500796Y-84904965D01*
X171500800Y-84904965D01*
X171500804Y-84904965D01*
X171680049Y-84884769D01*
X171680052Y-84884768D01*
X171680055Y-84884768D01*
X171850322Y-84825189D01*
X172003062Y-84729216D01*
X172130616Y-84601662D01*
X172226589Y-84448922D01*
X172286168Y-84278655D01*
X172286916Y-84272015D01*
X172306365Y-84099403D01*
X172306365Y-84099396D01*
X172286169Y-83920150D01*
X172286168Y-83920145D01*
X172263149Y-83854360D01*
X172226589Y-83749878D01*
X172158932Y-83642203D01*
X186570235Y-83642203D01*
X186590430Y-83821449D01*
X186590431Y-83821454D01*
X186650011Y-83991723D01*
X186745984Y-84144461D01*
X186745984Y-84144462D01*
X186873538Y-84272016D01*
X186884104Y-84278655D01*
X187016141Y-84361620D01*
X187026278Y-84367989D01*
X187196545Y-84427567D01*
X187196545Y-84427568D01*
X187196550Y-84427569D01*
X187375796Y-84447765D01*
X187375800Y-84447765D01*
X187375804Y-84447765D01*
X187536997Y-84429603D01*
X197466835Y-84429603D01*
X197487030Y-84608849D01*
X197487031Y-84608854D01*
X197546611Y-84779123D01*
X197625683Y-84904965D01*
X197642584Y-84931862D01*
X197770138Y-85059416D01*
X197776073Y-85063145D01*
X197882896Y-85130267D01*
X197922878Y-85155389D01*
X198050483Y-85200040D01*
X198093145Y-85214968D01*
X198093150Y-85214969D01*
X198272396Y-85235165D01*
X198272400Y-85235165D01*
X198272403Y-85235165D01*
X198348916Y-85226544D01*
X198417738Y-85238598D01*
X198469118Y-85285947D01*
X198486742Y-85353558D01*
X198467794Y-85415735D01*
X198445212Y-85451674D01*
X198385631Y-85621945D01*
X198385630Y-85621950D01*
X198365435Y-85801196D01*
X198365435Y-85801203D01*
X198385630Y-85980449D01*
X198385631Y-85980454D01*
X198445211Y-86150723D01*
X198480398Y-86206722D01*
X198541184Y-86303462D01*
X198668738Y-86431016D01*
X198696198Y-86448270D01*
X198792673Y-86508890D01*
X198821478Y-86526989D01*
X198930839Y-86565256D01*
X198991745Y-86586568D01*
X198991750Y-86586569D01*
X199170996Y-86606765D01*
X199171000Y-86606765D01*
X199171004Y-86606765D01*
X199350249Y-86586569D01*
X199350252Y-86586568D01*
X199350255Y-86586568D01*
X199520522Y-86526989D01*
X199673262Y-86431016D01*
X199800816Y-86303462D01*
X199896789Y-86150722D01*
X199956368Y-85980455D01*
X199956369Y-85980449D01*
X199976565Y-85801203D01*
X199976565Y-85801196D01*
X199956369Y-85621950D01*
X199956368Y-85621945D01*
X199923140Y-85526984D01*
X199896789Y-85451678D01*
X199896786Y-85451674D01*
X199800815Y-85298937D01*
X199673262Y-85171384D01*
X199520523Y-85075411D01*
X199350254Y-85015831D01*
X199350249Y-85015830D01*
X199171004Y-84995635D01*
X199170995Y-84995635D01*
X199094481Y-85004255D01*
X199025659Y-84992200D01*
X198974280Y-84944850D01*
X198956657Y-84877240D01*
X198975605Y-84815064D01*
X198998189Y-84779122D01*
X199057768Y-84608855D01*
X199057769Y-84608849D01*
X199077965Y-84429603D01*
X199077965Y-84429596D01*
X199057769Y-84250350D01*
X199057768Y-84250345D01*
X199004950Y-84099400D01*
X198998189Y-84080078D01*
X198902216Y-83927338D01*
X198774662Y-83799784D01*
X198762282Y-83792005D01*
X198621923Y-83703811D01*
X198451654Y-83644231D01*
X198451649Y-83644230D01*
X198272404Y-83624035D01*
X198272396Y-83624035D01*
X198093150Y-83644230D01*
X198093145Y-83644231D01*
X197922876Y-83703811D01*
X197770137Y-83799784D01*
X197642584Y-83927337D01*
X197546611Y-84080076D01*
X197487031Y-84250345D01*
X197487030Y-84250350D01*
X197466835Y-84429596D01*
X197466835Y-84429603D01*
X187536997Y-84429603D01*
X187555049Y-84427569D01*
X187555052Y-84427568D01*
X187555055Y-84427568D01*
X187725322Y-84367989D01*
X187878062Y-84272016D01*
X188005616Y-84144462D01*
X188101589Y-83991722D01*
X188161168Y-83821455D01*
X188163610Y-83799784D01*
X188181365Y-83642203D01*
X188181365Y-83642196D01*
X188161169Y-83462950D01*
X188161168Y-83462945D01*
X188128853Y-83370595D01*
X188101589Y-83292678D01*
X188005616Y-83139938D01*
X187878062Y-83012384D01*
X187820530Y-82976234D01*
X187725323Y-82916411D01*
X187555054Y-82856831D01*
X187555049Y-82856830D01*
X187375804Y-82836635D01*
X187375796Y-82836635D01*
X187196550Y-82856830D01*
X187196545Y-82856831D01*
X187026276Y-82916411D01*
X186873537Y-83012384D01*
X186745984Y-83139937D01*
X186650011Y-83292676D01*
X186590431Y-83462945D01*
X186590430Y-83462950D01*
X186570235Y-83642196D01*
X186570235Y-83642203D01*
X172158932Y-83642203D01*
X172130616Y-83597138D01*
X172072858Y-83539380D01*
X172039374Y-83478056D01*
X172044359Y-83408365D01*
X172072858Y-83364019D01*
X172105216Y-83331662D01*
X172201189Y-83178922D01*
X172260768Y-83008655D01*
X172264421Y-82976234D01*
X172280965Y-82829403D01*
X172280965Y-82829396D01*
X172260769Y-82650150D01*
X172260768Y-82650145D01*
X172207950Y-82499200D01*
X172201189Y-82479878D01*
X172105216Y-82327138D01*
X171977662Y-82199584D01*
X171969417Y-82194403D01*
X190989835Y-82194403D01*
X191010030Y-82373649D01*
X191010031Y-82373654D01*
X191069611Y-82543923D01*
X191157443Y-82683705D01*
X191165584Y-82696662D01*
X191293138Y-82824216D01*
X191345046Y-82856832D01*
X191444031Y-82919029D01*
X191445878Y-82920189D01*
X191567836Y-82962864D01*
X191616145Y-82979768D01*
X191616150Y-82979769D01*
X191795396Y-82999965D01*
X191795400Y-82999965D01*
X191795404Y-82999965D01*
X191974649Y-82979769D01*
X191974652Y-82979768D01*
X191974655Y-82979768D01*
X192144922Y-82920189D01*
X192297662Y-82824216D01*
X192425216Y-82696662D01*
X192517368Y-82550003D01*
X198990835Y-82550003D01*
X199011030Y-82729249D01*
X199011031Y-82729254D01*
X199070611Y-82899523D01*
X199139180Y-83008649D01*
X199166584Y-83052262D01*
X199294138Y-83179816D01*
X199446878Y-83275789D01*
X199606554Y-83331662D01*
X199617145Y-83335368D01*
X199617150Y-83335369D01*
X199796396Y-83355565D01*
X199796400Y-83355565D01*
X199796404Y-83355565D01*
X199975649Y-83335369D01*
X199975652Y-83335368D01*
X199975655Y-83335368D01*
X200145922Y-83275789D01*
X200298662Y-83179816D01*
X200426216Y-83052262D01*
X200522189Y-82899522D01*
X200581768Y-82729255D01*
X200581769Y-82729249D01*
X200601965Y-82550003D01*
X200601965Y-82549996D01*
X200581769Y-82370750D01*
X200581768Y-82370745D01*
X200544345Y-82263796D01*
X200522189Y-82200478D01*
X200521627Y-82199584D01*
X200464767Y-82109092D01*
X200426216Y-82047738D01*
X200298662Y-81920184D01*
X200259537Y-81895600D01*
X200145923Y-81824211D01*
X199975654Y-81764631D01*
X199975649Y-81764630D01*
X199796404Y-81744435D01*
X199796396Y-81744435D01*
X199617150Y-81764630D01*
X199617145Y-81764631D01*
X199446876Y-81824211D01*
X199294137Y-81920184D01*
X199166584Y-82047737D01*
X199070611Y-82200476D01*
X199011031Y-82370745D01*
X199011030Y-82370750D01*
X198990835Y-82549996D01*
X198990835Y-82550003D01*
X192517368Y-82550003D01*
X192521189Y-82543922D01*
X192580768Y-82373655D01*
X192580769Y-82373649D01*
X192600965Y-82194403D01*
X192600965Y-82194396D01*
X192580769Y-82015150D01*
X192580768Y-82015145D01*
X192521188Y-81844876D01*
X192425215Y-81692137D01*
X192297662Y-81564584D01*
X192144923Y-81468611D01*
X191974654Y-81409031D01*
X191974649Y-81409030D01*
X191795404Y-81388835D01*
X191795396Y-81388835D01*
X191616150Y-81409030D01*
X191616145Y-81409031D01*
X191445876Y-81468611D01*
X191293137Y-81564584D01*
X191165584Y-81692137D01*
X191069611Y-81844876D01*
X191010031Y-82015145D01*
X191010030Y-82015150D01*
X190989835Y-82194396D01*
X190989835Y-82194403D01*
X171969417Y-82194403D01*
X171824923Y-82103611D01*
X171654654Y-82044031D01*
X171654649Y-82044030D01*
X171475404Y-82023835D01*
X171475396Y-82023835D01*
X171296150Y-82044030D01*
X171296145Y-82044031D01*
X171125876Y-82103611D01*
X170973137Y-82199584D01*
X170845584Y-82327137D01*
X170749611Y-82479876D01*
X170690031Y-82650145D01*
X170690030Y-82650150D01*
X170669835Y-82829396D01*
X170669835Y-82829403D01*
X168289263Y-82829403D01*
X168314663Y-82734608D01*
X168335259Y-82499200D01*
X168314663Y-82263792D01*
X168253503Y-82035537D01*
X168153635Y-81821371D01*
X168143248Y-81806536D01*
X168018094Y-81627797D01*
X167851002Y-81460706D01*
X167850996Y-81460701D01*
X167665442Y-81330775D01*
X167621817Y-81276198D01*
X167614623Y-81206700D01*
X167646146Y-81144345D01*
X167665442Y-81127625D01*
X167687626Y-81112091D01*
X167851001Y-80997695D01*
X168018095Y-80830601D01*
X168153635Y-80637030D01*
X168253503Y-80422863D01*
X168309681Y-80213203D01*
X184919235Y-80213203D01*
X184939430Y-80392449D01*
X184939431Y-80392454D01*
X184999011Y-80562723D01*
X185027141Y-80607491D01*
X185094984Y-80715462D01*
X185222538Y-80843016D01*
X185375278Y-80938989D01*
X185458244Y-80968020D01*
X185545545Y-80998568D01*
X185545550Y-80998569D01*
X185724796Y-81018765D01*
X185724800Y-81018765D01*
X185724804Y-81018765D01*
X185904049Y-80998569D01*
X185904052Y-80998568D01*
X185904055Y-80998568D01*
X186074322Y-80938989D01*
X186227062Y-80843016D01*
X186354616Y-80715462D01*
X186450589Y-80562722D01*
X186510168Y-80392455D01*
X186510169Y-80392449D01*
X186530365Y-80213203D01*
X186530365Y-80213196D01*
X186510169Y-80033950D01*
X186510168Y-80033945D01*
X186490240Y-79976995D01*
X186450589Y-79863678D01*
X186354616Y-79710938D01*
X186227062Y-79583384D01*
X186087266Y-79495544D01*
X186074323Y-79487411D01*
X185904054Y-79427831D01*
X185904049Y-79427830D01*
X185724804Y-79407635D01*
X185724796Y-79407635D01*
X185545550Y-79427830D01*
X185545545Y-79427831D01*
X185375276Y-79487411D01*
X185222537Y-79583384D01*
X185094984Y-79710937D01*
X184999011Y-79863676D01*
X184939431Y-80033945D01*
X184939430Y-80033950D01*
X184919235Y-80213196D01*
X184919235Y-80213203D01*
X168309681Y-80213203D01*
X168314663Y-80194608D01*
X168335259Y-79959200D01*
X168314663Y-79723792D01*
X168253503Y-79495537D01*
X168153635Y-79281371D01*
X168030559Y-79105600D01*
X204510941Y-79105600D01*
X204531536Y-79341003D01*
X204531538Y-79341013D01*
X204592694Y-79569255D01*
X204592696Y-79569259D01*
X204592697Y-79569263D01*
X204664755Y-79723792D01*
X204692565Y-79783430D01*
X204692567Y-79783434D01*
X204828101Y-79976995D01*
X204828106Y-79977002D01*
X204995197Y-80144093D01*
X204995203Y-80144098D01*
X205181194Y-80274330D01*
X205224819Y-80328907D01*
X205232013Y-80398405D01*
X205200490Y-80460760D01*
X205181195Y-80477480D01*
X204995522Y-80607490D01*
X204995520Y-80607491D01*
X204828491Y-80774520D01*
X204828486Y-80774526D01*
X204693000Y-80968020D01*
X204692999Y-80968022D01*
X204593170Y-81182107D01*
X204593167Y-81182113D01*
X204535964Y-81395599D01*
X204535964Y-81395600D01*
X205253253Y-81395600D01*
X205320292Y-81415285D01*
X205366047Y-81468089D01*
X205375991Y-81537247D01*
X205372231Y-81554533D01*
X205366600Y-81573711D01*
X205366600Y-81717488D01*
X205372231Y-81736667D01*
X205372230Y-81806536D01*
X205334455Y-81865314D01*
X205270899Y-81894338D01*
X205253253Y-81895600D01*
X204535964Y-81895600D01*
X204593167Y-82109086D01*
X204593170Y-82109092D01*
X204692999Y-82323178D01*
X204828494Y-82516682D01*
X204995517Y-82683705D01*
X205189021Y-82819200D01*
X205403107Y-82919029D01*
X205403116Y-82919033D01*
X205616600Y-82976234D01*
X205616600Y-82257901D01*
X205636285Y-82190862D01*
X205689089Y-82145107D01*
X205758247Y-82135163D01*
X205830837Y-82145600D01*
X205830838Y-82145600D01*
X205902362Y-82145600D01*
X205902363Y-82145600D01*
X205974952Y-82135163D01*
X206044110Y-82145107D01*
X206096914Y-82190861D01*
X206116599Y-82257901D01*
X206116599Y-82976234D01*
X206330083Y-82919033D01*
X206330092Y-82919029D01*
X206544178Y-82819200D01*
X206737682Y-82683705D01*
X206904705Y-82516682D01*
X207040200Y-82323178D01*
X207140029Y-82109092D01*
X207140032Y-82109086D01*
X207197236Y-81895600D01*
X206479947Y-81895600D01*
X206412908Y-81875915D01*
X206367153Y-81823111D01*
X206357209Y-81753953D01*
X206360969Y-81736667D01*
X206366600Y-81717488D01*
X206366600Y-81573711D01*
X206360969Y-81554533D01*
X206360970Y-81484664D01*
X206398745Y-81425886D01*
X206462301Y-81396862D01*
X206479947Y-81395600D01*
X207197236Y-81395600D01*
X207197235Y-81395599D01*
X207140032Y-81182113D01*
X207140029Y-81182107D01*
X207040200Y-80968022D01*
X207040199Y-80968020D01*
X206904713Y-80774526D01*
X206904708Y-80774520D01*
X206737678Y-80607490D01*
X206552005Y-80477479D01*
X206508380Y-80422902D01*
X206501188Y-80353404D01*
X206532710Y-80291049D01*
X206552006Y-80274330D01*
X206738001Y-80144095D01*
X206905095Y-79977001D01*
X207040635Y-79783430D01*
X207140503Y-79569263D01*
X207201663Y-79341008D01*
X207222259Y-79105600D01*
X207201663Y-78870192D01*
X207140503Y-78641937D01*
X207040635Y-78427771D01*
X207004863Y-78376682D01*
X206905094Y-78234197D01*
X206738002Y-78067106D01*
X206737996Y-78067101D01*
X206552442Y-77937175D01*
X206508817Y-77882598D01*
X206501623Y-77813100D01*
X206533146Y-77750745D01*
X206552442Y-77734025D01*
X206574626Y-77718491D01*
X206738001Y-77604095D01*
X206905095Y-77437001D01*
X207040635Y-77243430D01*
X207140503Y-77029263D01*
X207201663Y-76801008D01*
X207222259Y-76565600D01*
X207201663Y-76330192D01*
X207140503Y-76101937D01*
X207040635Y-75887771D01*
X206922359Y-75718855D01*
X206905096Y-75694200D01*
X206905095Y-75694199D01*
X206783167Y-75572271D01*
X206749684Y-75510951D01*
X206754668Y-75441259D01*
X206796539Y-75385325D01*
X206827515Y-75368410D01*
X206958931Y-75319396D01*
X207074146Y-75233146D01*
X207160396Y-75117931D01*
X207210691Y-74983083D01*
X207217100Y-74923473D01*
X207217099Y-73127728D01*
X207210691Y-73068117D01*
X207160396Y-72933269D01*
X207160395Y-72933268D01*
X207160393Y-72933264D01*
X207074147Y-72818055D01*
X207074144Y-72818052D01*
X206958935Y-72731806D01*
X206958928Y-72731802D01*
X206824082Y-72681508D01*
X206824083Y-72681508D01*
X206764483Y-72675101D01*
X206764481Y-72675100D01*
X206764473Y-72675100D01*
X206764464Y-72675100D01*
X204968729Y-72675100D01*
X204968723Y-72675101D01*
X204909116Y-72681508D01*
X204774271Y-72731802D01*
X204774264Y-72731806D01*
X204659055Y-72818052D01*
X204659052Y-72818055D01*
X204572806Y-72933264D01*
X204572802Y-72933271D01*
X204522508Y-73068117D01*
X204516101Y-73127716D01*
X204516101Y-73127723D01*
X204516100Y-73127735D01*
X204516100Y-74923470D01*
X204516101Y-74923476D01*
X204522508Y-74983083D01*
X204572802Y-75117928D01*
X204572806Y-75117935D01*
X204659052Y-75233144D01*
X204659055Y-75233147D01*
X204774264Y-75319393D01*
X204774271Y-75319397D01*
X204905681Y-75368410D01*
X204961615Y-75410281D01*
X204986032Y-75475745D01*
X204971180Y-75544018D01*
X204950030Y-75572273D01*
X204828103Y-75694200D01*
X204692565Y-75887769D01*
X204692564Y-75887771D01*
X204592698Y-76101935D01*
X204592694Y-76101944D01*
X204531538Y-76330186D01*
X204531536Y-76330196D01*
X204510941Y-76565599D01*
X204510941Y-76565600D01*
X204531536Y-76801003D01*
X204531538Y-76801013D01*
X204592694Y-77029255D01*
X204592696Y-77029259D01*
X204592697Y-77029263D01*
X204692564Y-77243430D01*
X204692565Y-77243430D01*
X204692567Y-77243434D01*
X204828101Y-77436995D01*
X204828106Y-77437002D01*
X204995197Y-77604093D01*
X204995203Y-77604098D01*
X205180758Y-77734025D01*
X205224383Y-77788602D01*
X205231577Y-77858100D01*
X205200054Y-77920455D01*
X205180758Y-77937175D01*
X204995197Y-78067105D01*
X204828105Y-78234197D01*
X204692565Y-78427769D01*
X204692564Y-78427771D01*
X204592698Y-78641935D01*
X204592694Y-78641944D01*
X204531538Y-78870186D01*
X204531536Y-78870196D01*
X204510941Y-79105599D01*
X204510941Y-79105600D01*
X168030559Y-79105600D01*
X168018096Y-79087800D01*
X168018095Y-79087799D01*
X167896167Y-78965871D01*
X167862684Y-78904551D01*
X167867668Y-78834859D01*
X167909539Y-78778925D01*
X167940515Y-78762010D01*
X168071931Y-78712996D01*
X168187146Y-78626746D01*
X168273396Y-78511531D01*
X168323691Y-78376683D01*
X168330100Y-78317073D01*
X168330099Y-76521328D01*
X168323691Y-76461717D01*
X168299725Y-76397462D01*
X168273397Y-76326871D01*
X168273393Y-76326864D01*
X168187147Y-76211655D01*
X168187144Y-76211652D01*
X168071935Y-76125406D01*
X168071928Y-76125402D01*
X167937082Y-76075108D01*
X167937083Y-76075108D01*
X167877483Y-76068701D01*
X167877481Y-76068700D01*
X167877473Y-76068700D01*
X167877464Y-76068700D01*
X166081729Y-76068700D01*
X166081723Y-76068701D01*
X166022116Y-76075108D01*
X165887271Y-76125402D01*
X165887264Y-76125406D01*
X165772055Y-76211652D01*
X165772052Y-76211655D01*
X165685806Y-76326864D01*
X165685802Y-76326871D01*
X165635508Y-76461717D01*
X165629101Y-76521316D01*
X165629101Y-76521323D01*
X165629100Y-76521335D01*
X165629100Y-78317070D01*
X165629101Y-78317076D01*
X165635508Y-78376683D01*
X165685802Y-78511528D01*
X165685806Y-78511535D01*
X165772052Y-78626744D01*
X165772055Y-78626747D01*
X165887264Y-78712993D01*
X165887271Y-78712997D01*
X166018681Y-78762010D01*
X166074615Y-78803881D01*
X166099032Y-78869345D01*
X166084180Y-78937618D01*
X166063030Y-78965873D01*
X165941103Y-79087800D01*
X165805565Y-79281369D01*
X165805564Y-79281371D01*
X165705698Y-79495535D01*
X165705694Y-79495544D01*
X165644538Y-79723786D01*
X165644536Y-79723796D01*
X165623941Y-79959199D01*
X165623941Y-79959200D01*
X165644536Y-80194603D01*
X165644538Y-80194613D01*
X165705694Y-80422855D01*
X165705696Y-80422859D01*
X165705697Y-80422863D01*
X165770915Y-80562722D01*
X165805565Y-80637030D01*
X165805567Y-80637034D01*
X165941101Y-80830595D01*
X165941106Y-80830602D01*
X166108197Y-80997693D01*
X166108203Y-80997698D01*
X166293758Y-81127625D01*
X166337383Y-81182202D01*
X166344577Y-81251700D01*
X166313054Y-81314055D01*
X166293758Y-81330775D01*
X166108197Y-81460705D01*
X165941105Y-81627797D01*
X165805565Y-81821369D01*
X165805564Y-81821371D01*
X165705698Y-82035535D01*
X165705694Y-82035544D01*
X165644538Y-82263786D01*
X165644536Y-82263796D01*
X165623941Y-82499199D01*
X165623941Y-82499200D01*
X165100500Y-82499200D01*
X165100500Y-75895203D01*
X193860035Y-75895203D01*
X193880230Y-76074449D01*
X193880231Y-76074454D01*
X193939811Y-76244723D01*
X194035783Y-76397462D01*
X194035784Y-76397462D01*
X194163338Y-76525016D01*
X194316078Y-76620989D01*
X194486344Y-76680568D01*
X194486345Y-76680568D01*
X194486350Y-76680569D01*
X194665596Y-76700765D01*
X194665600Y-76700765D01*
X194665604Y-76700765D01*
X194844849Y-76680569D01*
X194844852Y-76680568D01*
X194844855Y-76680568D01*
X195015122Y-76620989D01*
X195167862Y-76525016D01*
X195295416Y-76397462D01*
X195391389Y-76244722D01*
X195450968Y-76074455D01*
X195450969Y-76074449D01*
X195471165Y-75895203D01*
X195471165Y-75895196D01*
X195450969Y-75715950D01*
X195450968Y-75715945D01*
X195391388Y-75545676D01*
X195387572Y-75539603D01*
X199041635Y-75539603D01*
X199061830Y-75718849D01*
X199061831Y-75718854D01*
X199121411Y-75889123D01*
X199217384Y-76041862D01*
X199344938Y-76169416D01*
X199412156Y-76211652D01*
X199464786Y-76244722D01*
X199497678Y-76265389D01*
X199667945Y-76324968D01*
X199667950Y-76324969D01*
X199847196Y-76345165D01*
X199847200Y-76345165D01*
X199847204Y-76345165D01*
X200026449Y-76324969D01*
X200026452Y-76324968D01*
X200026455Y-76324968D01*
X200196722Y-76265389D01*
X200349462Y-76169416D01*
X200477016Y-76041862D01*
X200572989Y-75889122D01*
X200632568Y-75718855D01*
X200632569Y-75718849D01*
X200652765Y-75539603D01*
X200652765Y-75539596D01*
X200632569Y-75360350D01*
X200632568Y-75360345D01*
X200572988Y-75190076D01*
X200533781Y-75127680D01*
X200477016Y-75037338D01*
X200349462Y-74909784D01*
X200331539Y-74898522D01*
X200196723Y-74813811D01*
X200026454Y-74754231D01*
X200026449Y-74754230D01*
X199847204Y-74734035D01*
X199847196Y-74734035D01*
X199667950Y-74754230D01*
X199667945Y-74754231D01*
X199497676Y-74813811D01*
X199344937Y-74909784D01*
X199217384Y-75037337D01*
X199121411Y-75190076D01*
X199061831Y-75360345D01*
X199061830Y-75360350D01*
X199041635Y-75539596D01*
X199041635Y-75539603D01*
X195387572Y-75539603D01*
X195295415Y-75392937D01*
X195167862Y-75265384D01*
X195015123Y-75169411D01*
X194844854Y-75109831D01*
X194844849Y-75109830D01*
X194665604Y-75089635D01*
X194665596Y-75089635D01*
X194486350Y-75109830D01*
X194486345Y-75109831D01*
X194316076Y-75169411D01*
X194163337Y-75265384D01*
X194035784Y-75392937D01*
X193939811Y-75545676D01*
X193880231Y-75715945D01*
X193880230Y-75715950D01*
X193860035Y-75895196D01*
X193860035Y-75895203D01*
X165100500Y-75895203D01*
X165100500Y-74549003D01*
X169958635Y-74549003D01*
X169978830Y-74728249D01*
X169978831Y-74728254D01*
X170038411Y-74898523D01*
X170091544Y-74983083D01*
X170134384Y-75051262D01*
X170261938Y-75178816D01*
X170414678Y-75274789D01*
X170584945Y-75334368D01*
X170584950Y-75334369D01*
X170764196Y-75354565D01*
X170764200Y-75354565D01*
X170764204Y-75354565D01*
X170943449Y-75334369D01*
X170943452Y-75334368D01*
X170943455Y-75334368D01*
X171113722Y-75274789D01*
X171266462Y-75178816D01*
X171394016Y-75051262D01*
X171489989Y-74898522D01*
X171549568Y-74728255D01*
X171569765Y-74549000D01*
X171549568Y-74369745D01*
X171489989Y-74199478D01*
X171394016Y-74046738D01*
X171266462Y-73919184D01*
X171266462Y-73919183D01*
X171113723Y-73823211D01*
X170943454Y-73763631D01*
X170943449Y-73763630D01*
X170764204Y-73743435D01*
X170764196Y-73743435D01*
X170584950Y-73763630D01*
X170584945Y-73763631D01*
X170414676Y-73823211D01*
X170261937Y-73919184D01*
X170134384Y-74046737D01*
X170038411Y-74199476D01*
X169978831Y-74369745D01*
X169978830Y-74369750D01*
X169958635Y-74548996D01*
X169958635Y-74549003D01*
X165100500Y-74549003D01*
X165100500Y-67614805D01*
X165362255Y-67614805D01*
X165381215Y-67916183D01*
X165381216Y-67916190D01*
X165437805Y-68212840D01*
X165531125Y-68500047D01*
X165531127Y-68500052D01*
X165659704Y-68773291D01*
X165659707Y-68773297D01*
X165821513Y-69028264D01*
X165902312Y-69125933D01*
X166727554Y-68300691D01*
X166788877Y-68267206D01*
X166858568Y-68272190D01*
X166914502Y-68314061D01*
X166916242Y-68316444D01*
X166931893Y-68338423D01*
X166931895Y-68338425D01*
X167078041Y-68477775D01*
X167112976Y-68538284D01*
X167109651Y-68608074D01*
X167080152Y-68655199D01*
X166253564Y-69481786D01*
X166478474Y-69645193D01*
X166478485Y-69645200D01*
X166743109Y-69790678D01*
X166743117Y-69790682D01*
X167023889Y-69901847D01*
X167023892Y-69901848D01*
X167316399Y-69976950D01*
X167615995Y-70014799D01*
X167616007Y-70014800D01*
X167917993Y-70014800D01*
X167918004Y-70014799D01*
X168217600Y-69976950D01*
X168510107Y-69901848D01*
X168510110Y-69901847D01*
X168790882Y-69790682D01*
X168790890Y-69790678D01*
X169055514Y-69645200D01*
X169055525Y-69645193D01*
X169280433Y-69481786D01*
X169280434Y-69481786D01*
X168451234Y-68652587D01*
X168417749Y-68591264D01*
X168422733Y-68521573D01*
X168462263Y-68467436D01*
X168529540Y-68414529D01*
X168623723Y-68305835D01*
X168682496Y-68268064D01*
X168752365Y-68268063D01*
X168805113Y-68299360D01*
X169631686Y-69125933D01*
X169712483Y-69028269D01*
X169874292Y-68773297D01*
X169874295Y-68773291D01*
X170002872Y-68500052D01*
X170002874Y-68500047D01*
X170096194Y-68212840D01*
X170152783Y-67916190D01*
X170152784Y-67916183D01*
X170171745Y-67614805D01*
X170171745Y-67614794D01*
X170159519Y-67420470D01*
X175992300Y-67420470D01*
X175992301Y-67420476D01*
X175998708Y-67480083D01*
X176049002Y-67614928D01*
X176049006Y-67614935D01*
X176135252Y-67730144D01*
X176135255Y-67730147D01*
X176250464Y-67816393D01*
X176250471Y-67816397D01*
X176385317Y-67866691D01*
X176385316Y-67866691D01*
X176392244Y-67867435D01*
X176444927Y-67873100D01*
X178240672Y-67873099D01*
X178300283Y-67866691D01*
X178435131Y-67816396D01*
X178550346Y-67730146D01*
X178636596Y-67614931D01*
X178685802Y-67483001D01*
X178727672Y-67427068D01*
X178793137Y-67402650D01*
X178861410Y-67417501D01*
X178889665Y-67438653D01*
X179011717Y-67560705D01*
X179205221Y-67696200D01*
X179419307Y-67796029D01*
X179419316Y-67796033D01*
X179632799Y-67853233D01*
X179632799Y-67134901D01*
X179652483Y-67067862D01*
X179705287Y-67022107D01*
X179774446Y-67012163D01*
X179781180Y-67013131D01*
X179847037Y-67022600D01*
X179847038Y-67022600D01*
X179918562Y-67022600D01*
X179918563Y-67022600D01*
X179991153Y-67012163D01*
X180060312Y-67022107D01*
X180113115Y-67067862D01*
X180132800Y-67134901D01*
X180132800Y-67853233D01*
X180346283Y-67796033D01*
X180346292Y-67796029D01*
X180560378Y-67696200D01*
X180753882Y-67560705D01*
X180920905Y-67393682D01*
X181051225Y-67207568D01*
X181105802Y-67163944D01*
X181175301Y-67156751D01*
X181237655Y-67188273D01*
X181254375Y-67207568D01*
X181384694Y-67393682D01*
X181551717Y-67560705D01*
X181745221Y-67696200D01*
X181959307Y-67796029D01*
X181959316Y-67796033D01*
X182172800Y-67853234D01*
X182172800Y-67134901D01*
X182192485Y-67067862D01*
X182245289Y-67022107D01*
X182314447Y-67012163D01*
X182387037Y-67022600D01*
X182387038Y-67022600D01*
X182458562Y-67022600D01*
X182458563Y-67022600D01*
X182531153Y-67012163D01*
X182600312Y-67022107D01*
X182653115Y-67067862D01*
X182672800Y-67134901D01*
X182672800Y-67853233D01*
X182886283Y-67796033D01*
X182886292Y-67796029D01*
X183100378Y-67696200D01*
X183293882Y-67560705D01*
X183460905Y-67393682D01*
X183596400Y-67200178D01*
X183696229Y-66986092D01*
X183696232Y-66986086D01*
X183753436Y-66772600D01*
X183036147Y-66772600D01*
X182969108Y-66752915D01*
X182923353Y-66700111D01*
X182913409Y-66630953D01*
X182917169Y-66613667D01*
X182922800Y-66594488D01*
X182922800Y-66450711D01*
X182917169Y-66431533D01*
X182917170Y-66361664D01*
X182954945Y-66302886D01*
X183018501Y-66273862D01*
X183036147Y-66272600D01*
X183753436Y-66272600D01*
X183753435Y-66272599D01*
X183696232Y-66059113D01*
X183696229Y-66059107D01*
X183596400Y-65845022D01*
X183596399Y-65845020D01*
X183460913Y-65651526D01*
X183460908Y-65651520D01*
X183293882Y-65484494D01*
X183100378Y-65348999D01*
X182886292Y-65249170D01*
X182886286Y-65249167D01*
X182672800Y-65191964D01*
X182672800Y-65910298D01*
X182653115Y-65977337D01*
X182600311Y-66023092D01*
X182531155Y-66033036D01*
X182458566Y-66022600D01*
X182458563Y-66022600D01*
X182387037Y-66022600D01*
X182387033Y-66022600D01*
X182314445Y-66033036D01*
X182245287Y-66023092D01*
X182192484Y-65977336D01*
X182172800Y-65910298D01*
X182172800Y-65191964D01*
X182172799Y-65191964D01*
X181959313Y-65249167D01*
X181959307Y-65249170D01*
X181745222Y-65348999D01*
X181745220Y-65349000D01*
X181551726Y-65484486D01*
X181551720Y-65484491D01*
X181384691Y-65651520D01*
X181384690Y-65651522D01*
X181254375Y-65837631D01*
X181199798Y-65881255D01*
X181130299Y-65888448D01*
X181067945Y-65856926D01*
X181051225Y-65837631D01*
X180920909Y-65651522D01*
X180920908Y-65651520D01*
X180753882Y-65484494D01*
X180560378Y-65348999D01*
X180346292Y-65249170D01*
X180346286Y-65249167D01*
X180132800Y-65191964D01*
X180132800Y-65910298D01*
X180113115Y-65977337D01*
X180060311Y-66023092D01*
X179991155Y-66033036D01*
X179918566Y-66022600D01*
X179918563Y-66022600D01*
X179847037Y-66022600D01*
X179847033Y-66022600D01*
X179774444Y-66033036D01*
X179705286Y-66023092D01*
X179652483Y-65977336D01*
X179632799Y-65910298D01*
X179632799Y-65191964D01*
X179419313Y-65249167D01*
X179419307Y-65249170D01*
X179205222Y-65348999D01*
X179205220Y-65349000D01*
X179011726Y-65484486D01*
X178889665Y-65606547D01*
X178828342Y-65640031D01*
X178758650Y-65635047D01*
X178702717Y-65593175D01*
X178685802Y-65562198D01*
X178636597Y-65430271D01*
X178636593Y-65430264D01*
X178550347Y-65315055D01*
X178550344Y-65315052D01*
X178435135Y-65228806D01*
X178435128Y-65228802D01*
X178300282Y-65178508D01*
X178300283Y-65178508D01*
X178240683Y-65172101D01*
X178240681Y-65172100D01*
X178240673Y-65172100D01*
X178240664Y-65172100D01*
X176444929Y-65172100D01*
X176444923Y-65172101D01*
X176385316Y-65178508D01*
X176250471Y-65228802D01*
X176250464Y-65228806D01*
X176135255Y-65315052D01*
X176135252Y-65315055D01*
X176049006Y-65430264D01*
X176049002Y-65430271D01*
X175998708Y-65565117D01*
X175992301Y-65624716D01*
X175992300Y-65624735D01*
X175992300Y-67420470D01*
X170159519Y-67420470D01*
X170152784Y-67313416D01*
X170152783Y-67313409D01*
X170096194Y-67016759D01*
X170002874Y-66729552D01*
X170002872Y-66729547D01*
X169874295Y-66456308D01*
X169874292Y-66456302D01*
X169712486Y-66201335D01*
X169631685Y-66103664D01*
X168806444Y-66928907D01*
X168745121Y-66962392D01*
X168675429Y-66957408D01*
X168619496Y-66915536D01*
X168617755Y-66913152D01*
X168602108Y-66891178D01*
X168602104Y-66891174D01*
X168455957Y-66751823D01*
X168421022Y-66691314D01*
X168424347Y-66621524D01*
X168453846Y-66574399D01*
X169280434Y-65747812D01*
X169055530Y-65584409D01*
X169055520Y-65584402D01*
X168790890Y-65438921D01*
X168790882Y-65438917D01*
X168510110Y-65327752D01*
X168510107Y-65327751D01*
X168217600Y-65252649D01*
X167918004Y-65214800D01*
X167615995Y-65214800D01*
X167316399Y-65252649D01*
X167023892Y-65327751D01*
X167023889Y-65327752D01*
X166743117Y-65438917D01*
X166743109Y-65438921D01*
X166478479Y-65584402D01*
X166478461Y-65584414D01*
X166253565Y-65747810D01*
X166253564Y-65747812D01*
X167082765Y-66577012D01*
X167116250Y-66638335D01*
X167111266Y-66708026D01*
X167071737Y-66762163D01*
X167004458Y-66815072D01*
X167004453Y-66815077D01*
X166910278Y-66923760D01*
X166851500Y-66961534D01*
X166781630Y-66961534D01*
X166728885Y-66930238D01*
X165902312Y-66103664D01*
X165821516Y-66201330D01*
X165659707Y-66456302D01*
X165659704Y-66456308D01*
X165531127Y-66729547D01*
X165531125Y-66729552D01*
X165437805Y-67016759D01*
X165381216Y-67313409D01*
X165381215Y-67313416D01*
X165362255Y-67614794D01*
X165362255Y-67614805D01*
X165100500Y-67614805D01*
X165100500Y-64894500D01*
X165120185Y-64827461D01*
X165172989Y-64781706D01*
X165224500Y-64770500D01*
X208155500Y-64770500D01*
X208222539Y-64790185D01*
G37*
%TD.AperFunction*%
%TA.AperFunction,Conductor*%
G36*
X208210211Y-99682413D02*
G01*
X208261687Y-99729657D01*
X208279500Y-99793690D01*
X208279500Y-101475500D01*
X208259815Y-101542539D01*
X208207011Y-101588294D01*
X208155500Y-101599500D01*
X206481432Y-101599500D01*
X206414393Y-101579815D01*
X206368638Y-101527011D01*
X206358694Y-101457853D01*
X206387719Y-101394297D01*
X206446497Y-101356523D01*
X206450594Y-101355396D01*
X206483110Y-101347046D01*
X206763882Y-101235882D01*
X206763890Y-101235878D01*
X207028514Y-101090400D01*
X207028525Y-101090393D01*
X207253433Y-100926986D01*
X207253434Y-100926986D01*
X206424234Y-100097787D01*
X206390749Y-100036464D01*
X206395733Y-99966773D01*
X206435263Y-99912636D01*
X206502540Y-99859729D01*
X206596723Y-99751035D01*
X206655496Y-99713264D01*
X206725365Y-99713263D01*
X206778113Y-99744560D01*
X207604686Y-100571133D01*
X207685483Y-100473469D01*
X207847292Y-100218497D01*
X207847295Y-100218491D01*
X207975872Y-99945252D01*
X207975874Y-99945247D01*
X208037569Y-99755372D01*
X208077006Y-99697696D01*
X208141365Y-99670498D01*
X208210211Y-99682413D01*
G37*
%TD.AperFunction*%
%TD*%
M02*
