%TF.GenerationSoftware,KiCad,Pcbnew,7.0.7*%
%TF.CreationDate,2023-09-18T16:24:31-07:00*%
%TF.ProjectId,pi_pico_dds,70695f70-6963-46f5-9f64-64732e6b6963,rev?*%
%TF.SameCoordinates,Original*%
%TF.FileFunction,Copper,L1,Top*%
%TF.FilePolarity,Positive*%
%FSLAX46Y46*%
G04 Gerber Fmt 4.6, Leading zero omitted, Abs format (unit mm)*
G04 Created by KiCad (PCBNEW 7.0.7) date 2023-09-18 16:24:31*
%MOMM*%
%LPD*%
G01*
G04 APERTURE LIST*
G04 Aperture macros list*
%AMRoundRect*
0 Rectangle with rounded corners*
0 $1 Rounding radius*
0 $2 $3 $4 $5 $6 $7 $8 $9 X,Y pos of 4 corners*
0 Add a 4 corners polygon primitive as box body*
4,1,4,$2,$3,$4,$5,$6,$7,$8,$9,$2,$3,0*
0 Add four circle primitives for the rounded corners*
1,1,$1+$1,$2,$3*
1,1,$1+$1,$4,$5*
1,1,$1+$1,$6,$7*
1,1,$1+$1,$8,$9*
0 Add four rect primitives between the rounded corners*
20,1,$1+$1,$2,$3,$4,$5,0*
20,1,$1+$1,$4,$5,$6,$7,0*
20,1,$1+$1,$6,$7,$8,$9,0*
20,1,$1+$1,$8,$9,$2,$3,0*%
G04 Aperture macros list end*
%TA.AperFunction,SMDPad,CuDef*%
%ADD10R,1.000000X0.750000*%
%TD*%
%TA.AperFunction,SMDPad,CuDef*%
%ADD11RoundRect,0.135000X0.135000X0.185000X-0.135000X0.185000X-0.135000X-0.185000X0.135000X-0.185000X0*%
%TD*%
%TA.AperFunction,SMDPad,CuDef*%
%ADD12RoundRect,0.135000X0.185000X-0.135000X0.185000X0.135000X-0.185000X0.135000X-0.185000X-0.135000X0*%
%TD*%
%TA.AperFunction,SMDPad,CuDef*%
%ADD13R,1.500000X1.000000*%
%TD*%
%TA.AperFunction,ComponentPad*%
%ADD14R,1.700000X1.700000*%
%TD*%
%TA.AperFunction,ComponentPad*%
%ADD15O,1.700000X1.700000*%
%TD*%
%TA.AperFunction,SMDPad,CuDef*%
%ADD16RoundRect,0.140000X0.170000X-0.140000X0.170000X0.140000X-0.170000X0.140000X-0.170000X-0.140000X0*%
%TD*%
%TA.AperFunction,SMDPad,CuDef*%
%ADD17RoundRect,0.140000X0.140000X0.170000X-0.140000X0.170000X-0.140000X-0.170000X0.140000X-0.170000X0*%
%TD*%
%TA.AperFunction,SMDPad,CuDef*%
%ADD18RoundRect,0.150000X0.150000X-0.825000X0.150000X0.825000X-0.150000X0.825000X-0.150000X-0.825000X0*%
%TD*%
%TA.AperFunction,SMDPad,CuDef*%
%ADD19RoundRect,0.140000X-0.170000X0.140000X-0.170000X-0.140000X0.170000X-0.140000X0.170000X0.140000X0*%
%TD*%
%TA.AperFunction,SMDPad,CuDef*%
%ADD20RoundRect,0.150000X-0.512500X-0.150000X0.512500X-0.150000X0.512500X0.150000X-0.512500X0.150000X0*%
%TD*%
%TA.AperFunction,SMDPad,CuDef*%
%ADD21RoundRect,0.140000X-0.140000X-0.170000X0.140000X-0.170000X0.140000X0.170000X-0.140000X0.170000X0*%
%TD*%
%TA.AperFunction,ComponentPad*%
%ADD22C,3.800000*%
%TD*%
%TA.AperFunction,SMDPad,CuDef*%
%ADD23RoundRect,0.135000X-0.135000X-0.185000X0.135000X-0.185000X0.135000X0.185000X-0.135000X0.185000X0*%
%TD*%
%TA.AperFunction,SMDPad,CuDef*%
%ADD24RoundRect,0.135000X-0.185000X0.135000X-0.185000X-0.135000X0.185000X-0.135000X0.185000X0.135000X0*%
%TD*%
%TA.AperFunction,SMDPad,CuDef*%
%ADD25R,1.350000X0.400000*%
%TD*%
%TA.AperFunction,ComponentPad*%
%ADD26O,1.900000X1.200000*%
%TD*%
%TA.AperFunction,SMDPad,CuDef*%
%ADD27R,1.900000X1.200000*%
%TD*%
%TA.AperFunction,ComponentPad*%
%ADD28C,1.450000*%
%TD*%
%TA.AperFunction,SMDPad,CuDef*%
%ADD29R,1.900000X1.500000*%
%TD*%
%TA.AperFunction,SMDPad,CuDef*%
%ADD30R,1.200000X1.400000*%
%TD*%
%TA.AperFunction,SMDPad,CuDef*%
%ADD31RoundRect,0.050000X-0.050000X0.387500X-0.050000X-0.387500X0.050000X-0.387500X0.050000X0.387500X0*%
%TD*%
%TA.AperFunction,SMDPad,CuDef*%
%ADD32RoundRect,0.050000X-0.387500X0.050000X-0.387500X-0.050000X0.387500X-0.050000X0.387500X0.050000X0*%
%TD*%
%TA.AperFunction,SMDPad,CuDef*%
%ADD33R,3.200000X3.200000*%
%TD*%
%TA.AperFunction,SMDPad,CuDef*%
%ADD34RoundRect,0.125000X-0.125000X0.250000X-0.125000X-0.250000X0.125000X-0.250000X0.125000X0.250000X0*%
%TD*%
%TA.AperFunction,SMDPad,CuDef*%
%ADD35R,4.300000X3.400000*%
%TD*%
%TA.AperFunction,ViaPad*%
%ADD36C,0.600000*%
%TD*%
%TA.AperFunction,Conductor*%
%ADD37C,0.200000*%
%TD*%
%TA.AperFunction,Conductor*%
%ADD38C,0.400000*%
%TD*%
%TA.AperFunction,Conductor*%
%ADD39C,0.254000*%
%TD*%
%TA.AperFunction,Conductor*%
%ADD40C,0.100000*%
%TD*%
%TA.AperFunction,Conductor*%
%ADD41C,0.366567*%
%TD*%
G04 APERTURE END LIST*
D10*
%TO.P,SW2,1,1*%
%TO.N,GND*%
X183817000Y-96550000D03*
X189817000Y-96550000D03*
%TO.P,SW2,2,2*%
%TO.N,Net-(R5-Pad1)*%
X183817000Y-100300000D03*
X189817000Y-100300000D03*
%TD*%
%TO.P,SW1,1,1*%
%TO.N,GND*%
X173313000Y-96550000D03*
X179313000Y-96550000D03*
%TO.P,SW1,2,2*%
%TO.N,Net-(U3-RUN)*%
X173313000Y-100300000D03*
X179313000Y-100300000D03*
%TD*%
D11*
%TO.P,R37,1*%
%TO.N,Net-(U4B-+)*%
X174627000Y-70993000D03*
%TO.P,R37,2*%
%TO.N,Net-(C21-Pad1)*%
X173607000Y-70993000D03*
%TD*%
D12*
%TO.P,R36,2*%
%TO.N,Net-(C21-Pad1)*%
X169037000Y-73912000D03*
%TO.P,R36,1*%
%TO.N,Net-(JP1-A)*%
X169037000Y-74932000D03*
%TD*%
D13*
%TO.P,JP1,2,B*%
%TO.N,Net-(J6-Pin_1)*%
X166624000Y-73137000D03*
%TO.P,JP1,1,A*%
%TO.N,Net-(JP1-A)*%
X166624000Y-74437000D03*
%TD*%
D14*
%TO.P,J6,1,Pin_1*%
%TO.N,Net-(J6-Pin_1)*%
X177342800Y-66522600D03*
D15*
%TO.P,J6,2,Pin_2*%
%TO.N,GND*%
X179882800Y-66522600D03*
%TO.P,J6,3,Pin_3*%
X182422800Y-66522600D03*
%TD*%
D16*
%TO.P,C22,2*%
%TO.N,GND*%
X174701200Y-68935600D03*
%TO.P,C22,1*%
%TO.N,Net-(U4B-+)*%
X174701200Y-69895600D03*
%TD*%
D17*
%TO.P,C21,1*%
%TO.N,Net-(C21-Pad1)*%
X173581000Y-69850000D03*
%TO.P,C21,2*%
%TO.N,Net-(J6-Pin_1)*%
X172621000Y-69850000D03*
%TD*%
D18*
%TO.P,U4,1*%
%TO.N,Net-(JP1-A)*%
X170764200Y-77811400D03*
%TO.P,U4,2,-*%
%TO.N,Net-(U4A--)*%
X172034200Y-77811400D03*
%TO.P,U4,3,+*%
%TO.N,Net-(U4A-+)*%
X173304200Y-77811400D03*
%TO.P,U4,4*%
%TO.N,GND*%
X174574200Y-77811400D03*
%TO.P,U4,5,+*%
%TO.N,Net-(U4B-+)*%
X174574200Y-72861400D03*
%TO.P,U4,6,-*%
%TO.N,Net-(J6-Pin_1)*%
X173304200Y-72861400D03*
%TO.P,U4,7*%
X172034200Y-72861400D03*
%TO.P,U4,8*%
%TO.N,+5V*%
X170764200Y-72861400D03*
%TD*%
D12*
%TO.P,R32,1*%
%TO.N,/GPIO10*%
X177615628Y-75565000D03*
%TO.P,R32,2*%
%TO.N,Net-(R19-Pad1)*%
X177615628Y-74545000D03*
%TD*%
%TO.P,R28,1*%
%TO.N,/GPIO6*%
X182143400Y-75565000D03*
%TO.P,R28,2*%
%TO.N,Net-(R15-Pad1)*%
X182143400Y-74545000D03*
%TD*%
D17*
%TO.P,C4,1*%
%TO.N,+1V1*%
X182293200Y-87325200D03*
%TO.P,C4,2*%
%TO.N,GND*%
X181333200Y-87325200D03*
%TD*%
D19*
%TO.P,C12,1*%
%TO.N,+3V3*%
X192024000Y-90706000D03*
%TO.P,C12,2*%
%TO.N,GND*%
X192024000Y-91666000D03*
%TD*%
D14*
%TO.P,J3,1,Pin_1*%
%TO.N,+3V3*%
X205866600Y-74025600D03*
D15*
%TO.P,J3,2,Pin_2*%
%TO.N,/SDA*%
X205866600Y-76565600D03*
%TO.P,J3,3,Pin_3*%
%TO.N,/SCL*%
X205866600Y-79105600D03*
%TO.P,J3,4,Pin_4*%
%TO.N,GND*%
X205866600Y-81645600D03*
%TD*%
D20*
%TO.P,U1,1,GND*%
%TO.N,GND*%
X198131000Y-92522000D03*
%TO.P,U1,2,VO*%
%TO.N,Net-(U1-VO)*%
X198131000Y-94422000D03*
%TO.P,U1,3,VI*%
%TO.N,+5V*%
X200406000Y-93472000D03*
%TD*%
D21*
%TO.P,C11,1*%
%TO.N,+3V3*%
X193068000Y-86309200D03*
%TO.P,C11,2*%
%TO.N,GND*%
X194028000Y-86309200D03*
%TD*%
D11*
%TO.P,R1,1*%
%TO.N,Net-(U1-VO)*%
X196598000Y-94488000D03*
%TO.P,R1,2*%
%TO.N,+3V3*%
X195578000Y-94488000D03*
%TD*%
D12*
%TO.P,R15,1*%
%TO.N,Net-(R15-Pad1)*%
X182051111Y-73361200D03*
%TO.P,R15,2*%
%TO.N,Net-(R14-Pad1)*%
X182051111Y-72341200D03*
%TD*%
%TO.P,R13,1*%
%TO.N,Net-(R13-Pad1)*%
X184290255Y-73361200D03*
%TO.P,R13,2*%
%TO.N,Net-(R12-Pad1)*%
X184290255Y-72341200D03*
%TD*%
D19*
%TO.P,C10,1*%
%TO.N,+3V3*%
X186944000Y-90655200D03*
%TO.P,C10,2*%
%TO.N,GND*%
X186944000Y-91615200D03*
%TD*%
D12*
%TO.P,R25,1*%
%TO.N,/GPIO3*%
X185539229Y-75565000D03*
%TO.P,R25,2*%
%TO.N,Net-(R12-Pad1)*%
X185539229Y-74545000D03*
%TD*%
%TO.P,R12,1*%
%TO.N,Net-(R12-Pad1)*%
X185409827Y-73361200D03*
%TO.P,R12,2*%
%TO.N,Net-(R11-Pad1)*%
X185409827Y-72341200D03*
%TD*%
%TO.P,R10,1*%
%TO.N,Net-(R10-Pad1)*%
X187648977Y-73361200D03*
%TO.P,R10,2*%
%TO.N,Net-(R10-Pad2)*%
X187648977Y-72341200D03*
%TD*%
%TO.P,R31,1*%
%TO.N,/GPIO9*%
X178747571Y-75565000D03*
%TO.P,R31,2*%
%TO.N,Net-(R18-Pad1)*%
X178747571Y-74545000D03*
%TD*%
%TO.P,R8,1*%
%TO.N,+3V3*%
X188137800Y-93905800D03*
%TO.P,R8,2*%
%TO.N,/SDA*%
X188137800Y-92885800D03*
%TD*%
D17*
%TO.P,C8,1*%
%TO.N,+3V3*%
X183156800Y-86309200D03*
%TO.P,C8,2*%
%TO.N,GND*%
X182196800Y-86309200D03*
%TD*%
D16*
%TO.P,C2,1*%
%TO.N,Net-(U1-VO)*%
X196596000Y-93444000D03*
%TO.P,C2,2*%
%TO.N,GND*%
X196596000Y-92484000D03*
%TD*%
D11*
%TO.P,R6,1*%
%TO.N,/USB_DN*%
X196293200Y-87884000D03*
%TO.P,R6,2*%
%TO.N,/USB_N*%
X195273200Y-87884000D03*
%TD*%
D12*
%TO.P,R23,1*%
%TO.N,/GPIO1*%
X187803115Y-75565000D03*
%TO.P,R23,2*%
%TO.N,Net-(R10-Pad1)*%
X187803115Y-74545000D03*
%TD*%
D14*
%TO.P,J2,1,Pin_1*%
%TO.N,+5V*%
X195617000Y-98679000D03*
D15*
%TO.P,J2,2,Pin_2*%
%TO.N,GND*%
X198157000Y-98679000D03*
%TD*%
D12*
%TO.P,R29,1*%
%TO.N,/GPIO7*%
X181011457Y-75565000D03*
%TO.P,R29,2*%
%TO.N,Net-(R16-Pad1)*%
X181011457Y-74545000D03*
%TD*%
D16*
%TO.P,C16,1*%
%TO.N,+3V3*%
X200914000Y-81630400D03*
%TO.P,C16,2*%
%TO.N,GND*%
X200914000Y-80670400D03*
%TD*%
D22*
%TO.P,H1,1,1*%
%TO.N,GND*%
X205740000Y-67614800D03*
%TD*%
D23*
%TO.P,R5,1*%
%TO.N,Net-(R5-Pad1)*%
X195628800Y-75539600D03*
%TO.P,R5,2*%
%TO.N,/QSPI_SS*%
X196648800Y-75539600D03*
%TD*%
D19*
%TO.P,C1,1*%
%TO.N,+5V*%
X202057000Y-93500000D03*
%TO.P,C1,2*%
%TO.N,GND*%
X202057000Y-94460000D03*
%TD*%
D12*
%TO.P,R9,1*%
%TO.N,+3V3*%
X189255400Y-93880400D03*
%TO.P,R9,2*%
%TO.N,/SCL*%
X189255400Y-92860400D03*
%TD*%
D22*
%TO.P,H2,1,1*%
%TO.N,GND*%
X205740000Y-99060000D03*
%TD*%
D14*
%TO.P,J4,1,Pin_1*%
%TO.N,+3V3*%
X166979600Y-77419200D03*
D15*
%TO.P,J4,2,Pin_2*%
%TO.N,/ADC2*%
X166979600Y-79959200D03*
%TO.P,J4,3,Pin_3*%
%TO.N,/ADC3*%
X166979600Y-82499200D03*
%TO.P,J4,4,Pin_4*%
%TO.N,GND*%
X166979600Y-85039200D03*
%TD*%
D12*
%TO.P,R16,1*%
%TO.N,Net-(R16-Pad1)*%
X180931539Y-73361200D03*
%TO.P,R16,2*%
%TO.N,Net-(R15-Pad1)*%
X180931539Y-72341200D03*
%TD*%
%TO.P,R21,1*%
%TO.N,GND*%
X190067011Y-75565000D03*
%TO.P,R21,2*%
%TO.N,Net-(R10-Pad2)*%
X190067011Y-74545000D03*
%TD*%
%TO.P,R33,1*%
%TO.N,/GPIO11*%
X176483685Y-75565000D03*
%TO.P,R33,2*%
%TO.N,Net-(U4A-+)*%
X176483685Y-74545000D03*
%TD*%
D22*
%TO.P,H3,1,1*%
%TO.N,GND*%
X167767000Y-99060000D03*
%TD*%
D12*
%TO.P,R24,1*%
%TO.N,/GPIO2*%
X186671172Y-75565000D03*
%TO.P,R24,2*%
%TO.N,Net-(R11-Pad1)*%
X186671172Y-74545000D03*
%TD*%
D24*
%TO.P,R2,1*%
%TO.N,Net-(U3-RUN)*%
X183642000Y-89609200D03*
%TO.P,R2,2*%
%TO.N,+3V3*%
X183642000Y-90629200D03*
%TD*%
D22*
%TO.P,H4,1,1*%
%TO.N,GND*%
X167767000Y-67614800D03*
%TD*%
D11*
%TO.P,R4,1*%
%TO.N,/USB_DP*%
X196293200Y-86766400D03*
%TO.P,R4,2*%
%TO.N,/USB_P*%
X195273200Y-86766400D03*
%TD*%
D25*
%TO.P,J1,1,VBUS*%
%TO.N,+5V*%
X204144700Y-90724000D03*
%TO.P,J1,2,D-*%
%TO.N,/USB_DN*%
X204144700Y-90074000D03*
%TO.P,J1,3,D+*%
%TO.N,/USB_DP*%
X204144700Y-89424000D03*
%TO.P,J1,4,ID*%
%TO.N,unconnected-(J1-ID-Pad4)*%
X204144700Y-88774000D03*
%TO.P,J1,5,GND*%
%TO.N,GND*%
X204144700Y-88124000D03*
D26*
%TO.P,J1,6,Shield*%
%TO.N,unconnected-(J1-Shield-Pad6)*%
X206844700Y-92924000D03*
D27*
X206844700Y-92324000D03*
D28*
X204144700Y-91924000D03*
D29*
X206844700Y-90424000D03*
X206844700Y-88424000D03*
D28*
X204144700Y-86924000D03*
D27*
X206844700Y-86524000D03*
D26*
X206844700Y-85924000D03*
%TD*%
D12*
%TO.P,R14,1*%
%TO.N,Net-(R14-Pad1)*%
X183170683Y-73361200D03*
%TO.P,R14,2*%
%TO.N,Net-(R13-Pad1)*%
X183170683Y-72341200D03*
%TD*%
%TO.P,R27,1*%
%TO.N,/GPIO5*%
X183275343Y-75565000D03*
%TO.P,R27,2*%
%TO.N,Net-(R14-Pad1)*%
X183275343Y-74545000D03*
%TD*%
%TO.P,R20,1*%
%TO.N,Net-(U4A-+)*%
X176453251Y-73361200D03*
%TO.P,R20,2*%
%TO.N,Net-(R19-Pad1)*%
X176453251Y-72341200D03*
%TD*%
D19*
%TO.P,C7,1*%
%TO.N,+3V3*%
X191008000Y-90706000D03*
%TO.P,C7,2*%
%TO.N,GND*%
X191008000Y-91666000D03*
%TD*%
D21*
%TO.P,C19,2*%
%TO.N,GND*%
X171726800Y-70916800D03*
%TO.P,C19,1*%
%TO.N,+5V*%
X170766800Y-70916800D03*
%TD*%
D30*
%TO.P,Y1,1,1*%
%TO.N,Net-(C18-Pad2)*%
X178689000Y-86698000D03*
%TO.P,Y1,2,2*%
%TO.N,GND*%
X178689000Y-84498000D03*
%TO.P,Y1,3,3*%
%TO.N,Net-(U3-XIN)*%
X176989000Y-84498000D03*
%TO.P,Y1,4,4*%
%TO.N,GND*%
X176989000Y-86698000D03*
%TD*%
D12*
%TO.P,R26,1*%
%TO.N,/GPIO4*%
X184407286Y-75565000D03*
%TO.P,R26,2*%
%TO.N,Net-(R13-Pad1)*%
X184407286Y-74545000D03*
%TD*%
%TO.P,R30,1*%
%TO.N,/GPIO8*%
X179879514Y-75565000D03*
%TO.P,R30,2*%
%TO.N,Net-(R17-Pad1)*%
X179879514Y-74545000D03*
%TD*%
%TO.P,R11,1*%
%TO.N,Net-(R11-Pad1)*%
X186529399Y-73361200D03*
%TO.P,R11,2*%
%TO.N,Net-(R10-Pad1)*%
X186529399Y-72341200D03*
%TD*%
D14*
%TO.P,J5,1,Pin_1*%
%TO.N,/SWCLK*%
X166979600Y-90754200D03*
D15*
%TO.P,J5,2,Pin_2*%
%TO.N,/SWD*%
X166979600Y-93294200D03*
%TD*%
D17*
%TO.P,C17,1*%
%TO.N,GND*%
X178332600Y-82804000D03*
%TO.P,C17,2*%
%TO.N,Net-(U3-XIN)*%
X177372600Y-82804000D03*
%TD*%
D16*
%TO.P,C6,1*%
%TO.N,+3V3*%
X191617600Y-81201200D03*
%TO.P,C6,2*%
%TO.N,GND*%
X191617600Y-80241200D03*
%TD*%
%TO.P,C15,1*%
%TO.N,+3V3*%
X199796400Y-81630400D03*
%TO.P,C15,2*%
%TO.N,GND*%
X199796400Y-80670400D03*
%TD*%
D23*
%TO.P,R3,1*%
%TO.N,/QSPI_SS*%
X197914800Y-75539600D03*
%TO.P,R3,2*%
%TO.N,+3V3*%
X198934800Y-75539600D03*
%TD*%
D21*
%TO.P,C14,1*%
%TO.N,+3V3*%
X193146800Y-90830400D03*
%TO.P,C14,2*%
%TO.N,GND*%
X194106800Y-90830400D03*
%TD*%
%TO.P,C5,1*%
%TO.N,+1V1*%
X193146800Y-88646000D03*
%TO.P,C5,2*%
%TO.N,GND*%
X194106800Y-88646000D03*
%TD*%
D24*
%TO.P,R35,1*%
%TO.N,Net-(U4A--)*%
X172974000Y-81024000D03*
%TO.P,R35,2*%
%TO.N,GND*%
X172974000Y-82044000D03*
%TD*%
D11*
%TO.P,R7,1*%
%TO.N,Net-(U3-XOUT)*%
X181104000Y-86233000D03*
%TO.P,R7,2*%
%TO.N,Net-(C18-Pad2)*%
X180084000Y-86233000D03*
%TD*%
D12*
%TO.P,R17,1*%
%TO.N,Net-(R17-Pad1)*%
X179811967Y-73361200D03*
%TO.P,R17,2*%
%TO.N,Net-(R16-Pad1)*%
X179811967Y-72341200D03*
%TD*%
D21*
%TO.P,C3,1*%
%TO.N,+1V1*%
X193626800Y-85191600D03*
%TO.P,C3,2*%
%TO.N,GND*%
X194586800Y-85191600D03*
%TD*%
D11*
%TO.P,R34,1*%
%TO.N,Net-(U4A--)*%
X171934600Y-79883000D03*
%TO.P,R34,2*%
%TO.N,Net-(JP1-A)*%
X170914600Y-79883000D03*
%TD*%
D31*
%TO.P,U3,1,IOVDD*%
%TO.N,+3V3*%
X190976000Y-82550000D03*
%TO.P,U3,2,GPIO0*%
%TO.N,/GPIO0*%
X190576000Y-82550000D03*
%TO.P,U3,3,GPIO1*%
%TO.N,/GPIO1*%
X190176000Y-82550000D03*
%TO.P,U3,4,GPIO2*%
%TO.N,/GPIO2*%
X189776000Y-82550000D03*
%TO.P,U3,5,GPIO3*%
%TO.N,/GPIO3*%
X189376000Y-82550000D03*
%TO.P,U3,6,GPIO4*%
%TO.N,/GPIO4*%
X188976000Y-82550000D03*
%TO.P,U3,7,GPIO5*%
%TO.N,/GPIO5*%
X188576000Y-82550000D03*
%TO.P,U3,8,GPIO6*%
%TO.N,/GPIO6*%
X188176000Y-82550000D03*
%TO.P,U3,9,GPIO7*%
%TO.N,/GPIO7*%
X187776000Y-82550000D03*
%TO.P,U3,10,IOVDD*%
%TO.N,+3V3*%
X187376000Y-82550000D03*
%TO.P,U3,11,GPIO8*%
%TO.N,/GPIO8*%
X186976000Y-82550000D03*
%TO.P,U3,12,GPIO9*%
%TO.N,/GPIO9*%
X186576000Y-82550000D03*
%TO.P,U3,13,GPIO10*%
%TO.N,/GPIO10*%
X186176000Y-82550000D03*
%TO.P,U3,14,GPIO11*%
%TO.N,/GPIO11*%
X185776000Y-82550000D03*
D32*
%TO.P,U3,15,GPIO12*%
%TO.N,/GPIO12*%
X184938500Y-83387500D03*
%TO.P,U3,16,GPIO13*%
%TO.N,/GPIO13*%
X184938500Y-83787500D03*
%TO.P,U3,17,GPIO14*%
%TO.N,/GPIO14*%
X184938500Y-84187500D03*
%TO.P,U3,18,GPIO15*%
%TO.N,/GPIO15*%
X184938500Y-84587500D03*
%TO.P,U3,19,TESTEN*%
%TO.N,GND*%
X184938500Y-84987500D03*
%TO.P,U3,20,XIN*%
%TO.N,Net-(U3-XIN)*%
X184938500Y-85387500D03*
%TO.P,U3,21,XOUT*%
%TO.N,Net-(U3-XOUT)*%
X184938500Y-85787500D03*
%TO.P,U3,22,IOVDD*%
%TO.N,+3V3*%
X184938500Y-86187500D03*
%TO.P,U3,23,DVDD*%
%TO.N,+1V1*%
X184938500Y-86587500D03*
%TO.P,U3,24,SWCLK*%
%TO.N,/SWCLK*%
X184938500Y-86987500D03*
%TO.P,U3,25,SWD*%
%TO.N,/SWD*%
X184938500Y-87387500D03*
%TO.P,U3,26,RUN*%
%TO.N,Net-(U3-RUN)*%
X184938500Y-87787500D03*
%TO.P,U3,27,GPIO16*%
%TO.N,/GPIO16*%
X184938500Y-88187500D03*
%TO.P,U3,28,GPIO17*%
%TO.N,/GPIO17*%
X184938500Y-88587500D03*
D31*
%TO.P,U3,29,GPIO18*%
%TO.N,/GPIO18*%
X185776000Y-89425000D03*
%TO.P,U3,30,GPIO19*%
%TO.N,/GPIO19*%
X186176000Y-89425000D03*
%TO.P,U3,31,GPIO20*%
%TO.N,/GPIO20*%
X186576000Y-89425000D03*
%TO.P,U3,32,GPIO21*%
%TO.N,/GPIO21*%
X186976000Y-89425000D03*
%TO.P,U3,33,IOVDD*%
%TO.N,+3V3*%
X187376000Y-89425000D03*
%TO.P,U3,34,GPIO22*%
%TO.N,/GPIO22*%
X187776000Y-89425000D03*
%TO.P,U3,35,GPIO23*%
%TO.N,/GPIO23*%
X188176000Y-89425000D03*
%TO.P,U3,36,GPIO24*%
%TO.N,/GPIO24*%
X188576000Y-89425000D03*
%TO.P,U3,37,GPIO25*%
%TO.N,/GPIO25*%
X188976000Y-89425000D03*
%TO.P,U3,38,GPIO26_ADC0*%
%TO.N,/SDA*%
X189376000Y-89425000D03*
%TO.P,U3,39,GPIO27_ADC1*%
%TO.N,/SCL*%
X189776000Y-89425000D03*
%TO.P,U3,40,GPIO28_ADC2*%
%TO.N,/ADC2*%
X190176000Y-89425000D03*
%TO.P,U3,41,GPIO29_ADC3*%
%TO.N,/ADC3*%
X190576000Y-89425000D03*
%TO.P,U3,42,IOVDD*%
%TO.N,+3V3*%
X190976000Y-89425000D03*
D32*
%TO.P,U3,43,ADC_AVDD*%
X191813500Y-88587500D03*
%TO.P,U3,44,VREG_IN*%
X191813500Y-88187500D03*
%TO.P,U3,45,VREG_VOUT*%
%TO.N,+1V1*%
X191813500Y-87787500D03*
%TO.P,U3,46,USB_DM*%
%TO.N,/USB_N*%
X191813500Y-87387500D03*
%TO.P,U3,47,USB_DP*%
%TO.N,/USB_P*%
X191813500Y-86987500D03*
%TO.P,U3,48,USB_VDD*%
%TO.N,+3V3*%
X191813500Y-86587500D03*
%TO.P,U3,49,IOVDD*%
X191813500Y-86187500D03*
%TO.P,U3,50,DVDD*%
%TO.N,+1V1*%
X191813500Y-85787500D03*
%TO.P,U3,51,QSPI_SD3*%
%TO.N,/QSPI_SD3*%
X191813500Y-85387500D03*
%TO.P,U3,52,QSPI_SCLK*%
%TO.N,/QSPI_SCLK*%
X191813500Y-84987500D03*
%TO.P,U3,53,QSPI_SD0*%
%TO.N,/QSPI_SD0*%
X191813500Y-84587500D03*
%TO.P,U3,54,QSPI_SD2*%
%TO.N,/QSPI_SD2*%
X191813500Y-84187500D03*
%TO.P,U3,55,QSPI_SD1*%
%TO.N,/QSPI_SD1*%
X191813500Y-83787500D03*
%TO.P,U3,56,QSPI_SS*%
%TO.N,/QSPI_SS*%
X191813500Y-83387500D03*
D33*
%TO.P,U3,57,GND*%
%TO.N,GND*%
X188376000Y-85987500D03*
%TD*%
D16*
%TO.P,C9,1*%
%TO.N,+3V3*%
X187401200Y-81201200D03*
%TO.P,C9,2*%
%TO.N,GND*%
X187401200Y-80241200D03*
%TD*%
D12*
%TO.P,R22,1*%
%TO.N,/GPIO0*%
X188935058Y-75565000D03*
%TO.P,R22,2*%
%TO.N,Net-(R10-Pad2)*%
X188935058Y-74545000D03*
%TD*%
D21*
%TO.P,C13,1*%
%TO.N,+3V3*%
X193146800Y-89763600D03*
%TO.P,C13,2*%
%TO.N,GND*%
X194106800Y-89763600D03*
%TD*%
D34*
%TO.P,U2,1,~{CS}*%
%TO.N,/QSPI_SS*%
X198289600Y-78007600D03*
%TO.P,U2,2,DO(IO1)*%
%TO.N,/QSPI_SD1*%
X197019600Y-78007600D03*
%TO.P,U2,3,IO2*%
%TO.N,/QSPI_SD2*%
X195749600Y-78007600D03*
%TO.P,U2,4,GND*%
%TO.N,GND*%
X194479600Y-78007600D03*
%TO.P,U2,5,DI(IO0)*%
%TO.N,/QSPI_SD0*%
X194479600Y-83407600D03*
%TO.P,U2,6,CLK*%
%TO.N,/QSPI_SCLK*%
X195749600Y-83407600D03*
%TO.P,U2,7,IO3*%
%TO.N,/QSPI_SD3*%
X197019600Y-83407600D03*
%TO.P,U2,8,VCC*%
%TO.N,+3V3*%
X198289600Y-83407600D03*
D35*
%TO.P,U2,9,EP*%
%TO.N,unconnected-(U2-EP-Pad9)*%
X196384600Y-80707600D03*
%TD*%
D21*
%TO.P,C18,1*%
%TO.N,GND*%
X177321800Y-88341200D03*
%TO.P,C18,2*%
%TO.N,Net-(C18-Pad2)*%
X178281800Y-88341200D03*
%TD*%
%TO.P,C20,1*%
%TO.N,Net-(JP1-A)*%
X170919200Y-81026000D03*
%TO.P,C20,2*%
%TO.N,Net-(U4A--)*%
X171879200Y-81026000D03*
%TD*%
D12*
%TO.P,R19,1*%
%TO.N,Net-(R19-Pad1)*%
X177572823Y-73361200D03*
%TO.P,R19,2*%
%TO.N,Net-(R18-Pad1)*%
X177572823Y-72341200D03*
%TD*%
%TO.P,R18,1*%
%TO.N,Net-(R18-Pad1)*%
X178692395Y-73361200D03*
%TO.P,R18,2*%
%TO.N,Net-(R17-Pad1)*%
X178692395Y-72341200D03*
%TD*%
D36*
%TO.N,GND*%
X174371000Y-96774000D03*
X178054000Y-96647000D03*
X184912000Y-97155000D03*
X188595000Y-96901000D03*
X174726600Y-68018600D03*
%TO.N,+5V*%
X170764200Y-74549000D03*
%TO.N,GND*%
X176530000Y-88341200D03*
X196596000Y-91694000D03*
X182041800Y-85547200D03*
X192024000Y-92456000D03*
X198120000Y-91694000D03*
X194754933Y-86075735D03*
X179959000Y-84455000D03*
X201422000Y-86868000D03*
X171704000Y-69900800D03*
X194945000Y-89662000D03*
X186486800Y-79933800D03*
X175818800Y-86715600D03*
X190220600Y-84150200D03*
X186944000Y-92659200D03*
X194945000Y-90805000D03*
X173990000Y-82016600D03*
X186131200Y-84988400D03*
X199796400Y-79908400D03*
X200914000Y-79908400D03*
X186055000Y-88265000D03*
X202057000Y-95250000D03*
X188976000Y-83693000D03*
X180543200Y-87376000D03*
X191617600Y-79349600D03*
X186055000Y-83820000D03*
X195427600Y-85191600D03*
X202565000Y-88138000D03*
X194970400Y-88696800D03*
X179324000Y-82804000D03*
X188849000Y-88265000D03*
X174879000Y-79451200D03*
X191008000Y-92456000D03*
X191008000Y-75539600D03*
X193792700Y-78239556D03*
X202438000Y-87122000D03*
%TO.N,+3V3*%
X198272400Y-84429600D03*
X190856700Y-86360000D03*
X188137800Y-94818200D03*
X191795400Y-82194400D03*
X195580000Y-93472000D03*
X194665600Y-94488000D03*
X189255400Y-94894400D03*
X183667400Y-91338400D03*
X192024000Y-89662000D03*
X185724800Y-80213200D03*
X186182000Y-90627200D03*
X185978800Y-86156800D03*
X199796400Y-82550000D03*
X190398400Y-88239600D03*
X199847200Y-75539600D03*
X187325000Y-88366600D03*
X195630800Y-95453200D03*
X187375800Y-83642200D03*
%TO.N,+1V1*%
X186084465Y-86949289D03*
X190754000Y-85242400D03*
%TO.N,/SDA*%
X194614800Y-95605600D03*
%TO.N,/SCL*%
X194335400Y-93548200D03*
X199171000Y-85801200D03*
%TO.N,/ADC2*%
X171475400Y-82829400D03*
X189280800Y-91643200D03*
%TO.N,/ADC3*%
X190017400Y-92151200D03*
X171500800Y-84099400D03*
%TO.N,Net-(R5-Pad1)*%
X191135000Y-96901000D03*
X194665600Y-75895200D03*
%TD*%
D37*
%TO.N,GND*%
X188376000Y-85987500D02*
X188849000Y-88265000D01*
X188376000Y-84293000D02*
X188976000Y-83693000D01*
X188376000Y-85987500D02*
X188376000Y-84293000D01*
X186411700Y-84023200D02*
X188376000Y-85987500D01*
X186055000Y-83820000D02*
X186411700Y-84023200D01*
X188376000Y-85994800D02*
X188376000Y-85987500D01*
X186055000Y-88265000D02*
X188376000Y-85994800D01*
%TO.N,Net-(R5-Pad1)*%
X191135000Y-96901000D02*
X191135000Y-98982000D01*
X191135000Y-98982000D02*
X189817000Y-100300000D01*
%TO.N,GND*%
X174371000Y-96774000D02*
X174147000Y-96550000D01*
X174147000Y-96550000D02*
X173313000Y-96550000D01*
X178151000Y-96550000D02*
X178054000Y-96647000D01*
X179313000Y-96550000D02*
X178151000Y-96550000D01*
%TO.N,Net-(U3-RUN)*%
X173313000Y-100300000D02*
X179313000Y-100300000D01*
X180213000Y-99400000D02*
X179313000Y-100300000D01*
X180213000Y-93038200D02*
X180213000Y-99400000D01*
%TO.N,GND*%
X184307000Y-96550000D02*
X184912000Y-97155000D01*
X183817000Y-96550000D02*
X184307000Y-96550000D01*
X188946000Y-96550000D02*
X188595000Y-96901000D01*
X189817000Y-96550000D02*
X188946000Y-96550000D01*
%TO.N,Net-(R5-Pad1)*%
X183817000Y-100300000D02*
X189817000Y-100300000D01*
%TO.N,Net-(J6-Pin_1)*%
X169722800Y-70104000D02*
X170891200Y-68935600D01*
X172621000Y-69850000D02*
X172621000Y-68935600D01*
X169722800Y-71424800D02*
X169722800Y-70104000D01*
X168010600Y-73137000D02*
X169722800Y-71424800D01*
X166624000Y-73137000D02*
X168010600Y-73137000D01*
X172621000Y-68935600D02*
X172621000Y-67713800D01*
X170891200Y-68935600D02*
X172621000Y-68935600D01*
%TO.N,Net-(C21-Pad1)*%
X172974000Y-75692000D02*
X173939200Y-74726800D01*
X173939200Y-74726800D02*
X173939200Y-71325200D01*
X170738800Y-75692000D02*
X172974000Y-75692000D01*
X169037000Y-73990200D02*
X170738800Y-75692000D01*
X173939200Y-71325200D02*
X173607000Y-70993000D01*
X169037000Y-73912000D02*
X169037000Y-73990200D01*
%TO.N,Net-(J6-Pin_1)*%
X173812200Y-66522600D02*
X177342800Y-66522600D01*
X172621000Y-67713800D02*
X173812200Y-66522600D01*
%TO.N,Net-(U4B-+)*%
X174627000Y-69969800D02*
X174701200Y-69895600D01*
X174627000Y-70993000D02*
X174627000Y-69969800D01*
%TO.N,GND*%
X174701200Y-68935600D02*
X174701200Y-68044000D01*
%TO.N,Net-(U4B-+)*%
X174574200Y-71045800D02*
X174627000Y-70993000D01*
X174574200Y-72861400D02*
X174574200Y-71045800D01*
%TO.N,Net-(C21-Pad1)*%
X173581000Y-70967000D02*
X173607000Y-70993000D01*
X173581000Y-69850000D02*
X173581000Y-70967000D01*
%TO.N,Net-(J6-Pin_1)*%
X172621000Y-71371400D02*
X172621000Y-69850000D01*
X172034200Y-71958200D02*
X172621000Y-71371400D01*
X172034200Y-72861400D02*
X172034200Y-71958200D01*
%TO.N,Net-(JP1-A)*%
X170764200Y-76659200D02*
X170764200Y-77811400D01*
X169037000Y-74932000D02*
X170764200Y-76659200D01*
X170013400Y-77811400D02*
X170764200Y-77811400D01*
X166639000Y-74437000D02*
X170013400Y-77811400D01*
X166624000Y-74437000D02*
X166639000Y-74437000D01*
D38*
%TO.N,+5V*%
X170764200Y-74549000D02*
X170764200Y-73344217D01*
X170764200Y-73344217D02*
X170764200Y-72861400D01*
D37*
X170764200Y-70919400D02*
X170766800Y-70916800D01*
D38*
X203916000Y-90724000D02*
X203841000Y-90799000D01*
X195617000Y-98679000D02*
X200406000Y-93890000D01*
X202057000Y-93500000D02*
X200434000Y-93500000D01*
X200406000Y-93890000D02*
X200406000Y-93472000D01*
X200434000Y-93500000D02*
X200406000Y-93472000D01*
X170764200Y-72861400D02*
X170764200Y-70919400D01*
X202057000Y-91313000D02*
X202057000Y-93500000D01*
X202571000Y-90799000D02*
X202057000Y-91313000D01*
X203841000Y-90799000D02*
X202571000Y-90799000D01*
X204144700Y-90724000D02*
X203916000Y-90724000D01*
%TO.N,GND*%
X202819000Y-88124000D02*
X202565000Y-88138000D01*
D37*
X190982600Y-75565000D02*
X191008000Y-75539600D01*
X194843400Y-89763600D02*
X194945000Y-89662000D01*
D39*
X194024656Y-78007600D02*
X193792700Y-78239556D01*
D37*
X187401200Y-80241200D02*
X186486800Y-79933800D01*
X188376000Y-86064800D02*
X188376000Y-85987500D01*
X192024000Y-91666000D02*
X192024000Y-92456000D01*
X180594000Y-87325200D02*
X180543200Y-87376000D01*
X172974000Y-82044000D02*
X173962600Y-82044000D01*
X194106800Y-89763600D02*
X194843400Y-89763600D01*
D38*
X202791000Y-88124000D02*
X202805000Y-88124000D01*
D37*
X182196800Y-86309200D02*
X182196800Y-85702200D01*
D40*
X179916000Y-84498000D02*
X179959000Y-84455000D01*
X178689000Y-84498000D02*
X179916000Y-84498000D01*
D37*
X182196800Y-85702200D02*
X182041800Y-85547200D01*
D38*
X204144700Y-88124000D02*
X202819000Y-88124000D01*
X196596000Y-92484000D02*
X196596000Y-91694000D01*
D39*
X200914000Y-80670400D02*
X200914000Y-79908400D01*
D37*
X171726800Y-69923600D02*
X171704000Y-69900800D01*
X177321800Y-88341200D02*
X176530000Y-88341200D01*
X194521468Y-86309200D02*
X194754933Y-86075735D01*
D38*
X171726800Y-70916800D02*
X171726800Y-69923600D01*
D37*
X191008000Y-91666000D02*
X191008000Y-92456000D01*
D39*
X199796400Y-80670400D02*
X199796400Y-79908400D01*
D37*
X174574200Y-77811400D02*
X174574200Y-79146400D01*
X181333200Y-87325200D02*
X180594000Y-87325200D01*
D40*
X177321800Y-88341200D02*
X176989000Y-88008400D01*
D37*
X191617600Y-80241200D02*
X191617600Y-79349600D01*
X176989000Y-86698000D02*
X175836400Y-86698000D01*
X194919600Y-88646000D02*
X194970400Y-88696800D01*
X194919600Y-90830400D02*
X194945000Y-90805000D01*
D38*
X198131000Y-92522000D02*
X196634000Y-92522000D01*
D37*
X175836400Y-86698000D02*
X175818800Y-86715600D01*
X188376000Y-85987500D02*
X188376000Y-86318800D01*
X186131200Y-84988400D02*
X187376900Y-84988400D01*
X194028000Y-86309200D02*
X194521468Y-86309200D01*
X190067011Y-75565000D02*
X190982600Y-75565000D01*
X186131200Y-84988400D02*
X185977900Y-84987500D01*
D38*
X198131000Y-92522000D02*
X198131000Y-91705000D01*
X202057000Y-94460000D02*
X202057000Y-95250000D01*
D40*
X178332600Y-82804000D02*
X178689000Y-83160400D01*
X176989000Y-88008400D02*
X176989000Y-86698000D01*
D37*
X194586800Y-85191600D02*
X195427600Y-85191600D01*
X186944000Y-91615200D02*
X186944000Y-92659200D01*
X174574200Y-79146400D02*
X174879000Y-79451200D01*
X194106800Y-88646000D02*
X194919600Y-88646000D01*
D40*
X178689000Y-83160400D02*
X178689000Y-84498000D01*
D38*
X196634000Y-92522000D02*
X196596000Y-92484000D01*
D39*
X194479600Y-78007600D02*
X194024656Y-78007600D01*
D40*
X178332600Y-82804000D02*
X179324000Y-82804000D01*
D37*
X173962600Y-82044000D02*
X173990000Y-82016600D01*
X187376900Y-84988400D02*
X188376000Y-85987500D01*
X190220600Y-84150200D02*
X188383300Y-85987500D01*
D38*
X202565000Y-88138000D02*
X202791000Y-88124000D01*
D37*
X188383300Y-85987500D02*
X188376000Y-85987500D01*
X185977900Y-84987500D02*
X184938500Y-84987500D01*
X194106800Y-90830400D02*
X194919600Y-90830400D01*
D38*
X198131000Y-91705000D02*
X198120000Y-91694000D01*
D37*
%TO.N,+3V3*%
X187376000Y-88417600D02*
X187325000Y-88366600D01*
X183614000Y-86309200D02*
X183735700Y-86187500D01*
X190976000Y-82550000D02*
X190976000Y-81842800D01*
D40*
X192252600Y-89763600D02*
X193146800Y-89763600D01*
D37*
X183735700Y-86187500D02*
X184938500Y-86187500D01*
D40*
X191813500Y-86587500D02*
X192789700Y-86587500D01*
D37*
X183642000Y-90629200D02*
X183642000Y-91313000D01*
X191179200Y-88817200D02*
X190976000Y-88817200D01*
D40*
X190976000Y-89425000D02*
X190976000Y-90674000D01*
X191813500Y-88587500D02*
X191813500Y-89324500D01*
D37*
X187376000Y-83642000D02*
X187375800Y-83642200D01*
X190976000Y-81842800D02*
X191617600Y-81201200D01*
D40*
X190976000Y-90674000D02*
X191008000Y-90706000D01*
D39*
X198289600Y-83407600D02*
X198938800Y-83407600D01*
D37*
X183156800Y-86309200D02*
X183614000Y-86309200D01*
X187376000Y-82550000D02*
X187376000Y-81226400D01*
X186944000Y-90655200D02*
X187376000Y-90223200D01*
D40*
X186064582Y-80289400D02*
X186976382Y-81201200D01*
D37*
X192024000Y-89662000D02*
X191179200Y-88817200D01*
X191029200Y-86187500D02*
X190856700Y-86360000D01*
D40*
X190976000Y-89425000D02*
X191713000Y-89425000D01*
D37*
X189255400Y-93880400D02*
X189255400Y-94894400D01*
X191617600Y-82016600D02*
X191795400Y-82194400D01*
D40*
X192024000Y-89662000D02*
X192151000Y-89662000D01*
X192024000Y-89535000D02*
X192024000Y-89662000D01*
D39*
X199796400Y-81630400D02*
X200914000Y-81630400D01*
D40*
X191813500Y-89324500D02*
X192024000Y-89535000D01*
D37*
X186944000Y-90655200D02*
X186210000Y-90655200D01*
D38*
X195578000Y-93474000D02*
X195580000Y-93472000D01*
D39*
X199796400Y-82550000D02*
X199796400Y-81630400D01*
D37*
X191617600Y-81201200D02*
X191617600Y-82016600D01*
D38*
X195578000Y-94488000D02*
X194665600Y-94488000D01*
D37*
X191813500Y-86187500D02*
X192946300Y-86187500D01*
X191084200Y-86587500D02*
X190856700Y-86360000D01*
X190976000Y-88817200D02*
X190398400Y-88239600D01*
D40*
X185801000Y-80289400D02*
X186064582Y-80289400D01*
D37*
X184938500Y-86187500D02*
X185948100Y-86187500D01*
X191813500Y-86187500D02*
X191029200Y-86187500D01*
D39*
X198938800Y-83407600D02*
X199796400Y-82550000D01*
D40*
X192789700Y-86587500D02*
X193068000Y-86309200D01*
D38*
X195578000Y-94488000D02*
X195578000Y-95400400D01*
D37*
X187376000Y-90223200D02*
X187376000Y-89425000D01*
X187376000Y-89425000D02*
X187376000Y-88417600D01*
D40*
X191813500Y-88187500D02*
X191813500Y-88587500D01*
D37*
X191813500Y-86587500D02*
X191084200Y-86587500D01*
D40*
X191713000Y-89425000D02*
X191813500Y-89324500D01*
D37*
X185948100Y-86187500D02*
X185978800Y-86156800D01*
D40*
X192151000Y-89662000D02*
X192252600Y-89763600D01*
D39*
X198289600Y-84412400D02*
X198272400Y-84429600D01*
D38*
X195578000Y-95400400D02*
X195630800Y-95453200D01*
D37*
X190976000Y-89425000D02*
X190976000Y-88817200D01*
X186210000Y-90655200D02*
X186182000Y-90627200D01*
X187376000Y-82550000D02*
X187376000Y-83642000D01*
D39*
X198289600Y-83407600D02*
X198289600Y-84412400D01*
D40*
X186976382Y-81201200D02*
X187401200Y-81201200D01*
D37*
X186868000Y-90579200D02*
X186944000Y-90655200D01*
X192946300Y-86187500D02*
X193068000Y-86309200D01*
X188137800Y-93905800D02*
X188137800Y-94818200D01*
X187376000Y-81226400D02*
X187401200Y-81201200D01*
D40*
X185724800Y-80213200D02*
X185801000Y-80289400D01*
D38*
X195578000Y-94488000D02*
X195578000Y-93474000D01*
D37*
X198934800Y-75539600D02*
X199847200Y-75539600D01*
%TO.N,+1V1*%
X192560400Y-85699200D02*
X193119200Y-85699200D01*
D40*
X190754000Y-85242400D02*
X190754000Y-85191600D01*
D37*
X185922760Y-86949289D02*
X186084465Y-86949289D01*
X184938500Y-86587500D02*
X183922500Y-86587500D01*
X193119200Y-85699200D02*
X193626800Y-85191600D01*
D40*
X190307200Y-86827600D02*
X191267100Y-87787500D01*
X190307200Y-85638400D02*
X190307200Y-86827600D01*
X191349900Y-85787500D02*
X190804800Y-85242400D01*
D37*
X183922500Y-86587500D02*
X183184800Y-87325200D01*
D40*
X191267100Y-87787500D02*
X191813500Y-87787500D01*
D37*
X191813500Y-85787500D02*
X192472100Y-85787500D01*
D40*
X193146800Y-88455995D02*
X193146800Y-88646000D01*
X191813500Y-87787500D02*
X191216300Y-87787500D01*
D37*
X192472100Y-85787500D02*
X192560400Y-85699200D01*
X183184800Y-87325200D02*
X182293200Y-87325200D01*
D40*
X192478305Y-87787500D02*
X193146800Y-88455995D01*
X191813500Y-87787500D02*
X192478305Y-87787500D01*
X191813500Y-85787500D02*
X191349900Y-85787500D01*
X190804800Y-85242400D02*
X190754000Y-85242400D01*
X190754000Y-85191600D02*
X190754000Y-85191600D01*
D37*
X184938500Y-86587500D02*
X185560971Y-86587500D01*
X185560971Y-86587500D02*
X185922760Y-86949289D01*
D40*
X190754000Y-85191600D02*
X190307200Y-85638400D01*
%TO.N,Net-(U3-XIN)*%
X184938500Y-85387500D02*
X184345900Y-85387500D01*
X177372600Y-82804000D02*
X176989000Y-83187600D01*
X180413800Y-85448000D02*
X177939000Y-85448000D01*
X183515000Y-84556600D02*
X181305200Y-84556600D01*
X177939000Y-85448000D02*
X176989000Y-84498000D01*
X184345900Y-85387500D02*
X183515000Y-84556600D01*
X176989000Y-83187600D02*
X176989000Y-84498000D01*
X181305200Y-84556600D02*
X180413800Y-85448000D01*
D37*
%TO.N,Net-(U4A--)*%
X171934600Y-80970600D02*
X171879200Y-81026000D01*
X171934600Y-79883000D02*
X171934600Y-80970600D01*
X172034200Y-77811400D02*
X172034200Y-79783400D01*
X172972000Y-81026000D02*
X172974000Y-81024000D01*
X172034200Y-79783400D02*
X171934600Y-79883000D01*
X171881800Y-79935800D02*
X171934600Y-79883000D01*
X171879200Y-81026000D02*
X172972000Y-81026000D01*
D40*
%TO.N,unconnected-(J1-Shield-Pad6)*%
X204144700Y-86924000D02*
X205844700Y-86924000D01*
X204144700Y-91924000D02*
X205844700Y-91924000D01*
X206844700Y-86524000D02*
X206844700Y-92324000D01*
X205844700Y-91924000D02*
X206844700Y-92924000D01*
X205844700Y-86924000D02*
X206844700Y-85924000D01*
%TO.N,/SDA*%
X189376000Y-89425000D02*
X189376000Y-89886764D01*
X188660964Y-90601800D02*
X188442600Y-90601800D01*
X187934600Y-95605600D02*
X194614800Y-95605600D01*
X188137800Y-92885800D02*
X187401200Y-93622400D01*
X187401200Y-93622400D02*
X187401200Y-95072200D01*
X188137800Y-90906600D02*
X188137800Y-92885800D01*
X187401200Y-95072200D02*
X187934600Y-95605600D01*
X188442600Y-90601800D02*
X188137800Y-90906600D01*
X189376000Y-89886764D02*
X188660964Y-90601800D01*
%TO.N,/SCL*%
X189776000Y-89954200D02*
X188544200Y-91186000D01*
X194217600Y-93430400D02*
X194335400Y-93548200D01*
X189776000Y-89425000D02*
X189776000Y-89954200D01*
D37*
X205866600Y-79105600D02*
X199171000Y-85801200D01*
X189255400Y-92860400D02*
X189405800Y-92860400D01*
D40*
X189255400Y-92860400D02*
X189825400Y-93430400D01*
X188544200Y-91186000D02*
X188544200Y-92149200D01*
D37*
X194335400Y-93522800D02*
X194335400Y-93548200D01*
D40*
X189825400Y-93430400D02*
X194217600Y-93430400D01*
X188544200Y-92149200D02*
X189255400Y-92860400D01*
%TO.N,/SWCLK*%
X179933600Y-88036400D02*
X177215800Y-90754200D01*
X177215800Y-90754200D02*
X166979600Y-90754200D01*
X184017474Y-86987500D02*
X182968574Y-88036400D01*
X184938500Y-86987500D02*
X184017474Y-86987500D01*
X167794200Y-90498400D02*
X167487600Y-90805000D01*
X182968574Y-88036400D02*
X179933600Y-88036400D01*
%TO.N,/SWD*%
X166979600Y-93294200D02*
X178135038Y-93294200D01*
X178135038Y-93294200D02*
X184041738Y-87387500D01*
X184938500Y-87387500D02*
X184041738Y-87387500D01*
%TO.N,/ADC2*%
X170307000Y-82829400D02*
X166979600Y-79959200D01*
X189280800Y-91033600D02*
X189280800Y-91643200D01*
X190176000Y-89425000D02*
X190176000Y-90138400D01*
X190176000Y-90138400D02*
X189280800Y-91033600D01*
X171475400Y-82829400D02*
X170307000Y-82829400D01*
%TO.N,/ADC3*%
X190576000Y-90276457D02*
X190017400Y-90835057D01*
X190576000Y-89425000D02*
X190576000Y-90276457D01*
X171500800Y-84099400D02*
X169037000Y-84099400D01*
X190017400Y-90835057D02*
X190017400Y-92151200D01*
X169037000Y-84099400D02*
X166979600Y-82499200D01*
D37*
%TO.N,Net-(U3-RUN)*%
X184375500Y-87787500D02*
X184938500Y-87787500D01*
X183642000Y-89609200D02*
X180213000Y-93038200D01*
X183642000Y-88521000D02*
X183642000Y-89609200D01*
X184375500Y-87787500D02*
X183642000Y-88521000D01*
D40*
%TO.N,/QSPI_SS*%
X191813500Y-83387500D02*
X192481200Y-82719800D01*
X196990000Y-76708000D02*
X198289600Y-78007600D01*
X192481200Y-82719800D02*
X192481200Y-77571600D01*
X193344800Y-76708000D02*
X196990000Y-76708000D01*
X192481200Y-77571600D02*
X193344800Y-76708000D01*
D37*
X196648800Y-75539600D02*
X197914800Y-75539600D01*
D40*
X196648800Y-76366800D02*
X196990000Y-76708000D01*
X196648800Y-75539600D02*
X196648800Y-76366800D01*
%TO.N,Net-(U3-XOUT)*%
X181104000Y-85342000D02*
X181104000Y-86233000D01*
X183184800Y-84861400D02*
X181584600Y-84861400D01*
X184938500Y-85787500D02*
X184110900Y-85787500D01*
X184110900Y-85787500D02*
X183184800Y-84861400D01*
X181584600Y-84861400D02*
X181104000Y-85342000D01*
X184938500Y-85787500D02*
X184900200Y-85749200D01*
%TO.N,Net-(R10-Pad1)*%
X187648977Y-74390862D02*
X187803115Y-74545000D01*
X187648977Y-73361200D02*
X187648977Y-74390862D01*
X186529399Y-72341200D02*
X187549399Y-73361200D01*
X187549399Y-73361200D02*
X187648977Y-73361200D01*
%TO.N,Net-(R10-Pad2)*%
X188214000Y-72339200D02*
X188935058Y-73060258D01*
X190067011Y-74545000D02*
X188935058Y-74545000D01*
X188935058Y-73060258D02*
X188935058Y-74545000D01*
X187650977Y-72339200D02*
X188214000Y-72339200D01*
X187648977Y-72341200D02*
X187650977Y-72339200D01*
%TO.N,Net-(R11-Pad1)*%
X185409827Y-72496728D02*
X186274299Y-73361200D01*
X186529399Y-74403227D02*
X186671172Y-74545000D01*
X185409827Y-72341200D02*
X185409827Y-72496728D01*
X186529399Y-73361200D02*
X186529399Y-74403227D01*
X186274299Y-73361200D02*
X186529399Y-73361200D01*
%TO.N,Net-(R12-Pad1)*%
X185409827Y-74415598D02*
X185539229Y-74545000D01*
X185310255Y-73361200D02*
X185409827Y-73361200D01*
X184290255Y-72341200D02*
X185310255Y-73361200D01*
X185409827Y-73361200D02*
X185409827Y-74415598D01*
%TO.N,Net-(R13-Pad1)*%
X184290255Y-74427969D02*
X184407286Y-74545000D01*
X183170683Y-72341200D02*
X183270255Y-72341200D01*
X184290255Y-73361200D02*
X184290255Y-74427969D01*
X183270255Y-72341200D02*
X184290255Y-73361200D01*
%TO.N,Net-(R14-Pad1)*%
X183170683Y-74440340D02*
X183275343Y-74545000D01*
X183170683Y-73361200D02*
X183170683Y-74440340D01*
X182051111Y-72341200D02*
X182150683Y-72341200D01*
X182150683Y-72341200D02*
X183170683Y-73361200D01*
%TO.N,Net-(R15-Pad1)*%
X182051111Y-73361200D02*
X182143400Y-73453489D01*
X182143400Y-73453489D02*
X182143400Y-74545000D01*
X180931539Y-72341200D02*
X181031111Y-72341200D01*
X181031111Y-72341200D02*
X182051111Y-73361200D01*
%TO.N,Net-(R16-Pad1)*%
X180931539Y-73361200D02*
X180931539Y-74465082D01*
X179911539Y-72341200D02*
X180931539Y-73361200D01*
X180931539Y-74465082D02*
X181011457Y-74545000D01*
X179811967Y-72341200D02*
X179911539Y-72341200D01*
%TO.N,Net-(R17-Pad1)*%
X178791967Y-72341200D02*
X179811967Y-73361200D01*
X179811967Y-73361200D02*
X179811967Y-74477453D01*
X178692395Y-72341200D02*
X178791967Y-72341200D01*
X179811967Y-74477453D02*
X179879514Y-74545000D01*
%TO.N,Net-(R18-Pad1)*%
X178692395Y-74489824D02*
X178747571Y-74545000D01*
X178692395Y-73361200D02*
X178692395Y-74489824D01*
X177672395Y-72341200D02*
X178692395Y-73361200D01*
X177572823Y-72341200D02*
X177672395Y-72341200D01*
%TO.N,Net-(R19-Pad1)*%
X176453251Y-72496728D02*
X177317723Y-73361200D01*
X177615628Y-74545000D02*
X177615628Y-73404005D01*
X177615628Y-73404005D02*
X177572823Y-73361200D01*
X176453251Y-72341200D02*
X176453251Y-72496728D01*
X177317723Y-73361200D02*
X177572823Y-73361200D01*
%TO.N,Net-(U4A-+)*%
X176483685Y-73391634D02*
X176453251Y-73361200D01*
D37*
X173304200Y-77811400D02*
X173304200Y-76682600D01*
X174752000Y-75234800D02*
X175793885Y-75234800D01*
X175793885Y-75234800D02*
X176483685Y-74545000D01*
X173304200Y-76682600D02*
X174752000Y-75234800D01*
D40*
X176483685Y-74545000D02*
X176483685Y-73391634D01*
%TO.N,/GPIO0*%
X188935058Y-77175058D02*
X188935058Y-75565000D01*
X190576000Y-82550000D02*
X190576000Y-78816000D01*
X190576000Y-78816000D02*
X188935058Y-77175058D01*
%TO.N,/GPIO1*%
X187807600Y-77216000D02*
X188091856Y-77500256D01*
X190176000Y-78969736D02*
X190176000Y-82550000D01*
X187807600Y-75569485D02*
X187807600Y-77216000D01*
X188091856Y-77500256D02*
X188706520Y-77500256D01*
X187803115Y-75565000D02*
X187807600Y-75569485D01*
X188706520Y-77500256D02*
X190176000Y-78969736D01*
%TO.N,/GPIO2*%
X186671172Y-75565000D02*
X186690000Y-75583828D01*
X188582256Y-77800256D02*
X189776000Y-78994000D01*
X187223456Y-77800256D02*
X188582256Y-77800256D01*
X186690000Y-75583828D02*
X186690000Y-77266800D01*
X189776000Y-78994000D02*
X189776000Y-82550000D01*
X186690000Y-77266800D02*
X187223456Y-77800256D01*
%TO.N,/GPIO3*%
X185521600Y-77317600D02*
X185521600Y-75582629D01*
X186304256Y-78100256D02*
X185521600Y-77317600D01*
X185521600Y-75582629D02*
X185539229Y-75565000D01*
X189376000Y-82550000D02*
X189376000Y-79119344D01*
X188387056Y-78130400D02*
X188387056Y-78100256D01*
X188387056Y-78100256D02*
X186304256Y-78100256D01*
X189376000Y-79119344D02*
X188387056Y-78130400D01*
%TO.N,/GPIO4*%
X184407286Y-75565000D02*
X184407286Y-77625686D01*
X188976000Y-79143608D02*
X188976000Y-82550000D01*
X188272392Y-78440000D02*
X188976000Y-79143608D01*
X184407286Y-77625686D02*
X185221600Y-78440000D01*
X185221600Y-78440000D02*
X188272392Y-78440000D01*
%TO.N,/GPIO5*%
X183896000Y-78740000D02*
X183275343Y-78119343D01*
X188615600Y-79207472D02*
X188148128Y-78740000D01*
X183275343Y-78119343D02*
X183275343Y-75565000D01*
X188576000Y-82550000D02*
X188615600Y-82510400D01*
X188615600Y-82510400D02*
X188615600Y-79207472D01*
X188148128Y-78740000D02*
X183896000Y-78740000D01*
%TO.N,/GPIO6*%
X188315600Y-79331736D02*
X188315600Y-81912500D01*
X188315600Y-81912500D02*
X188176000Y-82052100D01*
X188028664Y-79044800D02*
X188315600Y-79331736D01*
X182626000Y-79044800D02*
X188028664Y-79044800D01*
X188176000Y-82052100D02*
X188176000Y-82550000D01*
X182143400Y-78562200D02*
X182626000Y-79044800D01*
X182143400Y-75565000D02*
X182143400Y-78562200D01*
%TO.N,/GPIO7*%
X188010800Y-79451200D02*
X187960000Y-81737200D01*
X187776000Y-82088236D02*
X187776000Y-82550000D01*
X181011457Y-78344657D02*
X182016400Y-79349600D01*
X182016400Y-79349600D02*
X187909200Y-79349600D01*
X187960000Y-81737200D02*
X187776000Y-82088236D01*
X187909200Y-79349600D02*
X188010800Y-79451200D01*
X181011457Y-75565000D02*
X181011457Y-78344657D01*
%TO.N,/GPIO8*%
X179879514Y-78685914D02*
X181965600Y-80772000D01*
X179879514Y-75565000D02*
X179879514Y-78685914D01*
X186976000Y-81718400D02*
X186976000Y-82550000D01*
X186029600Y-80772000D02*
X186976000Y-81718400D01*
X181965600Y-80772000D02*
X186029600Y-80772000D01*
%TO.N,/GPIO9*%
X185886800Y-81238800D02*
X185853864Y-81271736D01*
X185853864Y-81271736D02*
X185811328Y-81229200D01*
X178747571Y-78620771D02*
X178747571Y-75565000D01*
X186576000Y-81928000D02*
X185886800Y-81238800D01*
X185811328Y-81229200D02*
X181356000Y-81229200D01*
X181356000Y-81229200D02*
X178747571Y-78620771D01*
X186576000Y-82550000D02*
X186576000Y-81928000D01*
%TO.N,/GPIO10*%
X180141600Y-81538800D02*
X185696664Y-81538800D01*
X177615628Y-79012828D02*
X180141600Y-81538800D01*
X186176000Y-82018136D02*
X186176000Y-82550000D01*
X177615628Y-75565000D02*
X177615628Y-79012828D01*
X185696664Y-81538800D02*
X186176000Y-82018136D01*
%TO.N,/GPIO11*%
X185572400Y-81838800D02*
X183032400Y-81838800D01*
X179882800Y-81838800D02*
X183032400Y-81838800D01*
X176483685Y-75565000D02*
X176483685Y-78439685D01*
X176483685Y-78439685D02*
X179882800Y-81838800D01*
X185776000Y-82042400D02*
X185572400Y-81838800D01*
X185776000Y-82550000D02*
X185776000Y-82042400D01*
D37*
%TO.N,Net-(JP1-A)*%
X170919200Y-81026000D02*
X170919200Y-77966400D01*
D40*
%TO.N,Net-(J6-Pin_1)*%
X173304200Y-72861400D02*
X172034200Y-72861400D01*
%TO.N,/QSPI_SD1*%
X192836800Y-77724000D02*
X193548000Y-77012800D01*
X191813500Y-83787500D02*
X192275264Y-83787500D01*
X193548000Y-77012800D02*
X196024800Y-77012800D01*
X192836800Y-83225964D02*
X192836800Y-77724000D01*
X192275264Y-83787500D02*
X192836800Y-83225964D01*
X196024800Y-77012800D02*
X197019600Y-78007600D01*
%TO.N,/QSPI_SD2*%
X193243200Y-77927200D02*
X193802000Y-77368400D01*
X193243200Y-83410808D02*
X193243200Y-77927200D01*
X193802000Y-77368400D02*
X195110400Y-77368400D01*
X191813500Y-84187500D02*
X192466508Y-84187500D01*
X195110400Y-77368400D02*
X195749600Y-78007600D01*
X192466508Y-84187500D02*
X193243200Y-83410808D01*
%TO.N,/QSPI_SD0*%
X193096272Y-83982000D02*
X193905200Y-83982000D01*
X191813500Y-84587500D02*
X192490772Y-84587500D01*
X193905200Y-83982000D02*
X194479600Y-83407600D01*
X192490772Y-84587500D02*
X193096272Y-83982000D01*
%TO.N,/QSPI_SCLK*%
X191813500Y-84987500D02*
X192515036Y-84987500D01*
X192515036Y-84987500D02*
X193220536Y-84282000D01*
X193220536Y-84282000D02*
X194875200Y-84282000D01*
X194875200Y-84282000D02*
X195749600Y-83407600D01*
%TO.N,/QSPI_SD3*%
X195845200Y-84582000D02*
X197019600Y-83407600D01*
X192577600Y-85349200D02*
X193344800Y-84582000D01*
X191851800Y-85349200D02*
X192577600Y-85349200D01*
X193344800Y-84582000D02*
X195845200Y-84582000D01*
X191813500Y-85387500D02*
X191851800Y-85349200D01*
%TO.N,Net-(C18-Pad2)*%
X180084000Y-86233000D02*
X179619000Y-86698000D01*
X179619000Y-86698000D02*
X178689000Y-86698000D01*
X178689000Y-87934000D02*
X178689000Y-86698000D01*
X178281800Y-88341200D02*
X178689000Y-87934000D01*
D37*
%TO.N,Net-(R5-Pad1)*%
X195628800Y-75539600D02*
X195021200Y-75539600D01*
X195021200Y-75539600D02*
X194665600Y-75895200D01*
%TO.N,/USB_P*%
X191813500Y-86987500D02*
X192866815Y-86987500D01*
X192866815Y-86987500D02*
X192916638Y-87037323D01*
D41*
X194522276Y-87037323D02*
X192916638Y-87037323D01*
X195273200Y-86766400D02*
X194793199Y-86766400D01*
X194793199Y-86766400D02*
X194522276Y-87037323D01*
%TO.N,/USB_N*%
X195273200Y-87884000D02*
X194793199Y-87884000D01*
D37*
X192583348Y-87387500D02*
X192808925Y-87613077D01*
X191813500Y-87387500D02*
X192583348Y-87387500D01*
X192808925Y-87613077D02*
X192916638Y-87613077D01*
D41*
X194522276Y-87613077D02*
X192916638Y-87613077D01*
X194793199Y-87884000D02*
X194522276Y-87613077D01*
%TO.N,/USB_DP*%
X196773201Y-86766400D02*
X197044124Y-87037323D01*
X197044124Y-87037323D02*
X199839443Y-87037323D01*
X203132199Y-89424000D02*
X204144700Y-89424000D01*
X202263243Y-89461123D02*
X203095076Y-89461123D01*
X203095076Y-89461123D02*
X203132199Y-89424000D01*
X196293200Y-86766400D02*
X196773201Y-86766400D01*
X199839443Y-87037323D02*
X202263243Y-89461123D01*
%TO.N,/USB_DN*%
X203095076Y-90036877D02*
X203132199Y-90074000D01*
X202024757Y-90036877D02*
X203095076Y-90036877D01*
X196293200Y-87884000D02*
X196773201Y-87884000D01*
X197044124Y-87613077D02*
X199600957Y-87613077D01*
X203132199Y-90074000D02*
X204144700Y-90074000D01*
X199600957Y-87613077D02*
X202024757Y-90036877D01*
X196773201Y-87884000D02*
X197044124Y-87613077D01*
D38*
%TO.N,Net-(U1-VO)*%
X196598000Y-93446000D02*
X196596000Y-93444000D01*
X198131000Y-94422000D02*
X196664000Y-94422000D01*
X196598000Y-94488000D02*
X196598000Y-93446000D01*
X196664000Y-94422000D02*
X196598000Y-94488000D01*
%TD*%
%TA.AperFunction,Conductor*%
%TO.N,+3V3*%
G36*
X192497451Y-89087318D02*
G01*
X192529679Y-89149312D01*
X192532000Y-89173193D01*
X192532000Y-89302069D01*
X192523354Y-89347559D01*
X192477221Y-89464543D01*
X192466800Y-89551329D01*
X192466800Y-89563600D01*
X193222800Y-89563600D01*
X193289839Y-89583285D01*
X193335594Y-89636089D01*
X193346800Y-89687600D01*
X193346800Y-90906400D01*
X193327115Y-90973439D01*
X193274311Y-91019194D01*
X193222800Y-91030400D01*
X192550800Y-91030400D01*
X192483761Y-91010715D01*
X192438006Y-90957911D01*
X192426800Y-90906400D01*
X192426800Y-90906000D01*
X190932000Y-90906000D01*
X190864961Y-90886315D01*
X190819206Y-90833511D01*
X190808000Y-90782000D01*
X190808000Y-90732921D01*
X190827685Y-90665882D01*
X190844312Y-90645246D01*
X190874212Y-90615346D01*
X190879364Y-90610742D01*
X190909970Y-90586336D01*
X190915320Y-90578489D01*
X190927825Y-90560148D01*
X190981854Y-90515846D01*
X191030278Y-90506000D01*
X191824000Y-90506000D01*
X192224000Y-90506000D01*
X192650000Y-90506000D01*
X192717039Y-90525685D01*
X192762794Y-90578489D01*
X192774000Y-90630000D01*
X192773999Y-90630399D01*
X192774000Y-90630400D01*
X192946800Y-90630400D01*
X192946800Y-89963600D01*
X192466801Y-89963600D01*
X192430482Y-89999919D01*
X192428035Y-89997472D01*
X192394312Y-90026694D01*
X192328018Y-90037016D01*
X192236272Y-90026000D01*
X192224000Y-90026000D01*
X192224000Y-90506000D01*
X191824000Y-90506000D01*
X191824000Y-90026000D01*
X191823998Y-90025999D01*
X191811730Y-90026000D01*
X191724944Y-90036421D01*
X191628288Y-90074537D01*
X191558701Y-90080818D01*
X191496765Y-90048481D01*
X191462145Y-89987791D01*
X191465758Y-89918225D01*
X191473149Y-89897102D01*
X191473149Y-89897100D01*
X191475999Y-89866707D01*
X191475999Y-89211499D01*
X191495683Y-89144460D01*
X191548487Y-89098705D01*
X191599999Y-89087499D01*
X192255196Y-89087499D01*
X192285607Y-89084647D01*
X192285609Y-89084647D01*
X192367045Y-89056152D01*
X192436824Y-89052590D01*
X192497451Y-89087318D01*
G37*
%TD.AperFunction*%
%TD*%
%TA.AperFunction,Conductor*%
%TO.N,GND*%
G36*
X203098236Y-86252685D02*
G01*
X203143991Y-86305489D01*
X203153935Y-86374647D01*
X203142197Y-86412272D01*
X203090707Y-86515677D01*
X203033623Y-86716308D01*
X203014378Y-86923999D01*
X203014378Y-86924000D01*
X203033623Y-87131691D01*
X203033623Y-87131693D01*
X203033624Y-87131696D01*
X203088680Y-87325199D01*
X203090707Y-87332322D01*
X203185562Y-87522816D01*
X203197823Y-87591602D01*
X203170950Y-87656097D01*
X203162245Y-87665768D01*
X203142060Y-87685953D01*
X203084533Y-87798855D01*
X203069700Y-87892513D01*
X203069700Y-87924000D01*
X203587963Y-87924000D01*
X203634800Y-87935017D01*
X203635319Y-87933673D01*
X203635633Y-87933794D01*
X203638309Y-87935842D01*
X203643241Y-87937003D01*
X203646010Y-87938382D01*
X203644799Y-87940811D01*
X203691111Y-87976267D01*
X203714818Y-88041992D01*
X203699229Y-88110100D01*
X203649292Y-88158969D01*
X203591047Y-88173500D01*
X203438182Y-88173500D01*
X203357219Y-88186323D01*
X203344396Y-88188354D01*
X203231358Y-88245950D01*
X203231356Y-88245951D01*
X203231357Y-88245951D01*
X203231353Y-88245953D01*
X203189628Y-88287680D01*
X203128305Y-88321166D01*
X203101946Y-88324000D01*
X203069701Y-88324000D01*
X203069701Y-88355481D01*
X203081186Y-88428009D01*
X203081186Y-88466800D01*
X203069200Y-88542480D01*
X203069200Y-88734728D01*
X203049515Y-88801767D01*
X202996711Y-88847522D01*
X202967669Y-88855863D01*
X202953102Y-88866302D01*
X202949257Y-88867895D01*
X202901792Y-88877340D01*
X202556416Y-88877340D01*
X202489377Y-88857655D01*
X202468735Y-88841021D01*
X200315319Y-86687605D01*
X200281834Y-86626282D01*
X200279000Y-86599924D01*
X200279000Y-86357000D01*
X200298685Y-86289961D01*
X200351489Y-86244206D01*
X200403000Y-86233000D01*
X203031197Y-86233000D01*
X203098236Y-86252685D01*
G37*
%TD.AperFunction*%
%TD*%
M02*
