M48
; DRILL file {KiCad 7.0.7} date Mon Sep 18 16:24:31 2023
; FORMAT={-:-/ absolute / inch / decimal}
; #@! TF.CreationDate,2023-09-18T16:24:31-07:00
; #@! TF.GenerationSoftware,Kicad,Pcbnew,7.0.7
; #@! TF.FileFunction,Plated,1,4,PTH
FMAT,2
INCH
; #@! TA.AperFunction,Plated,PTH,ViaDrill
T1C0.0118
; #@! TA.AperFunction,Plated,PTH,ComponentDrill
T2C0.0236
; #@! TA.AperFunction,Plated,PTH,ComponentDrill
T3C0.0335
; #@! TA.AperFunction,Plated,PTH,ComponentDrill
T4C0.0394
; #@! TA.AperFunction,Plated,PTH,ComponentDrill
T5C0.0866
%
G90
G05
T1
X6.723Y-2.935
X6.751Y-3.261
X6.752Y-3.311
X6.76Y-2.752
X6.85Y-3.229
X6.865Y-3.81
X6.879Y-2.6779
X6.885Y-3.128
X6.922Y-3.414
X6.95Y-3.478
X7.01Y-3.805
X7.06Y-3.26
X7.085Y-3.325
X7.108Y-3.44
X7.167Y-3.368
X7.231Y-3.596
X7.28Y-3.825
X7.312Y-3.158
X7.322Y-3.392
X7.325Y-3.3
X7.325Y-3.475
X7.3262Y-3.4232
X7.328Y-3.346
X7.33Y-3.568
X7.342Y-3.147
X7.36Y-3.648
X7.375Y-3.479
X7.377Y-3.293
X7.407Y-3.733
X7.425Y-3.815
X7.435Y-3.475
X7.44Y-3.295
X7.451Y-3.736
X7.452Y-3.608
X7.481Y-3.628
X7.489Y-3.313
X7.496Y-3.474
X7.51Y-3.356
X7.514Y-3.4
X7.52Y-2.974
X7.52Y-3.64
X7.525Y-3.815
X7.544Y-3.124
X7.551Y-3.236
X7.56Y-3.53
X7.56Y-3.64
X7.6296Y-3.0803
X7.651Y-3.683
X7.662Y-3.764
X7.664Y-2.988
X7.664Y-3.72
X7.6675Y-3.3888
X7.675Y-3.53
X7.675Y-3.575
X7.676Y-3.492
X7.694Y-3.354
X7.7Y-3.68
X7.702Y-3.758
X7.74Y-3.61
X7.8Y-3.61
X7.806Y-3.324
X7.8414Y-3.378
X7.866Y-3.146
X7.866Y-3.25
X7.868Y-2.974
X7.91Y-3.146
X7.93Y-3.42
X7.955Y-3.75
X7.97Y-3.43
X7.975Y-3.47
T3
X8.0372Y-3.4222
X8.0372Y-3.6191
T4
X6.574Y-3.048
X6.574Y-3.148
X6.574Y-3.248
X6.574Y-3.348
X6.574Y-3.573
X6.574Y-3.673
X6.982Y-2.619
X7.082Y-2.619
X7.182Y-2.619
X7.7015Y-3.885
X7.8015Y-3.885
X8.105Y-2.9144
X8.105Y-3.0144
X8.105Y-3.1144
X8.105Y-3.2144
T5
X6.605Y-2.662
X6.605Y-3.9
X8.1Y-2.662
X8.1Y-3.9
T2
G00X8.1297Y-3.3828
M15
G01X8.1573Y-3.3828
M16
G05
G00X8.1573Y-3.6584
M15
G01X8.1297Y-3.6584
M16
G05
T0
M30
