%TF.GenerationSoftware,KiCad,Pcbnew,7.0.7*%
%TF.CreationDate,2023-09-18T16:24:31-07:00*%
%TF.ProjectId,pi_pico_dds,70695f70-6963-46f5-9f64-64732e6b6963,rev?*%
%TF.SameCoordinates,Original*%
%TF.FileFunction,Copper,L3,Inr*%
%TF.FilePolarity,Positive*%
%FSLAX46Y46*%
G04 Gerber Fmt 4.6, Leading zero omitted, Abs format (unit mm)*
G04 Created by KiCad (PCBNEW 7.0.7) date 2023-09-18 16:24:31*
%MOMM*%
%LPD*%
G01*
G04 APERTURE LIST*
%TA.AperFunction,ComponentPad*%
%ADD10R,1.700000X1.700000*%
%TD*%
%TA.AperFunction,ComponentPad*%
%ADD11O,1.700000X1.700000*%
%TD*%
%TA.AperFunction,ComponentPad*%
%ADD12C,3.800000*%
%TD*%
%TA.AperFunction,ComponentPad*%
%ADD13O,1.900000X1.200000*%
%TD*%
%TA.AperFunction,ComponentPad*%
%ADD14C,1.450000*%
%TD*%
%TA.AperFunction,ViaPad*%
%ADD15C,0.600000*%
%TD*%
G04 APERTURE END LIST*
D10*
%TO.N,Net-(J6-Pin_1)*%
%TO.C,J6*%
X177342800Y-66522600D03*
D11*
%TO.N,GND*%
X179882800Y-66522600D03*
X182422800Y-66522600D03*
%TD*%
D10*
%TO.N,+3V3*%
%TO.C,J3*%
X205866600Y-74025600D03*
D11*
%TO.N,/SDA*%
X205866600Y-76565600D03*
%TO.N,/SCL*%
X205866600Y-79105600D03*
%TO.N,GND*%
X205866600Y-81645600D03*
%TD*%
D10*
%TO.N,+5V*%
%TO.C,J2*%
X195617000Y-98679000D03*
D11*
%TO.N,GND*%
X198157000Y-98679000D03*
%TD*%
D12*
%TO.N,GND*%
%TO.C,H1*%
X205740000Y-67614800D03*
%TD*%
%TO.N,GND*%
%TO.C,H2*%
X205740000Y-99060000D03*
%TD*%
D10*
%TO.N,+3V3*%
%TO.C,J4*%
X166979600Y-77419200D03*
D11*
%TO.N,/ADC2*%
X166979600Y-79959200D03*
%TO.N,/ADC3*%
X166979600Y-82499200D03*
%TO.N,GND*%
X166979600Y-85039200D03*
%TD*%
D12*
%TO.N,GND*%
%TO.C,H3*%
X167767000Y-99060000D03*
%TD*%
%TO.N,GND*%
%TO.C,H4*%
X167767000Y-67614800D03*
%TD*%
D13*
%TO.N,unconnected-(J1-Shield-Pad6)*%
%TO.C,J1*%
X206844700Y-92924000D03*
D14*
X204144700Y-91924000D03*
X204144700Y-86924000D03*
D13*
X206844700Y-85924000D03*
%TD*%
D10*
%TO.N,/SWCLK*%
%TO.C,J5*%
X166979600Y-90754200D03*
D11*
%TO.N,/SWD*%
X166979600Y-93294200D03*
%TD*%
D15*
%TO.N,GND*%
X174371000Y-96774000D03*
X178054000Y-96647000D03*
X184912000Y-97155000D03*
X188595000Y-96901000D03*
X174726600Y-68018600D03*
%TO.N,+5V*%
X170764200Y-74549000D03*
%TO.N,GND*%
X176530000Y-88341200D03*
X196596000Y-91694000D03*
X182041800Y-85547200D03*
X192024000Y-92456000D03*
X198120000Y-91694000D03*
X194754933Y-86075735D03*
X179959000Y-84455000D03*
X201422000Y-86868000D03*
X171704000Y-69900800D03*
X194945000Y-89662000D03*
X186486800Y-79933800D03*
X175818800Y-86715600D03*
X190220600Y-84150200D03*
X186944000Y-92659200D03*
X194945000Y-90805000D03*
X173990000Y-82016600D03*
X186131200Y-84988400D03*
X199796400Y-79908400D03*
X200914000Y-79908400D03*
X186055000Y-88265000D03*
X202057000Y-95250000D03*
X188976000Y-83693000D03*
X180543200Y-87376000D03*
X191617600Y-79349600D03*
X186055000Y-83820000D03*
X195427600Y-85191600D03*
X202565000Y-88138000D03*
X194970400Y-88696800D03*
X179324000Y-82804000D03*
X188849000Y-88265000D03*
X174879000Y-79451200D03*
X191008000Y-92456000D03*
X191008000Y-75539600D03*
X193792700Y-78239556D03*
X202438000Y-87122000D03*
%TO.N,+3V3*%
X198272400Y-84429600D03*
X190856700Y-86360000D03*
X188137800Y-94818200D03*
X191795400Y-82194400D03*
X195580000Y-93472000D03*
X194665600Y-94488000D03*
X189255400Y-94894400D03*
X183667400Y-91338400D03*
X192024000Y-89662000D03*
X185724800Y-80213200D03*
X186182000Y-90627200D03*
X185978800Y-86156800D03*
X199796400Y-82550000D03*
X190398400Y-88239600D03*
X199847200Y-75539600D03*
X187325000Y-88366600D03*
X195630800Y-95453200D03*
X187375800Y-83642200D03*
%TO.N,+1V1*%
X186084465Y-86949289D03*
X190754000Y-85242400D03*
%TO.N,/SDA*%
X194614800Y-95605600D03*
%TO.N,/SCL*%
X194335400Y-93548200D03*
X199171000Y-85801200D03*
%TO.N,/ADC2*%
X171475400Y-82829400D03*
X189280800Y-91643200D03*
%TO.N,/ADC3*%
X190017400Y-92151200D03*
X171500800Y-84099400D03*
%TO.N,Net-(R5-Pad1)*%
X191135000Y-96901000D03*
X194665600Y-75895200D03*
%TD*%
%TA.AperFunction,Conductor*%
%TO.N,+3V3*%
G36*
X208222539Y-64790185D02*
G01*
X208268294Y-64842989D01*
X208279500Y-64894500D01*
X208279500Y-66879491D01*
X208259815Y-66946530D01*
X208207011Y-66992285D01*
X208137853Y-67002229D01*
X208074297Y-66973204D01*
X208037569Y-66917809D01*
X208012171Y-66839643D01*
X207976341Y-66729370D01*
X207847733Y-66456064D01*
X207819828Y-66412093D01*
X207685888Y-66201036D01*
X207685885Y-66201032D01*
X207493349Y-65968296D01*
X207399731Y-65880383D01*
X207273163Y-65761527D01*
X207273153Y-65761519D01*
X207028806Y-65583991D01*
X207028799Y-65583986D01*
X207028795Y-65583984D01*
X206764104Y-65438468D01*
X206764101Y-65438466D01*
X206764096Y-65438464D01*
X206764095Y-65438463D01*
X206483265Y-65327275D01*
X206483262Y-65327274D01*
X206190695Y-65252157D01*
X205891036Y-65214300D01*
X205891027Y-65214300D01*
X205588973Y-65214300D01*
X205588963Y-65214300D01*
X205289304Y-65252157D01*
X204996737Y-65327274D01*
X204996734Y-65327275D01*
X204715904Y-65438463D01*
X204715903Y-65438464D01*
X204451205Y-65583984D01*
X204451193Y-65583991D01*
X204206846Y-65761519D01*
X204206836Y-65761527D01*
X203986652Y-65968294D01*
X203794111Y-66201036D01*
X203632268Y-66456061D01*
X203632265Y-66456067D01*
X203503661Y-66729363D01*
X203503659Y-66729368D01*
X203410320Y-67016635D01*
X203353719Y-67313346D01*
X203353718Y-67313353D01*
X203334754Y-67614794D01*
X203334754Y-67614805D01*
X203353718Y-67916246D01*
X203353719Y-67916253D01*
X203382019Y-68064608D01*
X203407437Y-68197854D01*
X203410320Y-68212964D01*
X203503659Y-68500231D01*
X203503661Y-68500236D01*
X203632265Y-68773532D01*
X203632268Y-68773538D01*
X203794111Y-69028563D01*
X203986652Y-69261305D01*
X204206836Y-69468072D01*
X204206846Y-69468080D01*
X204451193Y-69645608D01*
X204451198Y-69645610D01*
X204451205Y-69645616D01*
X204715896Y-69791132D01*
X204715901Y-69791134D01*
X204715903Y-69791135D01*
X204715904Y-69791136D01*
X204996734Y-69902324D01*
X204996737Y-69902325D01*
X205094259Y-69927363D01*
X205289302Y-69977442D01*
X205436039Y-69995979D01*
X205588963Y-70015299D01*
X205588969Y-70015299D01*
X205588973Y-70015300D01*
X205588975Y-70015300D01*
X205891025Y-70015300D01*
X205891027Y-70015300D01*
X205891032Y-70015299D01*
X205891036Y-70015299D01*
X205970591Y-70005248D01*
X206190698Y-69977442D01*
X206483262Y-69902325D01*
X206483265Y-69902324D01*
X206764095Y-69791136D01*
X206764096Y-69791135D01*
X206764094Y-69791135D01*
X206764104Y-69791132D01*
X207028795Y-69645616D01*
X207273162Y-69468074D01*
X207493349Y-69261304D01*
X207685885Y-69028568D01*
X207847733Y-68773536D01*
X207976341Y-68500230D01*
X208037569Y-68311789D01*
X208077006Y-68254114D01*
X208141365Y-68226916D01*
X208210211Y-68238831D01*
X208261687Y-68286075D01*
X208279500Y-68350108D01*
X208279500Y-85162254D01*
X208259815Y-85229293D01*
X208207011Y-85275048D01*
X208137853Y-85284992D01*
X208074297Y-85255967D01*
X208054493Y-85234182D01*
X208030186Y-85200048D01*
X208030179Y-85200040D01*
X207878079Y-85055014D01*
X207701274Y-84941388D01*
X207664290Y-84926582D01*
X207580097Y-84892876D01*
X207506155Y-84863274D01*
X207299786Y-84823500D01*
X207299785Y-84823500D01*
X206442275Y-84823500D01*
X206285481Y-84838472D01*
X206285482Y-84838472D01*
X206285478Y-84838473D01*
X206083827Y-84897683D01*
X205897013Y-84993991D01*
X205731816Y-85123905D01*
X205731812Y-85123909D01*
X205594178Y-85282746D01*
X205489098Y-85464750D01*
X205420356Y-85663365D01*
X205420356Y-85663367D01*
X205392282Y-85858632D01*
X205390446Y-85871401D01*
X205400445Y-86081327D01*
X205430866Y-86206722D01*
X205427541Y-86276513D01*
X205387013Y-86333427D01*
X205322148Y-86359395D01*
X205253541Y-86346171D01*
X205208786Y-86307079D01*
X205087076Y-86133259D01*
X205087071Y-86133253D01*
X204935445Y-85981627D01*
X204759790Y-85858631D01*
X204636634Y-85801203D01*
X204565447Y-85768008D01*
X204565443Y-85768007D01*
X204565439Y-85768005D01*
X204358324Y-85712509D01*
X204358320Y-85712508D01*
X204358319Y-85712508D01*
X204358318Y-85712507D01*
X204358313Y-85712507D01*
X204144702Y-85693819D01*
X204144698Y-85693819D01*
X203931086Y-85712507D01*
X203931075Y-85712509D01*
X203723960Y-85768005D01*
X203723951Y-85768009D01*
X203529610Y-85858631D01*
X203529608Y-85858632D01*
X203353959Y-85981623D01*
X203353953Y-85981628D01*
X203202328Y-86133253D01*
X203202323Y-86133259D01*
X203079335Y-86308905D01*
X203079334Y-86308907D01*
X203079332Y-86308910D01*
X203063566Y-86342721D01*
X203041103Y-86390891D01*
X202994930Y-86443330D01*
X202927736Y-86462481D01*
X202862749Y-86443479D01*
X202787523Y-86396211D01*
X202617254Y-86336631D01*
X202617249Y-86336630D01*
X202438004Y-86316435D01*
X202437996Y-86316435D01*
X202258750Y-86336630D01*
X202258737Y-86336633D01*
X202157435Y-86372081D01*
X202087656Y-86375643D01*
X202028799Y-86342721D01*
X201924262Y-86238184D01*
X201771523Y-86142211D01*
X201601254Y-86082631D01*
X201601249Y-86082630D01*
X201422004Y-86062435D01*
X201421996Y-86062435D01*
X201242750Y-86082630D01*
X201242745Y-86082631D01*
X201072476Y-86142211D01*
X200919737Y-86238184D01*
X200792184Y-86365737D01*
X200696211Y-86518476D01*
X200636631Y-86688745D01*
X200636630Y-86688750D01*
X200616435Y-86867996D01*
X200616435Y-86868003D01*
X200636630Y-87047249D01*
X200636631Y-87047254D01*
X200696211Y-87217523D01*
X200776572Y-87345416D01*
X200792184Y-87370262D01*
X200919738Y-87497816D01*
X200978259Y-87534587D01*
X201059919Y-87585898D01*
X201072478Y-87593789D01*
X201159565Y-87624262D01*
X201242745Y-87653368D01*
X201242750Y-87653369D01*
X201421996Y-87673565D01*
X201422000Y-87673565D01*
X201422004Y-87673565D01*
X201601249Y-87653369D01*
X201601252Y-87653368D01*
X201601255Y-87653368D01*
X201601256Y-87653367D01*
X201601259Y-87653367D01*
X201683243Y-87624679D01*
X201753022Y-87621116D01*
X201813650Y-87655845D01*
X201845877Y-87717838D01*
X201841241Y-87782674D01*
X201779632Y-87958742D01*
X201779630Y-87958750D01*
X201759435Y-88137996D01*
X201759435Y-88138003D01*
X201779630Y-88317249D01*
X201779631Y-88317254D01*
X201839211Y-88487523D01*
X201859904Y-88520455D01*
X201935184Y-88640262D01*
X202062738Y-88767816D01*
X202215478Y-88863789D01*
X202304148Y-88894816D01*
X202385745Y-88923368D01*
X202385750Y-88923369D01*
X202564996Y-88943565D01*
X202565000Y-88943565D01*
X202565004Y-88943565D01*
X202744249Y-88923369D01*
X202744252Y-88923368D01*
X202744255Y-88923368D01*
X202914522Y-88863789D01*
X203067262Y-88767816D01*
X203194816Y-88640262D01*
X203290789Y-88487522D01*
X203350368Y-88317255D01*
X203350369Y-88317249D01*
X203370565Y-88138003D01*
X203370565Y-88137996D01*
X203368825Y-88122553D01*
X203380880Y-88053731D01*
X203428229Y-88002352D01*
X203495839Y-87984728D01*
X203544447Y-87996287D01*
X203723953Y-88079992D01*
X203931081Y-88135492D01*
X204083665Y-88148841D01*
X204144698Y-88154181D01*
X204144700Y-88154181D01*
X204144702Y-88154181D01*
X204198104Y-88149508D01*
X204358319Y-88135492D01*
X204565447Y-88079992D01*
X204759791Y-87989368D01*
X204935445Y-87866373D01*
X205087073Y-87714745D01*
X205210068Y-87539091D01*
X205300692Y-87344747D01*
X205356192Y-87137619D01*
X205374881Y-86924000D01*
X205356192Y-86710381D01*
X205324445Y-86591900D01*
X205326108Y-86522051D01*
X205365270Y-86464188D01*
X205429499Y-86436684D01*
X205498401Y-86448270D01*
X205545226Y-86487878D01*
X205624902Y-86599767D01*
X205659215Y-86647953D01*
X205659220Y-86647959D01*
X205811320Y-86792985D01*
X205906278Y-86854011D01*
X205988128Y-86906613D01*
X206183243Y-86984725D01*
X206286428Y-87004612D01*
X206389614Y-87024500D01*
X206389615Y-87024500D01*
X207247119Y-87024500D01*
X207247125Y-87024500D01*
X207403918Y-87009528D01*
X207605575Y-86950316D01*
X207792382Y-86854011D01*
X207957586Y-86724092D01*
X208061787Y-86603837D01*
X208120565Y-86566064D01*
X208190435Y-86566064D01*
X208249213Y-86603838D01*
X208278238Y-86667394D01*
X208279500Y-86685041D01*
X208279500Y-92162254D01*
X208259815Y-92229293D01*
X208207011Y-92275048D01*
X208137853Y-92284992D01*
X208074297Y-92255967D01*
X208054493Y-92234182D01*
X208030186Y-92200048D01*
X208030179Y-92200040D01*
X207878079Y-92055014D01*
X207701274Y-91941388D01*
X207681348Y-91933411D01*
X207592104Y-91897683D01*
X207506155Y-91863274D01*
X207299786Y-91823500D01*
X207299785Y-91823500D01*
X206442275Y-91823500D01*
X206285481Y-91838472D01*
X206285482Y-91838472D01*
X206285478Y-91838473D01*
X206083827Y-91897683D01*
X205897013Y-91993991D01*
X205731816Y-92123905D01*
X205731812Y-92123909D01*
X205594180Y-92282745D01*
X205548462Y-92361930D01*
X205497894Y-92410145D01*
X205429287Y-92423367D01*
X205364423Y-92397399D01*
X205323895Y-92340485D01*
X205320571Y-92270694D01*
X205321288Y-92267880D01*
X205356192Y-92137619D01*
X205374881Y-91924000D01*
X205356192Y-91710381D01*
X205300692Y-91503253D01*
X205210068Y-91308910D01*
X205199402Y-91293678D01*
X205087076Y-91133259D01*
X205087071Y-91133253D01*
X204935445Y-90981627D01*
X204759790Y-90858631D01*
X204644783Y-90805003D01*
X204565447Y-90768008D01*
X204565443Y-90768007D01*
X204565439Y-90768005D01*
X204358324Y-90712509D01*
X204358320Y-90712508D01*
X204358319Y-90712508D01*
X204358318Y-90712507D01*
X204358313Y-90712507D01*
X204144702Y-90693819D01*
X204144698Y-90693819D01*
X203931086Y-90712507D01*
X203931075Y-90712509D01*
X203723960Y-90768005D01*
X203723951Y-90768009D01*
X203529610Y-90858631D01*
X203529608Y-90858632D01*
X203353959Y-90981623D01*
X203353953Y-90981628D01*
X203202328Y-91133253D01*
X203202323Y-91133259D01*
X203079332Y-91308908D01*
X203079331Y-91308910D01*
X202988709Y-91503251D01*
X202988705Y-91503260D01*
X202933209Y-91710375D01*
X202933207Y-91710386D01*
X202914518Y-91923998D01*
X202914518Y-91924001D01*
X202933207Y-92137613D01*
X202933209Y-92137624D01*
X202988705Y-92344739D01*
X202988707Y-92344743D01*
X202988708Y-92344747D01*
X203013260Y-92397399D01*
X203079331Y-92539090D01*
X203166352Y-92663368D01*
X203202327Y-92714745D01*
X203353955Y-92866373D01*
X203529609Y-92989368D01*
X203723953Y-93079992D01*
X203723959Y-93079993D01*
X203723960Y-93079994D01*
X203745688Y-93085816D01*
X203931081Y-93135492D01*
X204083666Y-93148841D01*
X204144698Y-93154181D01*
X204144700Y-93154181D01*
X204144702Y-93154181D01*
X204198104Y-93149508D01*
X204358319Y-93135492D01*
X204565447Y-93079992D01*
X204759791Y-92989368D01*
X204935445Y-92866373D01*
X205087073Y-92714745D01*
X205201948Y-92550687D01*
X205256523Y-92507065D01*
X205326022Y-92499872D01*
X205388376Y-92531394D01*
X205423790Y-92591624D01*
X205421175Y-92657487D01*
X205421749Y-92657627D01*
X205421057Y-92660479D01*
X205421019Y-92661439D01*
X205420703Y-92662364D01*
X205420357Y-92663361D01*
X205420356Y-92663366D01*
X205420356Y-92663367D01*
X205391169Y-92866373D01*
X205390446Y-92871401D01*
X205400445Y-93081327D01*
X205449996Y-93285578D01*
X205449998Y-93285582D01*
X205537298Y-93476743D01*
X205537301Y-93476748D01*
X205537302Y-93476750D01*
X205537304Y-93476753D01*
X205600327Y-93565256D01*
X205659215Y-93647953D01*
X205659220Y-93647959D01*
X205811320Y-93792985D01*
X205906278Y-93854011D01*
X205988128Y-93906613D01*
X206183243Y-93984725D01*
X206286428Y-94004612D01*
X206389614Y-94024500D01*
X206389615Y-94024500D01*
X207247119Y-94024500D01*
X207247125Y-94024500D01*
X207403918Y-94009528D01*
X207605575Y-93950316D01*
X207792382Y-93854011D01*
X207957586Y-93724092D01*
X208061787Y-93603837D01*
X208120565Y-93566064D01*
X208190435Y-93566064D01*
X208249213Y-93603838D01*
X208278238Y-93667394D01*
X208279500Y-93685041D01*
X208279500Y-98324691D01*
X208259815Y-98391730D01*
X208207011Y-98437485D01*
X208137853Y-98447429D01*
X208074297Y-98418404D01*
X208037569Y-98363009D01*
X207976340Y-98174568D01*
X207976338Y-98174563D01*
X207910352Y-98034337D01*
X207847733Y-97901264D01*
X207819828Y-97857293D01*
X207685888Y-97646236D01*
X207681147Y-97640505D01*
X207493349Y-97413496D01*
X207419277Y-97343938D01*
X207273163Y-97206727D01*
X207273153Y-97206719D01*
X207028806Y-97029191D01*
X207028799Y-97029186D01*
X207028795Y-97029184D01*
X206764104Y-96883668D01*
X206764101Y-96883666D01*
X206764096Y-96883664D01*
X206764095Y-96883663D01*
X206483265Y-96772475D01*
X206483262Y-96772474D01*
X206190695Y-96697357D01*
X205891036Y-96659500D01*
X205891027Y-96659500D01*
X205588973Y-96659500D01*
X205588963Y-96659500D01*
X205289304Y-96697357D01*
X204996737Y-96772474D01*
X204996734Y-96772475D01*
X204715904Y-96883663D01*
X204715903Y-96883664D01*
X204451205Y-97029184D01*
X204451193Y-97029191D01*
X204206846Y-97206719D01*
X204206836Y-97206727D01*
X203986652Y-97413494D01*
X203794111Y-97646236D01*
X203632268Y-97901261D01*
X203632265Y-97901267D01*
X203503661Y-98174563D01*
X203503659Y-98174568D01*
X203410320Y-98461835D01*
X203353719Y-98758546D01*
X203353718Y-98758553D01*
X203334754Y-99059994D01*
X203334754Y-99060005D01*
X203353718Y-99361446D01*
X203353719Y-99361453D01*
X203410320Y-99658164D01*
X203503659Y-99945431D01*
X203503661Y-99945436D01*
X203632265Y-100218732D01*
X203632268Y-100218738D01*
X203794111Y-100473763D01*
X203986652Y-100706505D01*
X204206836Y-100913272D01*
X204206846Y-100913280D01*
X204451193Y-101090808D01*
X204451198Y-101090810D01*
X204451205Y-101090816D01*
X204715896Y-101236332D01*
X204715901Y-101236334D01*
X204715903Y-101236335D01*
X204715904Y-101236336D01*
X204996734Y-101347524D01*
X204996737Y-101347525D01*
X205027393Y-101355396D01*
X205087431Y-101391134D01*
X205118617Y-101453657D01*
X205111049Y-101523116D01*
X205067131Y-101577457D01*
X205000805Y-101599427D01*
X204996556Y-101599500D01*
X168510444Y-101599500D01*
X168443405Y-101579815D01*
X168397650Y-101527011D01*
X168387706Y-101457853D01*
X168416731Y-101394297D01*
X168475509Y-101356523D01*
X168479607Y-101355396D01*
X168510262Y-101347525D01*
X168510265Y-101347524D01*
X168791095Y-101236336D01*
X168791096Y-101236335D01*
X168791094Y-101236335D01*
X168791104Y-101236332D01*
X169055795Y-101090816D01*
X169300162Y-100913274D01*
X169520349Y-100706504D01*
X169712885Y-100473768D01*
X169874733Y-100218736D01*
X170003341Y-99945430D01*
X170096681Y-99658160D01*
X170112188Y-99576870D01*
X194266500Y-99576870D01*
X194266501Y-99576876D01*
X194272908Y-99636483D01*
X194323202Y-99771328D01*
X194323206Y-99771335D01*
X194409452Y-99886544D01*
X194409455Y-99886547D01*
X194524664Y-99972793D01*
X194524671Y-99972797D01*
X194659517Y-100023091D01*
X194659516Y-100023091D01*
X194666444Y-100023835D01*
X194719127Y-100029500D01*
X196514872Y-100029499D01*
X196574483Y-100023091D01*
X196709331Y-99972796D01*
X196824546Y-99886546D01*
X196910796Y-99771331D01*
X196959810Y-99639916D01*
X197001681Y-99583984D01*
X197067145Y-99559566D01*
X197135418Y-99574417D01*
X197163672Y-99595568D01*
X197285599Y-99717495D01*
X197382384Y-99785265D01*
X197479165Y-99853032D01*
X197479167Y-99853033D01*
X197479170Y-99853035D01*
X197693337Y-99952903D01*
X197921592Y-100014063D01*
X198098034Y-100029500D01*
X198156999Y-100034659D01*
X198157000Y-100034659D01*
X198157001Y-100034659D01*
X198215966Y-100029500D01*
X198392408Y-100014063D01*
X198620663Y-99952903D01*
X198834830Y-99853035D01*
X199028401Y-99717495D01*
X199195495Y-99550401D01*
X199331035Y-99356830D01*
X199430903Y-99142663D01*
X199492063Y-98914408D01*
X199512659Y-98679000D01*
X199492063Y-98443592D01*
X199430903Y-98215337D01*
X199331035Y-98001171D01*
X199302603Y-97960565D01*
X199195494Y-97807597D01*
X199028402Y-97640506D01*
X199028395Y-97640501D01*
X199008812Y-97626789D01*
X198951518Y-97586671D01*
X198834834Y-97504967D01*
X198834830Y-97504965D01*
X198823728Y-97499788D01*
X198620663Y-97405097D01*
X198620659Y-97405096D01*
X198620655Y-97405094D01*
X198392413Y-97343938D01*
X198392403Y-97343936D01*
X198157001Y-97323341D01*
X198156999Y-97323341D01*
X197921596Y-97343936D01*
X197921586Y-97343938D01*
X197693344Y-97405094D01*
X197693335Y-97405098D01*
X197479171Y-97504964D01*
X197479169Y-97504965D01*
X197285600Y-97640503D01*
X197163673Y-97762430D01*
X197102350Y-97795914D01*
X197032658Y-97790930D01*
X196976725Y-97749058D01*
X196959810Y-97718081D01*
X196910797Y-97586671D01*
X196910793Y-97586664D01*
X196824547Y-97471455D01*
X196824544Y-97471452D01*
X196709335Y-97385206D01*
X196709328Y-97385202D01*
X196574482Y-97334908D01*
X196574483Y-97334908D01*
X196514883Y-97328501D01*
X196514881Y-97328500D01*
X196514873Y-97328500D01*
X196514864Y-97328500D01*
X194719129Y-97328500D01*
X194719123Y-97328501D01*
X194659516Y-97334908D01*
X194524671Y-97385202D01*
X194524664Y-97385206D01*
X194409455Y-97471452D01*
X194409452Y-97471455D01*
X194323206Y-97586664D01*
X194323202Y-97586671D01*
X194272908Y-97721517D01*
X194266501Y-97781116D01*
X194266500Y-97781135D01*
X194266500Y-99576870D01*
X170112188Y-99576870D01*
X170153280Y-99361457D01*
X170155658Y-99323664D01*
X170172246Y-99060005D01*
X170172246Y-99059994D01*
X170153281Y-98758553D01*
X170153280Y-98758546D01*
X170153280Y-98758543D01*
X170096681Y-98461840D01*
X170003341Y-98174570D01*
X169874733Y-97901264D01*
X169846828Y-97857293D01*
X169712888Y-97646236D01*
X169708147Y-97640505D01*
X169520349Y-97413496D01*
X169446277Y-97343938D01*
X169300163Y-97206727D01*
X169300153Y-97206719D01*
X169055806Y-97029191D01*
X169055799Y-97029186D01*
X169055795Y-97029184D01*
X168791104Y-96883668D01*
X168791101Y-96883666D01*
X168791096Y-96883664D01*
X168791095Y-96883663D01*
X168514124Y-96774003D01*
X173565435Y-96774003D01*
X173585630Y-96953249D01*
X173585631Y-96953254D01*
X173645211Y-97123523D01*
X173697492Y-97206727D01*
X173741184Y-97276262D01*
X173868738Y-97403816D01*
X174021478Y-97499789D01*
X174110148Y-97530816D01*
X174191745Y-97559368D01*
X174191750Y-97559369D01*
X174370996Y-97579565D01*
X174371000Y-97579565D01*
X174371004Y-97579565D01*
X174550249Y-97559369D01*
X174550252Y-97559368D01*
X174550255Y-97559368D01*
X174720522Y-97499789D01*
X174873262Y-97403816D01*
X175000816Y-97276262D01*
X175096789Y-97123522D01*
X175156368Y-96953255D01*
X175156369Y-96953249D01*
X175176565Y-96774003D01*
X175176565Y-96773996D01*
X175162256Y-96647003D01*
X177248435Y-96647003D01*
X177268630Y-96826249D01*
X177268631Y-96826254D01*
X177328211Y-96996523D01*
X177348738Y-97029191D01*
X177424184Y-97149262D01*
X177551738Y-97276816D01*
X177704478Y-97372789D01*
X177796809Y-97405097D01*
X177874745Y-97432368D01*
X177874750Y-97432369D01*
X178053996Y-97452565D01*
X178054000Y-97452565D01*
X178054004Y-97452565D01*
X178233249Y-97432369D01*
X178233252Y-97432368D01*
X178233255Y-97432368D01*
X178403522Y-97372789D01*
X178556262Y-97276816D01*
X178678075Y-97155003D01*
X184106435Y-97155003D01*
X184126630Y-97334249D01*
X184126631Y-97334254D01*
X184186211Y-97504523D01*
X184271652Y-97640501D01*
X184282184Y-97657262D01*
X184409738Y-97784816D01*
X184562478Y-97880789D01*
X184621001Y-97901267D01*
X184732745Y-97940368D01*
X184732750Y-97940369D01*
X184911996Y-97960565D01*
X184912000Y-97960565D01*
X184912004Y-97960565D01*
X185091249Y-97940369D01*
X185091252Y-97940368D01*
X185091255Y-97940368D01*
X185261522Y-97880789D01*
X185414262Y-97784816D01*
X185541816Y-97657262D01*
X185637789Y-97504522D01*
X185697368Y-97334255D01*
X185697369Y-97334249D01*
X185717565Y-97155003D01*
X185717565Y-97154996D01*
X185697369Y-96975750D01*
X185697368Y-96975745D01*
X185671215Y-96901003D01*
X187789435Y-96901003D01*
X187809630Y-97080249D01*
X187809631Y-97080254D01*
X187869211Y-97250523D01*
X187953836Y-97385202D01*
X187965184Y-97403262D01*
X188092738Y-97530816D01*
X188245478Y-97626789D01*
X188332565Y-97657262D01*
X188415745Y-97686368D01*
X188415750Y-97686369D01*
X188594996Y-97706565D01*
X188595000Y-97706565D01*
X188595004Y-97706565D01*
X188774249Y-97686369D01*
X188774252Y-97686368D01*
X188774255Y-97686368D01*
X188944522Y-97626789D01*
X189097262Y-97530816D01*
X189224816Y-97403262D01*
X189320789Y-97250522D01*
X189380368Y-97080255D01*
X189380369Y-97080249D01*
X189400565Y-96901003D01*
X190329435Y-96901003D01*
X190349630Y-97080249D01*
X190349631Y-97080254D01*
X190409211Y-97250523D01*
X190493836Y-97385202D01*
X190505184Y-97403262D01*
X190632738Y-97530816D01*
X190785478Y-97626789D01*
X190872565Y-97657262D01*
X190955745Y-97686368D01*
X190955750Y-97686369D01*
X191134996Y-97706565D01*
X191135000Y-97706565D01*
X191135004Y-97706565D01*
X191314249Y-97686369D01*
X191314252Y-97686368D01*
X191314255Y-97686368D01*
X191484522Y-97626789D01*
X191637262Y-97530816D01*
X191764816Y-97403262D01*
X191860789Y-97250522D01*
X191920368Y-97080255D01*
X191920369Y-97080249D01*
X191940565Y-96901003D01*
X191940565Y-96900996D01*
X191920369Y-96721750D01*
X191920368Y-96721745D01*
X191911834Y-96697357D01*
X191860789Y-96551478D01*
X191844267Y-96525184D01*
X191783963Y-96429211D01*
X191764816Y-96398738D01*
X191637262Y-96271184D01*
X191580336Y-96235415D01*
X191484523Y-96175211D01*
X191314254Y-96115631D01*
X191314249Y-96115630D01*
X191135004Y-96095435D01*
X191134996Y-96095435D01*
X190955750Y-96115630D01*
X190955745Y-96115631D01*
X190785476Y-96175211D01*
X190632737Y-96271184D01*
X190505184Y-96398737D01*
X190409211Y-96551476D01*
X190349631Y-96721745D01*
X190349630Y-96721750D01*
X190329435Y-96900996D01*
X190329435Y-96901003D01*
X189400565Y-96901003D01*
X189400565Y-96900996D01*
X189380369Y-96721750D01*
X189380368Y-96721745D01*
X189371834Y-96697357D01*
X189320789Y-96551478D01*
X189304267Y-96525184D01*
X189243963Y-96429211D01*
X189224816Y-96398738D01*
X189097262Y-96271184D01*
X189040336Y-96235415D01*
X188944523Y-96175211D01*
X188774254Y-96115631D01*
X188774249Y-96115630D01*
X188595004Y-96095435D01*
X188594996Y-96095435D01*
X188415750Y-96115630D01*
X188415745Y-96115631D01*
X188245476Y-96175211D01*
X188092737Y-96271184D01*
X187965184Y-96398737D01*
X187869211Y-96551476D01*
X187809631Y-96721745D01*
X187809630Y-96721750D01*
X187789435Y-96900996D01*
X187789435Y-96901003D01*
X185671215Y-96901003D01*
X185637789Y-96805478D01*
X185541816Y-96652738D01*
X185414262Y-96525184D01*
X185414261Y-96525184D01*
X185261523Y-96429211D01*
X185091254Y-96369631D01*
X185091249Y-96369630D01*
X184912004Y-96349435D01*
X184911996Y-96349435D01*
X184732750Y-96369630D01*
X184732745Y-96369631D01*
X184562476Y-96429211D01*
X184409737Y-96525184D01*
X184282184Y-96652737D01*
X184186211Y-96805476D01*
X184126631Y-96975745D01*
X184126630Y-96975750D01*
X184106435Y-97154996D01*
X184106435Y-97155003D01*
X178678075Y-97155003D01*
X178683816Y-97149262D01*
X178779789Y-96996522D01*
X178839368Y-96826255D01*
X178841709Y-96805478D01*
X178859565Y-96647003D01*
X178859565Y-96646996D01*
X178839369Y-96467750D01*
X178839368Y-96467745D01*
X178824228Y-96424478D01*
X178779789Y-96297478D01*
X178763615Y-96271738D01*
X178683815Y-96144737D01*
X178556262Y-96017184D01*
X178403523Y-95921211D01*
X178233254Y-95861631D01*
X178233249Y-95861630D01*
X178054004Y-95841435D01*
X178053996Y-95841435D01*
X177874750Y-95861630D01*
X177874745Y-95861631D01*
X177704476Y-95921211D01*
X177551737Y-96017184D01*
X177424184Y-96144737D01*
X177328211Y-96297476D01*
X177268631Y-96467745D01*
X177268630Y-96467750D01*
X177248435Y-96646996D01*
X177248435Y-96647003D01*
X175162256Y-96647003D01*
X175156369Y-96594750D01*
X175156368Y-96594745D01*
X175141228Y-96551478D01*
X175096789Y-96424478D01*
X175080615Y-96398738D01*
X175038297Y-96331389D01*
X175000816Y-96271738D01*
X174873262Y-96144184D01*
X174827822Y-96115632D01*
X174720523Y-96048211D01*
X174550254Y-95988631D01*
X174550249Y-95988630D01*
X174371004Y-95968435D01*
X174370996Y-95968435D01*
X174191750Y-95988630D01*
X174191745Y-95988631D01*
X174021476Y-96048211D01*
X173868737Y-96144184D01*
X173741184Y-96271737D01*
X173645211Y-96424476D01*
X173585631Y-96594745D01*
X173585630Y-96594750D01*
X173565435Y-96773996D01*
X173565435Y-96774003D01*
X168514124Y-96774003D01*
X168510265Y-96772475D01*
X168510262Y-96772474D01*
X168217695Y-96697357D01*
X167918036Y-96659500D01*
X167918027Y-96659500D01*
X167615973Y-96659500D01*
X167615963Y-96659500D01*
X167316304Y-96697357D01*
X167023737Y-96772474D01*
X167023734Y-96772475D01*
X166742904Y-96883663D01*
X166742903Y-96883664D01*
X166478205Y-97029184D01*
X166478193Y-97029191D01*
X166233846Y-97206719D01*
X166233836Y-97206727D01*
X166013652Y-97413494D01*
X165821111Y-97646236D01*
X165659268Y-97901261D01*
X165659265Y-97901267D01*
X165530661Y-98174563D01*
X165530659Y-98174568D01*
X165437320Y-98461835D01*
X165380719Y-98758546D01*
X165380718Y-98758553D01*
X165361754Y-99059994D01*
X165361754Y-99060005D01*
X165380718Y-99361446D01*
X165380719Y-99361453D01*
X165437320Y-99658164D01*
X165530659Y-99945431D01*
X165530661Y-99945436D01*
X165659265Y-100218732D01*
X165659268Y-100218738D01*
X165821111Y-100473763D01*
X166013652Y-100706505D01*
X166233836Y-100913272D01*
X166233846Y-100913280D01*
X166478193Y-101090808D01*
X166478198Y-101090810D01*
X166478205Y-101090816D01*
X166742896Y-101236332D01*
X166742901Y-101236334D01*
X166742903Y-101236335D01*
X166742904Y-101236336D01*
X167023734Y-101347524D01*
X167023737Y-101347525D01*
X167054393Y-101355396D01*
X167114431Y-101391134D01*
X167145617Y-101453657D01*
X167138049Y-101523116D01*
X167094131Y-101577457D01*
X167027805Y-101599427D01*
X167023556Y-101599500D01*
X165224500Y-101599500D01*
X165157461Y-101579815D01*
X165111706Y-101527011D01*
X165100500Y-101475500D01*
X165100500Y-95605603D01*
X193809235Y-95605603D01*
X193829430Y-95784849D01*
X193829431Y-95784854D01*
X193889011Y-95955123D01*
X193977176Y-96095435D01*
X193984984Y-96107862D01*
X194112538Y-96235416D01*
X194265278Y-96331389D01*
X194435545Y-96390967D01*
X194435545Y-96390968D01*
X194435550Y-96390969D01*
X194614796Y-96411165D01*
X194614800Y-96411165D01*
X194614804Y-96411165D01*
X194794049Y-96390969D01*
X194794052Y-96390968D01*
X194794055Y-96390968D01*
X194964322Y-96331389D01*
X195117062Y-96235416D01*
X195244616Y-96107862D01*
X195340589Y-95955122D01*
X195400168Y-95784855D01*
X195400169Y-95784849D01*
X195420365Y-95605603D01*
X195420365Y-95605596D01*
X195400169Y-95426350D01*
X195400168Y-95426345D01*
X195340588Y-95256076D01*
X195336772Y-95250003D01*
X201251435Y-95250003D01*
X201271630Y-95429249D01*
X201271631Y-95429254D01*
X201331211Y-95599523D01*
X201427183Y-95752261D01*
X201427184Y-95752262D01*
X201554738Y-95879816D01*
X201620618Y-95921211D01*
X201674586Y-95955122D01*
X201707478Y-95975789D01*
X201825778Y-96017184D01*
X201877745Y-96035368D01*
X201877750Y-96035369D01*
X202056996Y-96055565D01*
X202057000Y-96055565D01*
X202057004Y-96055565D01*
X202236249Y-96035369D01*
X202236252Y-96035368D01*
X202236255Y-96035368D01*
X202406522Y-95975789D01*
X202559262Y-95879816D01*
X202686816Y-95752262D01*
X202782789Y-95599522D01*
X202842368Y-95429255D01*
X202842369Y-95429249D01*
X202862565Y-95250003D01*
X202862565Y-95249996D01*
X202842369Y-95070750D01*
X202842368Y-95070745D01*
X202782788Y-94900476D01*
X202686815Y-94747737D01*
X202559262Y-94620184D01*
X202406523Y-94524211D01*
X202236254Y-94464631D01*
X202236249Y-94464630D01*
X202057004Y-94444435D01*
X202056996Y-94444435D01*
X201877750Y-94464630D01*
X201877745Y-94464631D01*
X201707476Y-94524211D01*
X201554737Y-94620184D01*
X201427184Y-94747737D01*
X201331211Y-94900476D01*
X201271631Y-95070745D01*
X201271630Y-95070750D01*
X201251435Y-95249996D01*
X201251435Y-95250003D01*
X195336772Y-95250003D01*
X195244615Y-95103337D01*
X195117062Y-94975784D01*
X194964323Y-94879811D01*
X194794054Y-94820231D01*
X194794049Y-94820230D01*
X194614804Y-94800035D01*
X194614796Y-94800035D01*
X194435550Y-94820230D01*
X194435545Y-94820231D01*
X194265276Y-94879811D01*
X194112537Y-94975784D01*
X193984984Y-95103337D01*
X193889011Y-95256076D01*
X193829431Y-95426345D01*
X193829430Y-95426350D01*
X193809235Y-95605596D01*
X193809235Y-95605603D01*
X165100500Y-95605603D01*
X165100500Y-93294200D01*
X165623941Y-93294200D01*
X165644536Y-93529603D01*
X165644538Y-93529613D01*
X165705694Y-93757855D01*
X165705696Y-93757859D01*
X165705697Y-93757863D01*
X165795440Y-93950316D01*
X165805565Y-93972030D01*
X165805567Y-93972034D01*
X165913881Y-94126721D01*
X165941105Y-94165601D01*
X166108199Y-94332695D01*
X166204984Y-94400464D01*
X166301765Y-94468232D01*
X166301767Y-94468233D01*
X166301770Y-94468235D01*
X166515937Y-94568103D01*
X166744192Y-94629263D01*
X166932518Y-94645739D01*
X166979599Y-94649859D01*
X166979600Y-94649859D01*
X166979601Y-94649859D01*
X167018834Y-94646426D01*
X167215008Y-94629263D01*
X167443263Y-94568103D01*
X167657430Y-94468235D01*
X167851001Y-94332695D01*
X168018095Y-94165601D01*
X168153635Y-93972030D01*
X168253503Y-93757863D01*
X168309681Y-93548203D01*
X193529835Y-93548203D01*
X193550030Y-93727449D01*
X193550031Y-93727454D01*
X193609611Y-93897723D01*
X193679862Y-94009526D01*
X193705584Y-94050462D01*
X193833138Y-94178016D01*
X193985878Y-94273989D01*
X194153644Y-94332693D01*
X194156145Y-94333568D01*
X194156150Y-94333569D01*
X194335396Y-94353765D01*
X194335400Y-94353765D01*
X194335404Y-94353765D01*
X194514649Y-94333569D01*
X194514652Y-94333568D01*
X194514655Y-94333568D01*
X194684922Y-94273989D01*
X194837662Y-94178016D01*
X194965216Y-94050462D01*
X195061189Y-93897722D01*
X195120768Y-93727455D01*
X195125547Y-93685041D01*
X195140965Y-93548203D01*
X195140965Y-93548196D01*
X195120769Y-93368950D01*
X195120768Y-93368945D01*
X195061189Y-93198678D01*
X194965216Y-93045938D01*
X194837662Y-92918384D01*
X194789954Y-92888407D01*
X194684923Y-92822411D01*
X194514654Y-92762831D01*
X194514649Y-92762830D01*
X194335404Y-92742635D01*
X194335396Y-92742635D01*
X194156150Y-92762830D01*
X194156145Y-92762831D01*
X193985876Y-92822411D01*
X193833137Y-92918384D01*
X193705584Y-93045937D01*
X193609611Y-93198676D01*
X193550031Y-93368945D01*
X193550030Y-93368950D01*
X193529835Y-93548196D01*
X193529835Y-93548203D01*
X168309681Y-93548203D01*
X168314663Y-93529608D01*
X168335259Y-93294200D01*
X168334805Y-93289016D01*
X168326902Y-93198678D01*
X168314663Y-93058792D01*
X168253503Y-92830537D01*
X168173608Y-92659203D01*
X186138435Y-92659203D01*
X186158630Y-92838449D01*
X186158631Y-92838454D01*
X186218211Y-93008723D01*
X186266652Y-93085816D01*
X186314184Y-93161462D01*
X186441738Y-93289016D01*
X186532080Y-93345782D01*
X186591700Y-93383244D01*
X186594478Y-93384989D01*
X186764745Y-93444567D01*
X186764745Y-93444568D01*
X186764750Y-93444569D01*
X186943996Y-93464765D01*
X186944000Y-93464765D01*
X186944004Y-93464765D01*
X187123249Y-93444569D01*
X187123252Y-93444568D01*
X187123255Y-93444568D01*
X187293522Y-93384989D01*
X187446262Y-93289016D01*
X187573816Y-93161462D01*
X187669789Y-93008722D01*
X187729368Y-92838455D01*
X187729369Y-92838449D01*
X187749565Y-92659203D01*
X187749565Y-92659196D01*
X187729369Y-92479950D01*
X187729368Y-92479945D01*
X187718155Y-92447900D01*
X187669789Y-92309678D01*
X187664256Y-92300873D01*
X187598525Y-92196262D01*
X187573816Y-92156938D01*
X187446262Y-92029384D01*
X187446261Y-92029383D01*
X187293523Y-91933411D01*
X187123254Y-91873831D01*
X187123249Y-91873830D01*
X186944004Y-91853635D01*
X186943996Y-91853635D01*
X186764750Y-91873830D01*
X186764745Y-91873831D01*
X186594476Y-91933411D01*
X186441737Y-92029384D01*
X186314184Y-92156937D01*
X186218211Y-92309676D01*
X186158631Y-92479945D01*
X186158630Y-92479950D01*
X186138435Y-92659196D01*
X186138435Y-92659203D01*
X168173608Y-92659203D01*
X168153635Y-92616371D01*
X168107644Y-92550689D01*
X168018096Y-92422800D01*
X167957226Y-92361930D01*
X167896167Y-92300871D01*
X167862684Y-92239551D01*
X167867668Y-92169859D01*
X167909539Y-92113925D01*
X167940515Y-92097010D01*
X168071931Y-92047996D01*
X168187146Y-91961746D01*
X168273396Y-91846531D01*
X168323691Y-91711683D01*
X168330100Y-91652073D01*
X168330100Y-91643203D01*
X188475235Y-91643203D01*
X188495430Y-91822449D01*
X188495431Y-91822454D01*
X188555011Y-91992723D01*
X188646052Y-92137613D01*
X188650984Y-92145462D01*
X188778538Y-92273016D01*
X188781772Y-92275048D01*
X188920043Y-92361930D01*
X188931278Y-92368989D01*
X189048895Y-92410145D01*
X189101545Y-92428568D01*
X189101550Y-92428569D01*
X189197959Y-92439431D01*
X189262374Y-92466497D01*
X189289071Y-92496679D01*
X189291610Y-92500720D01*
X189291611Y-92500722D01*
X189387584Y-92653462D01*
X189515138Y-92781016D01*
X189554139Y-92805522D01*
X189658984Y-92871401D01*
X189667878Y-92876989D01*
X189700509Y-92888407D01*
X189838145Y-92936568D01*
X189838150Y-92936569D01*
X190017396Y-92956765D01*
X190017400Y-92956765D01*
X190017404Y-92956765D01*
X190196646Y-92936569D01*
X190196645Y-92936569D01*
X190196655Y-92936568D01*
X190242008Y-92920697D01*
X190311787Y-92917136D01*
X190372414Y-92951864D01*
X190376831Y-92956909D01*
X190378184Y-92958261D01*
X190378184Y-92958262D01*
X190505738Y-93085816D01*
X190658478Y-93181789D01*
X190828744Y-93241367D01*
X190828745Y-93241368D01*
X190828750Y-93241369D01*
X191007996Y-93261565D01*
X191008000Y-93261565D01*
X191008004Y-93261565D01*
X191187249Y-93241369D01*
X191187252Y-93241368D01*
X191187255Y-93241368D01*
X191357522Y-93181789D01*
X191450027Y-93123663D01*
X191517264Y-93104663D01*
X191581973Y-93123664D01*
X191674475Y-93181788D01*
X191844745Y-93241368D01*
X191844750Y-93241369D01*
X192023996Y-93261565D01*
X192024000Y-93261565D01*
X192024004Y-93261565D01*
X192203249Y-93241369D01*
X192203252Y-93241368D01*
X192203255Y-93241368D01*
X192373522Y-93181789D01*
X192526262Y-93085816D01*
X192653816Y-92958262D01*
X192749789Y-92805522D01*
X192809368Y-92635255D01*
X192817574Y-92562424D01*
X192829565Y-92456003D01*
X192829565Y-92455996D01*
X192809369Y-92276750D01*
X192809368Y-92276745D01*
X192796353Y-92239551D01*
X192749789Y-92106478D01*
X192653816Y-91953738D01*
X192526262Y-91826184D01*
X192496266Y-91807336D01*
X192373523Y-91730211D01*
X192270047Y-91694003D01*
X195790435Y-91694003D01*
X195810630Y-91873249D01*
X195810631Y-91873254D01*
X195870211Y-92043523D01*
X195929332Y-92137613D01*
X195966184Y-92196262D01*
X196093738Y-92323816D01*
X196127051Y-92344748D01*
X196231129Y-92410145D01*
X196246478Y-92419789D01*
X196379962Y-92466497D01*
X196416745Y-92479368D01*
X196416750Y-92479369D01*
X196595996Y-92499565D01*
X196596000Y-92499565D01*
X196596004Y-92499565D01*
X196775249Y-92479369D01*
X196775252Y-92479368D01*
X196775255Y-92479368D01*
X196945522Y-92419789D01*
X197098262Y-92323816D01*
X197225816Y-92196262D01*
X197253006Y-92152988D01*
X197305341Y-92106698D01*
X197374394Y-92096050D01*
X197438243Y-92124425D01*
X197462993Y-92152987D01*
X197490184Y-92196262D01*
X197617738Y-92323816D01*
X197651051Y-92344748D01*
X197755129Y-92410145D01*
X197770478Y-92419789D01*
X197903962Y-92466497D01*
X197940745Y-92479368D01*
X197940750Y-92479369D01*
X198119996Y-92499565D01*
X198120000Y-92499565D01*
X198120004Y-92499565D01*
X198299249Y-92479369D01*
X198299252Y-92479368D01*
X198299255Y-92479368D01*
X198469522Y-92419789D01*
X198622262Y-92323816D01*
X198749816Y-92196262D01*
X198845789Y-92043522D01*
X198905368Y-91873255D01*
X198905369Y-91873249D01*
X198925565Y-91694003D01*
X198925565Y-91693996D01*
X198905369Y-91514750D01*
X198905368Y-91514745D01*
X198882000Y-91447963D01*
X198845789Y-91344478D01*
X198749816Y-91191738D01*
X198622262Y-91064184D01*
X198622262Y-91064183D01*
X198469523Y-90968211D01*
X198299254Y-90908631D01*
X198299249Y-90908630D01*
X198120004Y-90888435D01*
X198119996Y-90888435D01*
X197940750Y-90908630D01*
X197940745Y-90908631D01*
X197770476Y-90968211D01*
X197617737Y-91064184D01*
X197490184Y-91191737D01*
X197490182Y-91191740D01*
X197462993Y-91235011D01*
X197410658Y-91281302D01*
X197341605Y-91291949D01*
X197277756Y-91263574D01*
X197253007Y-91235011D01*
X197225817Y-91191740D01*
X197225815Y-91191737D01*
X197098262Y-91064184D01*
X196945523Y-90968211D01*
X196775254Y-90908631D01*
X196775249Y-90908630D01*
X196596004Y-90888435D01*
X196595996Y-90888435D01*
X196416750Y-90908630D01*
X196416745Y-90908631D01*
X196246476Y-90968211D01*
X196093737Y-91064184D01*
X195966184Y-91191737D01*
X195870211Y-91344476D01*
X195810631Y-91514745D01*
X195810630Y-91514750D01*
X195790435Y-91693996D01*
X195790435Y-91694003D01*
X192270047Y-91694003D01*
X192203254Y-91670631D01*
X192203249Y-91670630D01*
X192024004Y-91650435D01*
X192023996Y-91650435D01*
X191844750Y-91670630D01*
X191844745Y-91670631D01*
X191674476Y-91730211D01*
X191581972Y-91788336D01*
X191514735Y-91807336D01*
X191450028Y-91788336D01*
X191357523Y-91730211D01*
X191187254Y-91670631D01*
X191187249Y-91670630D01*
X191008004Y-91650435D01*
X191007996Y-91650435D01*
X190828746Y-91670631D01*
X190783386Y-91686502D01*
X190713607Y-91690061D01*
X190652981Y-91655331D01*
X190648565Y-91650287D01*
X190519662Y-91521384D01*
X190366921Y-91425410D01*
X190196649Y-91365830D01*
X190100240Y-91354968D01*
X190035826Y-91327902D01*
X190009129Y-91297720D01*
X189910615Y-91140937D01*
X189783062Y-91013384D01*
X189630323Y-90917411D01*
X189460054Y-90857831D01*
X189460049Y-90857830D01*
X189280804Y-90837635D01*
X189280796Y-90837635D01*
X189101550Y-90857830D01*
X189101545Y-90857831D01*
X188931276Y-90917411D01*
X188778537Y-91013384D01*
X188650984Y-91140937D01*
X188555011Y-91293676D01*
X188495431Y-91463945D01*
X188495430Y-91463950D01*
X188475235Y-91643196D01*
X188475235Y-91643203D01*
X168330100Y-91643203D01*
X168330100Y-90805003D01*
X194139435Y-90805003D01*
X194159630Y-90984249D01*
X194159631Y-90984254D01*
X194219211Y-91154523D01*
X194287733Y-91263574D01*
X194315184Y-91307262D01*
X194442738Y-91434816D01*
X194533080Y-91491581D01*
X194551651Y-91503251D01*
X194595478Y-91530789D01*
X194765744Y-91590368D01*
X194765745Y-91590368D01*
X194765750Y-91590369D01*
X194944996Y-91610565D01*
X194945000Y-91610565D01*
X194945004Y-91610565D01*
X195124249Y-91590369D01*
X195124252Y-91590368D01*
X195124255Y-91590368D01*
X195294522Y-91530789D01*
X195447262Y-91434816D01*
X195574816Y-91307262D01*
X195670789Y-91154522D01*
X195730368Y-90984255D01*
X195732176Y-90968211D01*
X195750565Y-90805003D01*
X195750565Y-90804996D01*
X195730369Y-90625750D01*
X195730368Y-90625745D01*
X195670788Y-90455475D01*
X195572764Y-90299473D01*
X195553763Y-90232236D01*
X195572764Y-90167527D01*
X195670788Y-90011524D01*
X195725093Y-89856329D01*
X195730368Y-89841255D01*
X195730369Y-89841249D01*
X195750565Y-89662003D01*
X195750565Y-89661996D01*
X195730369Y-89482750D01*
X195730368Y-89482745D01*
X195722550Y-89460402D01*
X195670789Y-89312478D01*
X195641323Y-89265583D01*
X195622323Y-89198347D01*
X195641323Y-89133639D01*
X195696189Y-89046322D01*
X195755768Y-88876055D01*
X195757150Y-88863788D01*
X195775965Y-88696803D01*
X195775965Y-88696796D01*
X195755769Y-88517550D01*
X195755768Y-88517545D01*
X195730122Y-88444254D01*
X195696189Y-88347278D01*
X195692367Y-88341196D01*
X195600215Y-88194537D01*
X195472662Y-88066984D01*
X195319923Y-87971011D01*
X195149654Y-87911431D01*
X195149649Y-87911430D01*
X194970404Y-87891235D01*
X194970396Y-87891235D01*
X194791150Y-87911430D01*
X194791145Y-87911431D01*
X194620876Y-87971011D01*
X194468137Y-88066984D01*
X194340584Y-88194537D01*
X194244611Y-88347276D01*
X194185031Y-88517545D01*
X194185030Y-88517550D01*
X194164835Y-88696796D01*
X194164835Y-88696803D01*
X194185030Y-88876049D01*
X194185031Y-88876054D01*
X194244611Y-89046323D01*
X194274076Y-89093216D01*
X194293076Y-89160453D01*
X194274076Y-89225160D01*
X194219211Y-89312476D01*
X194159631Y-89482745D01*
X194159630Y-89482750D01*
X194139435Y-89661996D01*
X194139435Y-89662003D01*
X194159630Y-89841249D01*
X194159631Y-89841254D01*
X194219211Y-90011523D01*
X194317236Y-90167528D01*
X194336236Y-90234765D01*
X194317236Y-90299472D01*
X194219211Y-90455476D01*
X194159631Y-90625745D01*
X194159630Y-90625750D01*
X194139435Y-90804996D01*
X194139435Y-90805003D01*
X168330100Y-90805003D01*
X168330099Y-89856328D01*
X168323691Y-89796717D01*
X168273443Y-89661996D01*
X168273397Y-89661871D01*
X168273393Y-89661864D01*
X168187147Y-89546655D01*
X168187144Y-89546652D01*
X168071935Y-89460406D01*
X168071928Y-89460402D01*
X167937082Y-89410108D01*
X167937083Y-89410108D01*
X167877483Y-89403701D01*
X167877481Y-89403700D01*
X167877473Y-89403700D01*
X167877464Y-89403700D01*
X166081729Y-89403700D01*
X166081723Y-89403701D01*
X166022116Y-89410108D01*
X165887271Y-89460402D01*
X165887264Y-89460406D01*
X165772055Y-89546652D01*
X165772052Y-89546655D01*
X165685806Y-89661864D01*
X165685802Y-89661871D01*
X165635508Y-89796717D01*
X165630720Y-89841255D01*
X165629101Y-89856323D01*
X165629100Y-89856335D01*
X165629100Y-91652070D01*
X165629101Y-91652076D01*
X165635508Y-91711683D01*
X165685802Y-91846528D01*
X165685806Y-91846535D01*
X165772052Y-91961744D01*
X165772055Y-91961747D01*
X165887264Y-92047993D01*
X165887271Y-92047997D01*
X166018681Y-92097010D01*
X166074615Y-92138881D01*
X166099032Y-92204345D01*
X166084180Y-92272618D01*
X166063030Y-92300873D01*
X165941103Y-92422800D01*
X165805565Y-92616369D01*
X165805564Y-92616371D01*
X165705698Y-92830535D01*
X165705694Y-92830544D01*
X165644538Y-93058786D01*
X165644536Y-93058796D01*
X165623941Y-93294199D01*
X165623941Y-93294200D01*
X165100500Y-93294200D01*
X165100500Y-86715603D01*
X175013235Y-86715603D01*
X175033430Y-86894849D01*
X175033431Y-86894854D01*
X175093011Y-87065123D01*
X175138560Y-87137613D01*
X175188984Y-87217862D01*
X175316538Y-87345416D01*
X175469278Y-87441389D01*
X175600307Y-87487238D01*
X175639545Y-87500968D01*
X175639550Y-87500969D01*
X175818796Y-87521165D01*
X175818800Y-87521165D01*
X175818802Y-87521165D01*
X175872914Y-87515067D01*
X175916498Y-87510157D01*
X175985320Y-87522211D01*
X176036699Y-87569560D01*
X176054324Y-87637170D01*
X176032598Y-87703576D01*
X176018064Y-87721058D01*
X175900183Y-87838939D01*
X175804211Y-87991676D01*
X175744631Y-88161945D01*
X175744630Y-88161950D01*
X175724435Y-88341196D01*
X175724435Y-88341203D01*
X175744630Y-88520449D01*
X175744631Y-88520454D01*
X175804211Y-88690723D01*
X175852652Y-88767816D01*
X175900184Y-88843462D01*
X176027738Y-88971016D01*
X176059205Y-88990788D01*
X176147586Y-89046322D01*
X176180478Y-89066989D01*
X176350745Y-89126567D01*
X176350745Y-89126568D01*
X176350750Y-89126569D01*
X176529996Y-89146765D01*
X176530000Y-89146765D01*
X176530004Y-89146765D01*
X176709249Y-89126569D01*
X176709252Y-89126568D01*
X176709255Y-89126568D01*
X176879522Y-89066989D01*
X177032262Y-88971016D01*
X177159816Y-88843462D01*
X177255789Y-88690722D01*
X177315368Y-88520455D01*
X177315369Y-88520449D01*
X177335565Y-88341203D01*
X177335565Y-88341196D01*
X177326980Y-88265003D01*
X185249435Y-88265003D01*
X185269630Y-88444249D01*
X185269631Y-88444254D01*
X185329211Y-88614523D01*
X185425184Y-88767262D01*
X185552738Y-88894816D01*
X185705478Y-88990789D01*
X185864182Y-89046322D01*
X185875745Y-89050368D01*
X185875750Y-89050369D01*
X186054996Y-89070565D01*
X186055000Y-89070565D01*
X186055004Y-89070565D01*
X186234249Y-89050369D01*
X186234252Y-89050368D01*
X186234255Y-89050368D01*
X186404522Y-88990789D01*
X186557262Y-88894816D01*
X186684816Y-88767262D01*
X186780789Y-88614522D01*
X186840368Y-88444255D01*
X186851979Y-88341203D01*
X186860565Y-88265003D01*
X188043435Y-88265003D01*
X188063630Y-88444249D01*
X188063631Y-88444254D01*
X188123211Y-88614523D01*
X188219184Y-88767261D01*
X188219184Y-88767262D01*
X188346738Y-88894816D01*
X188499478Y-88990789D01*
X188658182Y-89046322D01*
X188669745Y-89050368D01*
X188669750Y-89050369D01*
X188848996Y-89070565D01*
X188849000Y-89070565D01*
X188849004Y-89070565D01*
X189028249Y-89050369D01*
X189028252Y-89050368D01*
X189028255Y-89050368D01*
X189198522Y-88990789D01*
X189351262Y-88894816D01*
X189478816Y-88767262D01*
X189574789Y-88614522D01*
X189634368Y-88444255D01*
X189645979Y-88341203D01*
X189654565Y-88265003D01*
X189654565Y-88264996D01*
X189634369Y-88085750D01*
X189634368Y-88085745D01*
X189623166Y-88053731D01*
X189574789Y-87915478D01*
X189572245Y-87911430D01*
X189509226Y-87811135D01*
X189478816Y-87762738D01*
X189351262Y-87635184D01*
X189351261Y-87635183D01*
X189198523Y-87539211D01*
X189028254Y-87479631D01*
X189028249Y-87479630D01*
X188849004Y-87459435D01*
X188848996Y-87459435D01*
X188669750Y-87479630D01*
X188669745Y-87479631D01*
X188499476Y-87539211D01*
X188346737Y-87635184D01*
X188219184Y-87762737D01*
X188123211Y-87915476D01*
X188063631Y-88085745D01*
X188063630Y-88085750D01*
X188043435Y-88264996D01*
X188043435Y-88265003D01*
X186860565Y-88265003D01*
X186860565Y-88264996D01*
X186840369Y-88085750D01*
X186840368Y-88085745D01*
X186829166Y-88053731D01*
X186780789Y-87915478D01*
X186778245Y-87911430D01*
X186715226Y-87811135D01*
X186684816Y-87762738D01*
X186631636Y-87709557D01*
X186598151Y-87648235D01*
X186603135Y-87578543D01*
X186631636Y-87534196D01*
X186668017Y-87497815D01*
X186714281Y-87451551D01*
X186810254Y-87298811D01*
X186869833Y-87128544D01*
X186881333Y-87026478D01*
X186890030Y-86949292D01*
X186890030Y-86949285D01*
X186869834Y-86770039D01*
X186869833Y-86770034D01*
X186869832Y-86770034D01*
X186810254Y-86599767D01*
X186805311Y-86591901D01*
X186768132Y-86532731D01*
X186714281Y-86447027D01*
X186586727Y-86319473D01*
X186561246Y-86303462D01*
X186433988Y-86223500D01*
X186263719Y-86163920D01*
X186263714Y-86163919D01*
X186084469Y-86143724D01*
X186084461Y-86143724D01*
X185905215Y-86163919D01*
X185905210Y-86163920D01*
X185734941Y-86223500D01*
X185582202Y-86319473D01*
X185454649Y-86447026D01*
X185358676Y-86599765D01*
X185299096Y-86770034D01*
X185299095Y-86770039D01*
X185278900Y-86949285D01*
X185278900Y-86949292D01*
X185299095Y-87128538D01*
X185299096Y-87128543D01*
X185358676Y-87298812D01*
X185454649Y-87451551D01*
X185454650Y-87451552D01*
X185507829Y-87504732D01*
X185541313Y-87566055D01*
X185536328Y-87635747D01*
X185507829Y-87680093D01*
X185425183Y-87762739D01*
X185329211Y-87915476D01*
X185269631Y-88085745D01*
X185269630Y-88085750D01*
X185249435Y-88264996D01*
X185249435Y-88265003D01*
X177326980Y-88265003D01*
X177315369Y-88161950D01*
X177315368Y-88161945D01*
X177301584Y-88122553D01*
X177255789Y-87991678D01*
X177159816Y-87838938D01*
X177032262Y-87711384D01*
X176982463Y-87680093D01*
X176879523Y-87615411D01*
X176709254Y-87555831D01*
X176709249Y-87555830D01*
X176530004Y-87535635D01*
X176529996Y-87535635D01*
X176432300Y-87546642D01*
X176363478Y-87534587D01*
X176312099Y-87487238D01*
X176294475Y-87419627D01*
X176308748Y-87376003D01*
X179737635Y-87376003D01*
X179757830Y-87555249D01*
X179757831Y-87555254D01*
X179817411Y-87725523D01*
X179840795Y-87762738D01*
X179913384Y-87878262D01*
X180040938Y-88005816D01*
X180193678Y-88101789D01*
X180289990Y-88135490D01*
X180363945Y-88161368D01*
X180363950Y-88161369D01*
X180543196Y-88181565D01*
X180543200Y-88181565D01*
X180543204Y-88181565D01*
X180722449Y-88161369D01*
X180722452Y-88161368D01*
X180722455Y-88161368D01*
X180892722Y-88101789D01*
X181045462Y-88005816D01*
X181173016Y-87878262D01*
X181268989Y-87725522D01*
X181328568Y-87555255D01*
X181328569Y-87555249D01*
X181348765Y-87376003D01*
X181348765Y-87375996D01*
X181328569Y-87196750D01*
X181328568Y-87196745D01*
X181268988Y-87026476D01*
X181193671Y-86906611D01*
X181173016Y-86873738D01*
X181045462Y-86746184D01*
X180988482Y-86710381D01*
X180892723Y-86650211D01*
X180722454Y-86590631D01*
X180722449Y-86590630D01*
X180543204Y-86570435D01*
X180543196Y-86570435D01*
X180363950Y-86590630D01*
X180363945Y-86590631D01*
X180193676Y-86650211D01*
X180040937Y-86746184D01*
X179913384Y-86873737D01*
X179817411Y-87026476D01*
X179757831Y-87196745D01*
X179757830Y-87196750D01*
X179737635Y-87375996D01*
X179737635Y-87376003D01*
X176308748Y-87376003D01*
X176316202Y-87353222D01*
X176330726Y-87335751D01*
X176448616Y-87217862D01*
X176544589Y-87065122D01*
X176604168Y-86894855D01*
X176604169Y-86894849D01*
X176624365Y-86715603D01*
X176624365Y-86715596D01*
X176604169Y-86536350D01*
X176604168Y-86536345D01*
X176571673Y-86443479D01*
X176544589Y-86366078D01*
X176544375Y-86365738D01*
X176494006Y-86285576D01*
X176448616Y-86213338D01*
X176321062Y-86085784D01*
X176308193Y-86077698D01*
X176168323Y-85989811D01*
X175998054Y-85930231D01*
X175998049Y-85930230D01*
X175818804Y-85910035D01*
X175818796Y-85910035D01*
X175639550Y-85930230D01*
X175639545Y-85930231D01*
X175469276Y-85989811D01*
X175316537Y-86085784D01*
X175188984Y-86213337D01*
X175093011Y-86366076D01*
X175033431Y-86536345D01*
X175033430Y-86536350D01*
X175013235Y-86715596D01*
X175013235Y-86715603D01*
X165100500Y-86715603D01*
X165100500Y-85039200D01*
X165623941Y-85039200D01*
X165644536Y-85274603D01*
X165644538Y-85274613D01*
X165705694Y-85502855D01*
X165705696Y-85502859D01*
X165705697Y-85502863D01*
X165780542Y-85663368D01*
X165805565Y-85717030D01*
X165805567Y-85717034D01*
X165878656Y-85821415D01*
X165941105Y-85910601D01*
X166108199Y-86077695D01*
X166157062Y-86111909D01*
X166301765Y-86213232D01*
X166301767Y-86213233D01*
X166301770Y-86213235D01*
X166515937Y-86313103D01*
X166744192Y-86374263D01*
X166932518Y-86390739D01*
X166979599Y-86394859D01*
X166979600Y-86394859D01*
X166979601Y-86394859D01*
X167024953Y-86390891D01*
X167215008Y-86374263D01*
X167443263Y-86313103D01*
X167657430Y-86213235D01*
X167851001Y-86077695D01*
X168018095Y-85910601D01*
X168153635Y-85717030D01*
X168232827Y-85547203D01*
X181236235Y-85547203D01*
X181256430Y-85726449D01*
X181256431Y-85726454D01*
X181316011Y-85896723D01*
X181361035Y-85968378D01*
X181411984Y-86049462D01*
X181539538Y-86177016D01*
X181692278Y-86272989D01*
X181806923Y-86313105D01*
X181862545Y-86332568D01*
X181862550Y-86332569D01*
X182041796Y-86352765D01*
X182041800Y-86352765D01*
X182041804Y-86352765D01*
X182221049Y-86332569D01*
X182221052Y-86332568D01*
X182221055Y-86332568D01*
X182391322Y-86272989D01*
X182544062Y-86177016D01*
X182645340Y-86075738D01*
X193949368Y-86075738D01*
X193969563Y-86254984D01*
X193969564Y-86254989D01*
X194029144Y-86425258D01*
X194096674Y-86532731D01*
X194125117Y-86577997D01*
X194252671Y-86705551D01*
X194405411Y-86801524D01*
X194555402Y-86854008D01*
X194575678Y-86861103D01*
X194575683Y-86861104D01*
X194754929Y-86881300D01*
X194754933Y-86881300D01*
X194754937Y-86881300D01*
X194934182Y-86861104D01*
X194934185Y-86861103D01*
X194934188Y-86861103D01*
X195104455Y-86801524D01*
X195257195Y-86705551D01*
X195384749Y-86577997D01*
X195480722Y-86425257D01*
X195540301Y-86254990D01*
X195545006Y-86213232D01*
X195561278Y-86068816D01*
X195564034Y-86069126D01*
X195580183Y-86014133D01*
X195632987Y-85968378D01*
X195643544Y-85964130D01*
X195656106Y-85959734D01*
X195777122Y-85917389D01*
X195929862Y-85821416D01*
X195950075Y-85801203D01*
X198365435Y-85801203D01*
X198385630Y-85980449D01*
X198385631Y-85980454D01*
X198445211Y-86150723D01*
X198524251Y-86276513D01*
X198541184Y-86303462D01*
X198668738Y-86431016D01*
X198696198Y-86448270D01*
X198807929Y-86518476D01*
X198821478Y-86526989D01*
X198991744Y-86586567D01*
X198991745Y-86586568D01*
X198991750Y-86586569D01*
X199170996Y-86606765D01*
X199171000Y-86606765D01*
X199171004Y-86606765D01*
X199350249Y-86586569D01*
X199350252Y-86586568D01*
X199350255Y-86586568D01*
X199520522Y-86526989D01*
X199673262Y-86431016D01*
X199800816Y-86303462D01*
X199896789Y-86150722D01*
X199956368Y-85980455D01*
X199957750Y-85968188D01*
X199976565Y-85801203D01*
X199976565Y-85801196D01*
X199956369Y-85621950D01*
X199956368Y-85621945D01*
X199939407Y-85573473D01*
X199896789Y-85451678D01*
X199893170Y-85445919D01*
X199800815Y-85298937D01*
X199673262Y-85171384D01*
X199520523Y-85075411D01*
X199350254Y-85015831D01*
X199350249Y-85015830D01*
X199171004Y-84995635D01*
X199170996Y-84995635D01*
X198991750Y-85015830D01*
X198991745Y-85015831D01*
X198821476Y-85075411D01*
X198668737Y-85171384D01*
X198541184Y-85298937D01*
X198445211Y-85451676D01*
X198385631Y-85621945D01*
X198385630Y-85621950D01*
X198365435Y-85801196D01*
X198365435Y-85801203D01*
X195950075Y-85801203D01*
X196057416Y-85693862D01*
X196153389Y-85541122D01*
X196212968Y-85370855D01*
X196212969Y-85370849D01*
X196233165Y-85191603D01*
X196233165Y-85191596D01*
X196212969Y-85012350D01*
X196212968Y-85012345D01*
X196172846Y-84897683D01*
X196153389Y-84842078D01*
X196057416Y-84689338D01*
X195929862Y-84561784D01*
X195857970Y-84516611D01*
X195777123Y-84465811D01*
X195606854Y-84406231D01*
X195606849Y-84406230D01*
X195427604Y-84386035D01*
X195427596Y-84386035D01*
X195248350Y-84406230D01*
X195248345Y-84406231D01*
X195078076Y-84465811D01*
X194925337Y-84561784D01*
X194797784Y-84689337D01*
X194701811Y-84842076D01*
X194642231Y-85012345D01*
X194642230Y-85012350D01*
X194621255Y-85198519D01*
X194618498Y-85198208D01*
X194602350Y-85253202D01*
X194549546Y-85298957D01*
X194538989Y-85303205D01*
X194405411Y-85349945D01*
X194252670Y-85445919D01*
X194125117Y-85573472D01*
X194029144Y-85726211D01*
X193969564Y-85896480D01*
X193969563Y-85896485D01*
X193949368Y-86075731D01*
X193949368Y-86075738D01*
X182645340Y-86075738D01*
X182671616Y-86049462D01*
X182767589Y-85896722D01*
X182827168Y-85726455D01*
X182827169Y-85726449D01*
X182847365Y-85547203D01*
X182847365Y-85547196D01*
X182827169Y-85367950D01*
X182827168Y-85367945D01*
X182820870Y-85349946D01*
X182767589Y-85197678D01*
X182763767Y-85191596D01*
X182671615Y-85044937D01*
X182544062Y-84917384D01*
X182391323Y-84821411D01*
X182221054Y-84761831D01*
X182221049Y-84761830D01*
X182041804Y-84741635D01*
X182041796Y-84741635D01*
X181862550Y-84761830D01*
X181862545Y-84761831D01*
X181692276Y-84821411D01*
X181539537Y-84917384D01*
X181411984Y-85044937D01*
X181316011Y-85197676D01*
X181256431Y-85367945D01*
X181256430Y-85367950D01*
X181236235Y-85547196D01*
X181236235Y-85547203D01*
X168232827Y-85547203D01*
X168253503Y-85502863D01*
X168314663Y-85274608D01*
X168335259Y-85039200D01*
X168314663Y-84803792D01*
X168253503Y-84575537D01*
X168153635Y-84361371D01*
X168142996Y-84346176D01*
X168018094Y-84167797D01*
X167851002Y-84000706D01*
X167850996Y-84000701D01*
X167665442Y-83870775D01*
X167621817Y-83816198D01*
X167614623Y-83746700D01*
X167646146Y-83684345D01*
X167665442Y-83667625D01*
X167766106Y-83597139D01*
X167851001Y-83537695D01*
X168018095Y-83370601D01*
X168153635Y-83177030D01*
X168253503Y-82962863D01*
X168289263Y-82829403D01*
X170669835Y-82829403D01*
X170690030Y-83008649D01*
X170690031Y-83008654D01*
X170749611Y-83178923D01*
X170845584Y-83331662D01*
X170903340Y-83389418D01*
X170936825Y-83450741D01*
X170931841Y-83520433D01*
X170903341Y-83564779D01*
X170870986Y-83597134D01*
X170775011Y-83749876D01*
X170715431Y-83920145D01*
X170715430Y-83920150D01*
X170695235Y-84099396D01*
X170695235Y-84099403D01*
X170715430Y-84278649D01*
X170715431Y-84278654D01*
X170775011Y-84448923D01*
X170854573Y-84575544D01*
X170870984Y-84601662D01*
X170998538Y-84729216D01*
X171050446Y-84761832D01*
X171118386Y-84804522D01*
X171151278Y-84825189D01*
X171260119Y-84863274D01*
X171321545Y-84884768D01*
X171321550Y-84884769D01*
X171500796Y-84904965D01*
X171500800Y-84904965D01*
X171500804Y-84904965D01*
X171680049Y-84884769D01*
X171680052Y-84884768D01*
X171680055Y-84884768D01*
X171850322Y-84825189D01*
X172003062Y-84729216D01*
X172130616Y-84601662D01*
X172226589Y-84448922D01*
X172286168Y-84278655D01*
X172286169Y-84278649D01*
X172306365Y-84099403D01*
X172306365Y-84099396D01*
X172286169Y-83920150D01*
X172286168Y-83920145D01*
X172286167Y-83920144D01*
X172226589Y-83749878D01*
X172130616Y-83597138D01*
X172072858Y-83539380D01*
X172039374Y-83478056D01*
X172044359Y-83408365D01*
X172072858Y-83364019D01*
X172105216Y-83331662D01*
X172201189Y-83178922D01*
X172260768Y-83008655D01*
X172260769Y-83008649D01*
X172280965Y-82829403D01*
X172280965Y-82829396D01*
X172260769Y-82650150D01*
X172260768Y-82650145D01*
X172207950Y-82499200D01*
X172201189Y-82479878D01*
X172105216Y-82327138D01*
X171977662Y-82199584D01*
X171937238Y-82174184D01*
X171824923Y-82103611D01*
X171654654Y-82044031D01*
X171654649Y-82044030D01*
X171475404Y-82023835D01*
X171475396Y-82023835D01*
X171296150Y-82044030D01*
X171296145Y-82044031D01*
X171125876Y-82103611D01*
X170973137Y-82199584D01*
X170845584Y-82327137D01*
X170749611Y-82479876D01*
X170690031Y-82650145D01*
X170690030Y-82650150D01*
X170669835Y-82829396D01*
X170669835Y-82829403D01*
X168289263Y-82829403D01*
X168314663Y-82734608D01*
X168335259Y-82499200D01*
X168314663Y-82263792D01*
X168253503Y-82035537D01*
X168244674Y-82016603D01*
X173184435Y-82016603D01*
X173204630Y-82195849D01*
X173204631Y-82195854D01*
X173264211Y-82366123D01*
X173359011Y-82516995D01*
X173360184Y-82518862D01*
X173487738Y-82646416D01*
X173578080Y-82703181D01*
X173628102Y-82734613D01*
X173640478Y-82742389D01*
X173810745Y-82801967D01*
X173810745Y-82801968D01*
X173810750Y-82801969D01*
X173989996Y-82822165D01*
X173990000Y-82822165D01*
X173990004Y-82822165D01*
X174151197Y-82804003D01*
X178518435Y-82804003D01*
X178538630Y-82983249D01*
X178538631Y-82983254D01*
X178598211Y-83153523D01*
X178621595Y-83190738D01*
X178694184Y-83306262D01*
X178821738Y-83433816D01*
X178912080Y-83490582D01*
X178970228Y-83527119D01*
X178974478Y-83529789D01*
X178997081Y-83537698D01*
X179144745Y-83589368D01*
X179144750Y-83589369D01*
X179323996Y-83609565D01*
X179324000Y-83609565D01*
X179324003Y-83609565D01*
X179365734Y-83604863D01*
X179434556Y-83616917D01*
X179485936Y-83664266D01*
X179503560Y-83731877D01*
X179481834Y-83798283D01*
X179461512Y-83820110D01*
X179461662Y-83820260D01*
X179457476Y-83824445D01*
X179456937Y-83825025D01*
X179456739Y-83825182D01*
X179329184Y-83952737D01*
X179233211Y-84105476D01*
X179173631Y-84275745D01*
X179173630Y-84275750D01*
X179153435Y-84454996D01*
X179153435Y-84455003D01*
X179173630Y-84634249D01*
X179173631Y-84634254D01*
X179233211Y-84804523D01*
X179304127Y-84917384D01*
X179329184Y-84957262D01*
X179456738Y-85084816D01*
X179609478Y-85180789D01*
X179779745Y-85240367D01*
X179779745Y-85240368D01*
X179779750Y-85240369D01*
X179958996Y-85260565D01*
X179959000Y-85260565D01*
X179959004Y-85260565D01*
X180138249Y-85240369D01*
X180138252Y-85240368D01*
X180138255Y-85240368D01*
X180308522Y-85180789D01*
X180461262Y-85084816D01*
X180588816Y-84957262D01*
X180684789Y-84804522D01*
X180744368Y-84634255D01*
X180746810Y-84612584D01*
X180764565Y-84455003D01*
X180764565Y-84454996D01*
X180744369Y-84275750D01*
X180744368Y-84275745D01*
X180716206Y-84195262D01*
X180684789Y-84105478D01*
X180680967Y-84099396D01*
X180618953Y-84000701D01*
X180588816Y-83952738D01*
X180461262Y-83825184D01*
X180453187Y-83820110D01*
X180453017Y-83820003D01*
X185249435Y-83820003D01*
X185269630Y-83999249D01*
X185269631Y-83999254D01*
X185329211Y-84169523D01*
X185425184Y-84322262D01*
X185465292Y-84362370D01*
X185498777Y-84423693D01*
X185493793Y-84493385D01*
X185482605Y-84516023D01*
X185405411Y-84638876D01*
X185345831Y-84809145D01*
X185345830Y-84809150D01*
X185325635Y-84988396D01*
X185325635Y-84988403D01*
X185345830Y-85167649D01*
X185345831Y-85167654D01*
X185405411Y-85337923D01*
X185458020Y-85421649D01*
X185501384Y-85490662D01*
X185628938Y-85618216D01*
X185634873Y-85621945D01*
X185779002Y-85712508D01*
X185781678Y-85714189D01*
X185868765Y-85744662D01*
X185951945Y-85773768D01*
X185951950Y-85773769D01*
X186131196Y-85793965D01*
X186131200Y-85793965D01*
X186131204Y-85793965D01*
X186310449Y-85773769D01*
X186310452Y-85773768D01*
X186310455Y-85773768D01*
X186480722Y-85714189D01*
X186633462Y-85618216D01*
X186761016Y-85490662D01*
X186856989Y-85337922D01*
X186916568Y-85167655D01*
X186921497Y-85123908D01*
X186936765Y-84988403D01*
X186936765Y-84988396D01*
X186916569Y-84809150D01*
X186916568Y-84809145D01*
X186892421Y-84740137D01*
X186856989Y-84638878D01*
X186854080Y-84634249D01*
X186779794Y-84516023D01*
X186761016Y-84486138D01*
X186720907Y-84446029D01*
X186687422Y-84384706D01*
X186692406Y-84315014D01*
X186703595Y-84292375D01*
X186714045Y-84275745D01*
X186742861Y-84229883D01*
X186780788Y-84169524D01*
X186781392Y-84167799D01*
X186840368Y-83999255D01*
X186840369Y-83999249D01*
X186860565Y-83820003D01*
X186860565Y-83819996D01*
X186846256Y-83693003D01*
X188170435Y-83693003D01*
X188190630Y-83872249D01*
X188190631Y-83872254D01*
X188250211Y-84042523D01*
X188328928Y-84167799D01*
X188346184Y-84195262D01*
X188473738Y-84322816D01*
X188514991Y-84348737D01*
X188622817Y-84416489D01*
X188626478Y-84418789D01*
X188712596Y-84448923D01*
X188796745Y-84478368D01*
X188796750Y-84478369D01*
X188975996Y-84498565D01*
X188976000Y-84498565D01*
X188976004Y-84498565D01*
X189155249Y-84478369D01*
X189155251Y-84478368D01*
X189155255Y-84478368D01*
X189155258Y-84478366D01*
X189155262Y-84478366D01*
X189332095Y-84416489D01*
X189332959Y-84418959D01*
X189390037Y-84409536D01*
X189454183Y-84437232D01*
X189491989Y-84491658D01*
X189494811Y-84499722D01*
X189494810Y-84499722D01*
X189542453Y-84575544D01*
X189590784Y-84652462D01*
X189718338Y-84780016D01*
X189775104Y-84815684D01*
X189871077Y-84875989D01*
X189899291Y-84885861D01*
X189956068Y-84926582D01*
X189981816Y-84991534D01*
X189975381Y-85043853D01*
X189968631Y-85063143D01*
X189968631Y-85063146D01*
X189948435Y-85242396D01*
X189948435Y-85242403D01*
X189968630Y-85421649D01*
X189968631Y-85421654D01*
X190028211Y-85591923D01*
X190106822Y-85717030D01*
X190124184Y-85744662D01*
X190251738Y-85872216D01*
X190404478Y-85968189D01*
X190574745Y-86027767D01*
X190574745Y-86027768D01*
X190574750Y-86027769D01*
X190753996Y-86047965D01*
X190754000Y-86047965D01*
X190754004Y-86047965D01*
X190933249Y-86027769D01*
X190933252Y-86027768D01*
X190933255Y-86027768D01*
X191103522Y-85968189D01*
X191256262Y-85872216D01*
X191383816Y-85744662D01*
X191479789Y-85591922D01*
X191539368Y-85421655D01*
X191545092Y-85370854D01*
X191559565Y-85242403D01*
X191559565Y-85242396D01*
X191539369Y-85063150D01*
X191539368Y-85063145D01*
X191513215Y-84988403D01*
X191479789Y-84892878D01*
X191383816Y-84740138D01*
X191256262Y-84612584D01*
X191238880Y-84601662D01*
X191103520Y-84516609D01*
X191075304Y-84506736D01*
X191018528Y-84466014D01*
X190992782Y-84401061D01*
X190999219Y-84348740D01*
X191005968Y-84329455D01*
X191006717Y-84322815D01*
X191026165Y-84150203D01*
X191026165Y-84150196D01*
X191005969Y-83970950D01*
X191005968Y-83970945D01*
X190971435Y-83872255D01*
X190946389Y-83800678D01*
X190850416Y-83647938D01*
X190722862Y-83520384D01*
X190685683Y-83497023D01*
X190570123Y-83424411D01*
X190399854Y-83364831D01*
X190399849Y-83364830D01*
X190220604Y-83344635D01*
X190220596Y-83344635D01*
X190041350Y-83364830D01*
X190041337Y-83364833D01*
X189864506Y-83426710D01*
X189863647Y-83424256D01*
X189806459Y-83433649D01*
X189742336Y-83405899D01*
X189704610Y-83351538D01*
X189701790Y-83343481D01*
X189701789Y-83343477D01*
X189605815Y-83190737D01*
X189478262Y-83063184D01*
X189325523Y-82967211D01*
X189155254Y-82907631D01*
X189155249Y-82907630D01*
X188976004Y-82887435D01*
X188975996Y-82887435D01*
X188796750Y-82907630D01*
X188796745Y-82907631D01*
X188626476Y-82967211D01*
X188473737Y-83063184D01*
X188346184Y-83190737D01*
X188250211Y-83343476D01*
X188190631Y-83513745D01*
X188190630Y-83513750D01*
X188170435Y-83692996D01*
X188170435Y-83693003D01*
X186846256Y-83693003D01*
X186840369Y-83640750D01*
X186840368Y-83640745D01*
X186804309Y-83537695D01*
X186780789Y-83470478D01*
X186780227Y-83469584D01*
X186740211Y-83405899D01*
X186684816Y-83317738D01*
X186557262Y-83190184D01*
X186536328Y-83177030D01*
X186404523Y-83094211D01*
X186234254Y-83034631D01*
X186234249Y-83034630D01*
X186055004Y-83014435D01*
X186054996Y-83014435D01*
X185875750Y-83034630D01*
X185875745Y-83034631D01*
X185705476Y-83094211D01*
X185552737Y-83190184D01*
X185425184Y-83317737D01*
X185329211Y-83470476D01*
X185269631Y-83640745D01*
X185269630Y-83640750D01*
X185249435Y-83819996D01*
X185249435Y-83820003D01*
X180453017Y-83820003D01*
X180308523Y-83729211D01*
X180138254Y-83669631D01*
X180138249Y-83669630D01*
X179959004Y-83649435D01*
X179959002Y-83649435D01*
X179959000Y-83649435D01*
X179948831Y-83650580D01*
X179917262Y-83654137D01*
X179848440Y-83642080D01*
X179797062Y-83594730D01*
X179779439Y-83527119D01*
X179801167Y-83460714D01*
X179821488Y-83438890D01*
X179821338Y-83438740D01*
X179825552Y-83434525D01*
X179826080Y-83433959D01*
X179826244Y-83433826D01*
X179826262Y-83433816D01*
X179953816Y-83306262D01*
X180049789Y-83153522D01*
X180109368Y-82983255D01*
X180109660Y-82980663D01*
X180129565Y-82804003D01*
X180129565Y-82803996D01*
X180109369Y-82624750D01*
X180109368Y-82624745D01*
X180071667Y-82517001D01*
X180049789Y-82454478D01*
X179953816Y-82301738D01*
X179826262Y-82174184D01*
X179722943Y-82109264D01*
X179673523Y-82078211D01*
X179503254Y-82018631D01*
X179503249Y-82018630D01*
X179324004Y-81998435D01*
X179323996Y-81998435D01*
X179144750Y-82018630D01*
X179144745Y-82018631D01*
X178974476Y-82078211D01*
X178821737Y-82174184D01*
X178694184Y-82301737D01*
X178598211Y-82454476D01*
X178538631Y-82624745D01*
X178538630Y-82624750D01*
X178518435Y-82803996D01*
X178518435Y-82804003D01*
X174151197Y-82804003D01*
X174169249Y-82801969D01*
X174169252Y-82801968D01*
X174169255Y-82801968D01*
X174339522Y-82742389D01*
X174492262Y-82646416D01*
X174619816Y-82518862D01*
X174715789Y-82366122D01*
X174775368Y-82195855D01*
X174777810Y-82174184D01*
X174795565Y-82016603D01*
X174795565Y-82016596D01*
X174775369Y-81837350D01*
X174775368Y-81837345D01*
X174715788Y-81667076D01*
X174702294Y-81645600D01*
X204510941Y-81645600D01*
X204531536Y-81881003D01*
X204531538Y-81881013D01*
X204592694Y-82109255D01*
X204592696Y-82109259D01*
X204592697Y-82109263D01*
X204664755Y-82263792D01*
X204692565Y-82323430D01*
X204692567Y-82323434D01*
X204784324Y-82454476D01*
X204828105Y-82517001D01*
X204995199Y-82684095D01*
X205067332Y-82734603D01*
X205188765Y-82819632D01*
X205188767Y-82819633D01*
X205188770Y-82819635D01*
X205402937Y-82919503D01*
X205631192Y-82980663D01*
X205819518Y-82997139D01*
X205866599Y-83001259D01*
X205866600Y-83001259D01*
X205866601Y-83001259D01*
X205905834Y-82997826D01*
X206102008Y-82980663D01*
X206330263Y-82919503D01*
X206544430Y-82819635D01*
X206738001Y-82684095D01*
X206905095Y-82517001D01*
X207040635Y-82323430D01*
X207140503Y-82109263D01*
X207201663Y-81881008D01*
X207222259Y-81645600D01*
X207201663Y-81410192D01*
X207140503Y-81181937D01*
X207040635Y-80967771D01*
X206905095Y-80774199D01*
X206905094Y-80774197D01*
X206738002Y-80607106D01*
X206738001Y-80607105D01*
X206552442Y-80477175D01*
X206552441Y-80477174D01*
X206508816Y-80422597D01*
X206501624Y-80353098D01*
X206533146Y-80290744D01*
X206552436Y-80274028D01*
X206738001Y-80144095D01*
X206905095Y-79977001D01*
X207040635Y-79783430D01*
X207140503Y-79569263D01*
X207201663Y-79341008D01*
X207222259Y-79105600D01*
X207201663Y-78870192D01*
X207140503Y-78641937D01*
X207040635Y-78427771D01*
X207034362Y-78418811D01*
X206905094Y-78234197D01*
X206738002Y-78067106D01*
X206737996Y-78067101D01*
X206552442Y-77937175D01*
X206508817Y-77882598D01*
X206501623Y-77813100D01*
X206533146Y-77750745D01*
X206552442Y-77734025D01*
X206574626Y-77718491D01*
X206738001Y-77604095D01*
X206905095Y-77437001D01*
X207040635Y-77243430D01*
X207140503Y-77029263D01*
X207201663Y-76801008D01*
X207222259Y-76565600D01*
X207201663Y-76330192D01*
X207140503Y-76101937D01*
X207040635Y-75887771D01*
X206922359Y-75718855D01*
X206905096Y-75694200D01*
X206905095Y-75694199D01*
X206782779Y-75571883D01*
X206749296Y-75510563D01*
X206754280Y-75440871D01*
X206796151Y-75384937D01*
X206827129Y-75368022D01*
X206958686Y-75318954D01*
X206958693Y-75318950D01*
X207073787Y-75232790D01*
X207073790Y-75232787D01*
X207159950Y-75117693D01*
X207159954Y-75117686D01*
X207210196Y-74982979D01*
X207210198Y-74982972D01*
X207216599Y-74923444D01*
X207216600Y-74923427D01*
X207216600Y-74275600D01*
X206479947Y-74275600D01*
X206412908Y-74255915D01*
X206367153Y-74203111D01*
X206357209Y-74133953D01*
X206360969Y-74116667D01*
X206366600Y-74097488D01*
X206366600Y-73953711D01*
X206360969Y-73934533D01*
X206360970Y-73864664D01*
X206398745Y-73805886D01*
X206462301Y-73776862D01*
X206479947Y-73775600D01*
X207216600Y-73775600D01*
X207216600Y-73127772D01*
X207216599Y-73127755D01*
X207210198Y-73068227D01*
X207210196Y-73068220D01*
X207159954Y-72933513D01*
X207159950Y-72933506D01*
X207073790Y-72818412D01*
X207073787Y-72818409D01*
X206958693Y-72732249D01*
X206958686Y-72732245D01*
X206823979Y-72682003D01*
X206823972Y-72682001D01*
X206764444Y-72675600D01*
X206116599Y-72675600D01*
X206116599Y-73413298D01*
X206096914Y-73480338D01*
X206044110Y-73526092D01*
X205974953Y-73536036D01*
X205902364Y-73525600D01*
X205902363Y-73525600D01*
X205830837Y-73525600D01*
X205830833Y-73525600D01*
X205758245Y-73536036D01*
X205689087Y-73526092D01*
X205636284Y-73480336D01*
X205616600Y-73413298D01*
X205616600Y-72675600D01*
X204968755Y-72675600D01*
X204909227Y-72682001D01*
X204909220Y-72682003D01*
X204774513Y-72732245D01*
X204774506Y-72732249D01*
X204659412Y-72818409D01*
X204659409Y-72818412D01*
X204573249Y-72933506D01*
X204573245Y-72933513D01*
X204523003Y-73068220D01*
X204523001Y-73068227D01*
X204516600Y-73127755D01*
X204516600Y-73775600D01*
X205253253Y-73775600D01*
X205320292Y-73795285D01*
X205366047Y-73848089D01*
X205375991Y-73917247D01*
X205372231Y-73934533D01*
X205366600Y-73953711D01*
X205366600Y-74097488D01*
X205372231Y-74116667D01*
X205372230Y-74186536D01*
X205334455Y-74245314D01*
X205270899Y-74274338D01*
X205253253Y-74275600D01*
X204516600Y-74275600D01*
X204516600Y-74923444D01*
X204523001Y-74982972D01*
X204523003Y-74982979D01*
X204573245Y-75117686D01*
X204573249Y-75117693D01*
X204659409Y-75232787D01*
X204659412Y-75232790D01*
X204774506Y-75318950D01*
X204774513Y-75318954D01*
X204906070Y-75368021D01*
X204962003Y-75409892D01*
X204986421Y-75475356D01*
X204971570Y-75543629D01*
X204950419Y-75571884D01*
X204828103Y-75694200D01*
X204692565Y-75887769D01*
X204692564Y-75887771D01*
X204592698Y-76101935D01*
X204592694Y-76101944D01*
X204531538Y-76330186D01*
X204531536Y-76330196D01*
X204510941Y-76565599D01*
X204510941Y-76565600D01*
X204531536Y-76801003D01*
X204531538Y-76801013D01*
X204592694Y-77029255D01*
X204592696Y-77029259D01*
X204592697Y-77029263D01*
X204667130Y-77188885D01*
X204692565Y-77243430D01*
X204692567Y-77243434D01*
X204765303Y-77347311D01*
X204825997Y-77433991D01*
X204828101Y-77436995D01*
X204828106Y-77437002D01*
X204995197Y-77604093D01*
X204995203Y-77604098D01*
X205180758Y-77734025D01*
X205224383Y-77788602D01*
X205231577Y-77858100D01*
X205200054Y-77920455D01*
X205180758Y-77937175D01*
X204995197Y-78067105D01*
X204828105Y-78234197D01*
X204692565Y-78427769D01*
X204692564Y-78427771D01*
X204592698Y-78641935D01*
X204592694Y-78641944D01*
X204531538Y-78870186D01*
X204531536Y-78870196D01*
X204510941Y-79105599D01*
X204510941Y-79105600D01*
X204531536Y-79341003D01*
X204531538Y-79341013D01*
X204592694Y-79569255D01*
X204592696Y-79569259D01*
X204592697Y-79569263D01*
X204667254Y-79729150D01*
X204692565Y-79783430D01*
X204692567Y-79783434D01*
X204828101Y-79976995D01*
X204828106Y-79977002D01*
X204995197Y-80144093D01*
X204995203Y-80144098D01*
X205180758Y-80274025D01*
X205224383Y-80328602D01*
X205231577Y-80398100D01*
X205200054Y-80460455D01*
X205180758Y-80477175D01*
X204995197Y-80607105D01*
X204828105Y-80774197D01*
X204692565Y-80967769D01*
X204692564Y-80967771D01*
X204592698Y-81181935D01*
X204592694Y-81181944D01*
X204531538Y-81410186D01*
X204531536Y-81410196D01*
X204510941Y-81645599D01*
X204510941Y-81645600D01*
X174702294Y-81645600D01*
X174619815Y-81514337D01*
X174492262Y-81386784D01*
X174339523Y-81290811D01*
X174169254Y-81231231D01*
X174169249Y-81231230D01*
X173990004Y-81211035D01*
X173989996Y-81211035D01*
X173810750Y-81231230D01*
X173810745Y-81231231D01*
X173640476Y-81290811D01*
X173487737Y-81386784D01*
X173360184Y-81514337D01*
X173264211Y-81667076D01*
X173204631Y-81837345D01*
X173204630Y-81837350D01*
X173184435Y-82016596D01*
X173184435Y-82016603D01*
X168244674Y-82016603D01*
X168153635Y-81821371D01*
X168045599Y-81667078D01*
X168018094Y-81627797D01*
X167851002Y-81460706D01*
X167850996Y-81460701D01*
X167665442Y-81330775D01*
X167621817Y-81276198D01*
X167614623Y-81206700D01*
X167646146Y-81144345D01*
X167665442Y-81127625D01*
X167687626Y-81112091D01*
X167851001Y-80997695D01*
X168018095Y-80830601D01*
X168153635Y-80637030D01*
X168253503Y-80422863D01*
X168314663Y-80194608D01*
X168335259Y-79959200D01*
X168314663Y-79723792D01*
X168253503Y-79495537D01*
X168232830Y-79451203D01*
X174073435Y-79451203D01*
X174093630Y-79630449D01*
X174093631Y-79630454D01*
X174153211Y-79800723D01*
X174236831Y-79933803D01*
X174249184Y-79953462D01*
X174376738Y-80081016D01*
X174387304Y-80087655D01*
X174477127Y-80144095D01*
X174529478Y-80176989D01*
X174699744Y-80236567D01*
X174699745Y-80236568D01*
X174699750Y-80236569D01*
X174878996Y-80256765D01*
X174879000Y-80256765D01*
X174879004Y-80256765D01*
X175058249Y-80236569D01*
X175058252Y-80236568D01*
X175058255Y-80236568D01*
X175228522Y-80176989D01*
X175381262Y-80081016D01*
X175508816Y-79953462D01*
X175521169Y-79933803D01*
X185681235Y-79933803D01*
X185701430Y-80113049D01*
X185701431Y-80113054D01*
X185761011Y-80283323D01*
X185848691Y-80422864D01*
X185856984Y-80436062D01*
X185984538Y-80563616D01*
X186053750Y-80607105D01*
X186101375Y-80637030D01*
X186137278Y-80659589D01*
X186234956Y-80693768D01*
X186307545Y-80719168D01*
X186307550Y-80719169D01*
X186486796Y-80739365D01*
X186486800Y-80739365D01*
X186486804Y-80739365D01*
X186666049Y-80719169D01*
X186666052Y-80719168D01*
X186666055Y-80719168D01*
X186836322Y-80659589D01*
X186989062Y-80563616D01*
X187116616Y-80436062D01*
X187212589Y-80283322D01*
X187272168Y-80113055D01*
X187276412Y-80075388D01*
X187292365Y-79933803D01*
X187292365Y-79933796D01*
X187272169Y-79754550D01*
X187272168Y-79754545D01*
X187228747Y-79630455D01*
X187212589Y-79584278D01*
X187203154Y-79569263D01*
X187116615Y-79431537D01*
X187034681Y-79349603D01*
X190812035Y-79349603D01*
X190832230Y-79528849D01*
X190832231Y-79528854D01*
X190891811Y-79699123D01*
X190955651Y-79800723D01*
X190987784Y-79851862D01*
X191115338Y-79979416D01*
X191268078Y-80075389D01*
X191438345Y-80134968D01*
X191438350Y-80134969D01*
X191617596Y-80155165D01*
X191617600Y-80155165D01*
X191617604Y-80155165D01*
X191796849Y-80134969D01*
X191796852Y-80134968D01*
X191796855Y-80134968D01*
X191967122Y-80075389D01*
X192119862Y-79979416D01*
X192190875Y-79908403D01*
X198990835Y-79908403D01*
X199011030Y-80087649D01*
X199011031Y-80087654D01*
X199070611Y-80257923D01*
X199091234Y-80290744D01*
X199166584Y-80410662D01*
X199294138Y-80538216D01*
X199446878Y-80634189D01*
X199617145Y-80693768D01*
X199617150Y-80693769D01*
X199796396Y-80713965D01*
X199796400Y-80713965D01*
X199796404Y-80713965D01*
X199975649Y-80693769D01*
X199975652Y-80693768D01*
X199975655Y-80693768D01*
X200145922Y-80634189D01*
X200289228Y-80544143D01*
X200356464Y-80525143D01*
X200421171Y-80544143D01*
X200452160Y-80563615D01*
X200564475Y-80634188D01*
X200734745Y-80693768D01*
X200734750Y-80693769D01*
X200913996Y-80713965D01*
X200914000Y-80713965D01*
X200914004Y-80713965D01*
X201093249Y-80693769D01*
X201093252Y-80693768D01*
X201093255Y-80693768D01*
X201263522Y-80634189D01*
X201416262Y-80538216D01*
X201543816Y-80410662D01*
X201639789Y-80257922D01*
X201699368Y-80087655D01*
X201700750Y-80075388D01*
X201719565Y-79908403D01*
X201719565Y-79908396D01*
X201699369Y-79729150D01*
X201699368Y-79729145D01*
X201664835Y-79630455D01*
X201639789Y-79558878D01*
X201543816Y-79406138D01*
X201416262Y-79278584D01*
X201405696Y-79271945D01*
X201263523Y-79182611D01*
X201093254Y-79123031D01*
X201093249Y-79123030D01*
X200914004Y-79102835D01*
X200913996Y-79102835D01*
X200734750Y-79123030D01*
X200734745Y-79123031D01*
X200564476Y-79182611D01*
X200421172Y-79272656D01*
X200353935Y-79291656D01*
X200289228Y-79272656D01*
X200145923Y-79182611D01*
X199975654Y-79123031D01*
X199975649Y-79123030D01*
X199796404Y-79102835D01*
X199796396Y-79102835D01*
X199617150Y-79123030D01*
X199617145Y-79123031D01*
X199446876Y-79182611D01*
X199294137Y-79278584D01*
X199166584Y-79406137D01*
X199070611Y-79558876D01*
X199011031Y-79729145D01*
X199011030Y-79729150D01*
X198990835Y-79908396D01*
X198990835Y-79908403D01*
X192190875Y-79908403D01*
X192247416Y-79851862D01*
X192343389Y-79699122D01*
X192402968Y-79528855D01*
X192402969Y-79528849D01*
X192423165Y-79349603D01*
X192423165Y-79349596D01*
X192402969Y-79170350D01*
X192402968Y-79170345D01*
X192343388Y-79000076D01*
X192293516Y-78920705D01*
X192247416Y-78847338D01*
X192119862Y-78719784D01*
X192108349Y-78712550D01*
X191967123Y-78623811D01*
X191796854Y-78564231D01*
X191796849Y-78564230D01*
X191617604Y-78544035D01*
X191617596Y-78544035D01*
X191438350Y-78564230D01*
X191438345Y-78564231D01*
X191268076Y-78623811D01*
X191115337Y-78719784D01*
X190987784Y-78847337D01*
X190891811Y-79000076D01*
X190832231Y-79170345D01*
X190832230Y-79170350D01*
X190812035Y-79349596D01*
X190812035Y-79349603D01*
X187034681Y-79349603D01*
X186989062Y-79303984D01*
X186836323Y-79208011D01*
X186666054Y-79148431D01*
X186666049Y-79148430D01*
X186486804Y-79128235D01*
X186486796Y-79128235D01*
X186307550Y-79148430D01*
X186307545Y-79148431D01*
X186137276Y-79208011D01*
X185984537Y-79303984D01*
X185856984Y-79431537D01*
X185761011Y-79584276D01*
X185701431Y-79754545D01*
X185701430Y-79754550D01*
X185681235Y-79933796D01*
X185681235Y-79933803D01*
X175521169Y-79933803D01*
X175604789Y-79800722D01*
X175664368Y-79630455D01*
X175672433Y-79558876D01*
X175684565Y-79451203D01*
X175684565Y-79451196D01*
X175664369Y-79271950D01*
X175664368Y-79271945D01*
X175664368Y-79271944D01*
X175604789Y-79101678D01*
X175508816Y-78948938D01*
X175381262Y-78821384D01*
X175323620Y-78785165D01*
X175228523Y-78725411D01*
X175058254Y-78665831D01*
X175058249Y-78665830D01*
X174879004Y-78645635D01*
X174878996Y-78645635D01*
X174699750Y-78665830D01*
X174699745Y-78665831D01*
X174529476Y-78725411D01*
X174376737Y-78821384D01*
X174249184Y-78948937D01*
X174153211Y-79101676D01*
X174093631Y-79271945D01*
X174093630Y-79271950D01*
X174073435Y-79451196D01*
X174073435Y-79451203D01*
X168232830Y-79451203D01*
X168153635Y-79281371D01*
X168147038Y-79271950D01*
X168018096Y-79087800D01*
X167975417Y-79045121D01*
X167895779Y-78965483D01*
X167862296Y-78904163D01*
X167867280Y-78834471D01*
X167909151Y-78778537D01*
X167940129Y-78761622D01*
X168071686Y-78712554D01*
X168071693Y-78712550D01*
X168186787Y-78626390D01*
X168186790Y-78626387D01*
X168272950Y-78511293D01*
X168272954Y-78511286D01*
X168323196Y-78376579D01*
X168323198Y-78376572D01*
X168329599Y-78317044D01*
X168329600Y-78317027D01*
X168329600Y-78239559D01*
X192987135Y-78239559D01*
X193007330Y-78418805D01*
X193007331Y-78418810D01*
X193066911Y-78589079D01*
X193127369Y-78685297D01*
X193162884Y-78741818D01*
X193290438Y-78869372D01*
X193443178Y-78965345D01*
X193613445Y-79024924D01*
X193613450Y-79024925D01*
X193792696Y-79045121D01*
X193792700Y-79045121D01*
X193792704Y-79045121D01*
X193971949Y-79024925D01*
X193971952Y-79024924D01*
X193971955Y-79024924D01*
X194142222Y-78965345D01*
X194294962Y-78869372D01*
X194422516Y-78741818D01*
X194518489Y-78589078D01*
X194578068Y-78418811D01*
X194578069Y-78418805D01*
X194598265Y-78239559D01*
X194598265Y-78239552D01*
X194578069Y-78060306D01*
X194578068Y-78060301D01*
X194529134Y-77920455D01*
X194518489Y-77890034D01*
X194422516Y-77737294D01*
X194294962Y-77609740D01*
X194285975Y-77604093D01*
X194142223Y-77513767D01*
X193971954Y-77454187D01*
X193971949Y-77454186D01*
X193792704Y-77433991D01*
X193792696Y-77433991D01*
X193613450Y-77454186D01*
X193613445Y-77454187D01*
X193443176Y-77513767D01*
X193290437Y-77609740D01*
X193162884Y-77737293D01*
X193066911Y-77890032D01*
X193007331Y-78060301D01*
X193007330Y-78060306D01*
X192987135Y-78239552D01*
X192987135Y-78239559D01*
X168329600Y-78239559D01*
X168329600Y-77669200D01*
X167592947Y-77669200D01*
X167525908Y-77649515D01*
X167480153Y-77596711D01*
X167470209Y-77527553D01*
X167473969Y-77510267D01*
X167479600Y-77491088D01*
X167479600Y-77347311D01*
X167473969Y-77328133D01*
X167473970Y-77258264D01*
X167511745Y-77199486D01*
X167575301Y-77170462D01*
X167592947Y-77169200D01*
X168329600Y-77169200D01*
X168329600Y-76521372D01*
X168329599Y-76521355D01*
X168323198Y-76461827D01*
X168323196Y-76461820D01*
X168272954Y-76327113D01*
X168272950Y-76327106D01*
X168186790Y-76212012D01*
X168186787Y-76212009D01*
X168071693Y-76125849D01*
X168071686Y-76125845D01*
X167936979Y-76075603D01*
X167936972Y-76075601D01*
X167877444Y-76069200D01*
X167229600Y-76069200D01*
X167229600Y-76806898D01*
X167209915Y-76873937D01*
X167157111Y-76919692D01*
X167087955Y-76929636D01*
X167015366Y-76919200D01*
X167015363Y-76919200D01*
X166943837Y-76919200D01*
X166943833Y-76919200D01*
X166871244Y-76929636D01*
X166802086Y-76919692D01*
X166749283Y-76873936D01*
X166729599Y-76806898D01*
X166729600Y-76069200D01*
X166081755Y-76069200D01*
X166022227Y-76075601D01*
X166022220Y-76075603D01*
X165887513Y-76125845D01*
X165887506Y-76125849D01*
X165772412Y-76212009D01*
X165772409Y-76212012D01*
X165686249Y-76327106D01*
X165686245Y-76327113D01*
X165636003Y-76461820D01*
X165636001Y-76461827D01*
X165629600Y-76521355D01*
X165629600Y-77169200D01*
X166366253Y-77169200D01*
X166433292Y-77188885D01*
X166479047Y-77241689D01*
X166488991Y-77310847D01*
X166485231Y-77328133D01*
X166479600Y-77347311D01*
X166479600Y-77491088D01*
X166485231Y-77510267D01*
X166485230Y-77580136D01*
X166447455Y-77638914D01*
X166383899Y-77667938D01*
X166366253Y-77669200D01*
X165629600Y-77669200D01*
X165629600Y-78317044D01*
X165636001Y-78376572D01*
X165636003Y-78376579D01*
X165686245Y-78511286D01*
X165686249Y-78511293D01*
X165772409Y-78626387D01*
X165772412Y-78626390D01*
X165887506Y-78712550D01*
X165887513Y-78712554D01*
X166019070Y-78761621D01*
X166075003Y-78803492D01*
X166099421Y-78868956D01*
X166084570Y-78937229D01*
X166063419Y-78965484D01*
X165941103Y-79087800D01*
X165805565Y-79281369D01*
X165805564Y-79281371D01*
X165705698Y-79495535D01*
X165705694Y-79495544D01*
X165644538Y-79723786D01*
X165644536Y-79723796D01*
X165623941Y-79959199D01*
X165623941Y-79959200D01*
X165644536Y-80194603D01*
X165644538Y-80194613D01*
X165705694Y-80422855D01*
X165705696Y-80422859D01*
X165705697Y-80422863D01*
X165791611Y-80607105D01*
X165805565Y-80637030D01*
X165805567Y-80637034D01*
X165941101Y-80830595D01*
X165941106Y-80830602D01*
X166108197Y-80997693D01*
X166108203Y-80997698D01*
X166293758Y-81127625D01*
X166337383Y-81182202D01*
X166344577Y-81251700D01*
X166313054Y-81314055D01*
X166293758Y-81330775D01*
X166108197Y-81460705D01*
X165941105Y-81627797D01*
X165805565Y-81821369D01*
X165805564Y-81821371D01*
X165705698Y-82035535D01*
X165705694Y-82035544D01*
X165644538Y-82263786D01*
X165644536Y-82263796D01*
X165623941Y-82499199D01*
X165623941Y-82499200D01*
X165644536Y-82734603D01*
X165644538Y-82734613D01*
X165705694Y-82962855D01*
X165705696Y-82962859D01*
X165705697Y-82962863D01*
X165805564Y-83177029D01*
X165805565Y-83177030D01*
X165805567Y-83177034D01*
X165815163Y-83190738D01*
X165937065Y-83364832D01*
X165941101Y-83370595D01*
X165941106Y-83370602D01*
X166108197Y-83537693D01*
X166108203Y-83537698D01*
X166293758Y-83667625D01*
X166337383Y-83722202D01*
X166344577Y-83791700D01*
X166313054Y-83854055D01*
X166293758Y-83870775D01*
X166108197Y-84000705D01*
X165941105Y-84167797D01*
X165805565Y-84361369D01*
X165805564Y-84361371D01*
X165705698Y-84575535D01*
X165705694Y-84575544D01*
X165644538Y-84803786D01*
X165644536Y-84803796D01*
X165623941Y-85039199D01*
X165623941Y-85039200D01*
X165100500Y-85039200D01*
X165100500Y-75539603D01*
X190202435Y-75539603D01*
X190222630Y-75718849D01*
X190222631Y-75718854D01*
X190282211Y-75889123D01*
X190378184Y-76041862D01*
X190505738Y-76169416D01*
X190573524Y-76212009D01*
X190625586Y-76244722D01*
X190658478Y-76265389D01*
X190828745Y-76324968D01*
X190828750Y-76324969D01*
X191007996Y-76345165D01*
X191008000Y-76345165D01*
X191008004Y-76345165D01*
X191187249Y-76324969D01*
X191187252Y-76324968D01*
X191187255Y-76324968D01*
X191357522Y-76265389D01*
X191510262Y-76169416D01*
X191637816Y-76041862D01*
X191729968Y-75895203D01*
X193860035Y-75895203D01*
X193880230Y-76074449D01*
X193880231Y-76074454D01*
X193939811Y-76244723D01*
X194035783Y-76397462D01*
X194035784Y-76397462D01*
X194163338Y-76525016D01*
X194316078Y-76620989D01*
X194486344Y-76680568D01*
X194486345Y-76680568D01*
X194486350Y-76680569D01*
X194665596Y-76700765D01*
X194665600Y-76700765D01*
X194665604Y-76700765D01*
X194844849Y-76680569D01*
X194844852Y-76680568D01*
X194844855Y-76680568D01*
X195015122Y-76620989D01*
X195167862Y-76525016D01*
X195295416Y-76397462D01*
X195391389Y-76244722D01*
X195450968Y-76074455D01*
X195451560Y-76069200D01*
X195471165Y-75895203D01*
X195471165Y-75895196D01*
X195450969Y-75715950D01*
X195450968Y-75715945D01*
X195443359Y-75694199D01*
X195391389Y-75545678D01*
X195387567Y-75539596D01*
X195295415Y-75392937D01*
X195167862Y-75265384D01*
X195015123Y-75169411D01*
X194844854Y-75109831D01*
X194844849Y-75109830D01*
X194665604Y-75089635D01*
X194665596Y-75089635D01*
X194486350Y-75109830D01*
X194486345Y-75109831D01*
X194316076Y-75169411D01*
X194163337Y-75265384D01*
X194035784Y-75392937D01*
X193939811Y-75545676D01*
X193880231Y-75715945D01*
X193880230Y-75715950D01*
X193860035Y-75895196D01*
X193860035Y-75895203D01*
X191729968Y-75895203D01*
X191733789Y-75889122D01*
X191793368Y-75718855D01*
X191793369Y-75718849D01*
X191813565Y-75539603D01*
X191813565Y-75539596D01*
X191793369Y-75360350D01*
X191793368Y-75360345D01*
X191760140Y-75265384D01*
X191733789Y-75190078D01*
X191637816Y-75037338D01*
X191510262Y-74909784D01*
X191492339Y-74898522D01*
X191357523Y-74813811D01*
X191187254Y-74754231D01*
X191187249Y-74754230D01*
X191008004Y-74734035D01*
X191007996Y-74734035D01*
X190828750Y-74754230D01*
X190828745Y-74754231D01*
X190658476Y-74813811D01*
X190505737Y-74909784D01*
X190378184Y-75037337D01*
X190282211Y-75190076D01*
X190222631Y-75360345D01*
X190222630Y-75360350D01*
X190202435Y-75539596D01*
X190202435Y-75539603D01*
X165100500Y-75539603D01*
X165100500Y-74549003D01*
X169958635Y-74549003D01*
X169978830Y-74728249D01*
X169978831Y-74728254D01*
X170038411Y-74898523D01*
X170091479Y-74982979D01*
X170134384Y-75051262D01*
X170261938Y-75178816D01*
X170414678Y-75274789D01*
X170584945Y-75334368D01*
X170584950Y-75334369D01*
X170764196Y-75354565D01*
X170764200Y-75354565D01*
X170764204Y-75354565D01*
X170943449Y-75334369D01*
X170943452Y-75334368D01*
X170943455Y-75334368D01*
X171113722Y-75274789D01*
X171266462Y-75178816D01*
X171394016Y-75051262D01*
X171489989Y-74898522D01*
X171549568Y-74728255D01*
X171569765Y-74549000D01*
X171567128Y-74525600D01*
X171549569Y-74369750D01*
X171549568Y-74369745D01*
X171516625Y-74275600D01*
X171489989Y-74199478D01*
X171394016Y-74046738D01*
X171266462Y-73919184D01*
X171263379Y-73917247D01*
X171113723Y-73823211D01*
X170943454Y-73763631D01*
X170943449Y-73763630D01*
X170764204Y-73743435D01*
X170764196Y-73743435D01*
X170584950Y-73763630D01*
X170584945Y-73763631D01*
X170414676Y-73823211D01*
X170261937Y-73919184D01*
X170134384Y-74046737D01*
X170038411Y-74199476D01*
X169978831Y-74369745D01*
X169978830Y-74369750D01*
X169958635Y-74548996D01*
X169958635Y-74549003D01*
X165100500Y-74549003D01*
X165100500Y-67614805D01*
X165361754Y-67614805D01*
X165380718Y-67916246D01*
X165380719Y-67916253D01*
X165409019Y-68064608D01*
X165434437Y-68197854D01*
X165437320Y-68212964D01*
X165530659Y-68500231D01*
X165530661Y-68500236D01*
X165659265Y-68773532D01*
X165659268Y-68773538D01*
X165821111Y-69028563D01*
X166013652Y-69261305D01*
X166233836Y-69468072D01*
X166233846Y-69468080D01*
X166478193Y-69645608D01*
X166478198Y-69645610D01*
X166478205Y-69645616D01*
X166742896Y-69791132D01*
X166742901Y-69791134D01*
X166742903Y-69791135D01*
X166742904Y-69791136D01*
X167023734Y-69902324D01*
X167023737Y-69902325D01*
X167121259Y-69927364D01*
X167316302Y-69977442D01*
X167463039Y-69995979D01*
X167615963Y-70015299D01*
X167615969Y-70015299D01*
X167615973Y-70015300D01*
X167615975Y-70015300D01*
X167918025Y-70015300D01*
X167918027Y-70015300D01*
X167918032Y-70015299D01*
X167918036Y-70015299D01*
X167997591Y-70005248D01*
X168217698Y-69977442D01*
X168510262Y-69902325D01*
X168510265Y-69902324D01*
X168514107Y-69900803D01*
X170898435Y-69900803D01*
X170918630Y-70080049D01*
X170918631Y-70080054D01*
X170978211Y-70250323D01*
X171074184Y-70403062D01*
X171201738Y-70530616D01*
X171354478Y-70626589D01*
X171524744Y-70686168D01*
X171524745Y-70686168D01*
X171524750Y-70686169D01*
X171703996Y-70706365D01*
X171704000Y-70706365D01*
X171704004Y-70706365D01*
X171883249Y-70686169D01*
X171883252Y-70686168D01*
X171883255Y-70686168D01*
X172053522Y-70626589D01*
X172206262Y-70530616D01*
X172333816Y-70403062D01*
X172429789Y-70250322D01*
X172489368Y-70080055D01*
X172496664Y-70015300D01*
X172509565Y-69900803D01*
X172509565Y-69900796D01*
X172489369Y-69721550D01*
X172489368Y-69721545D01*
X172429788Y-69551276D01*
X172333815Y-69398537D01*
X172206262Y-69270984D01*
X172053523Y-69175011D01*
X171883254Y-69115431D01*
X171883249Y-69115430D01*
X171704004Y-69095235D01*
X171703996Y-69095235D01*
X171524750Y-69115430D01*
X171524745Y-69115431D01*
X171354476Y-69175011D01*
X171201737Y-69270984D01*
X171074184Y-69398537D01*
X170978211Y-69551276D01*
X170918631Y-69721545D01*
X170918630Y-69721550D01*
X170898435Y-69900796D01*
X170898435Y-69900803D01*
X168514107Y-69900803D01*
X168791095Y-69791136D01*
X168791096Y-69791135D01*
X168791094Y-69791135D01*
X168791104Y-69791132D01*
X169055795Y-69645616D01*
X169300162Y-69468074D01*
X169520349Y-69261304D01*
X169712885Y-69028568D01*
X169874733Y-68773536D01*
X170003341Y-68500230D01*
X170096681Y-68212960D01*
X170133756Y-68018603D01*
X173921035Y-68018603D01*
X173941230Y-68197849D01*
X173941231Y-68197854D01*
X174000811Y-68368123D01*
X174083820Y-68500230D01*
X174096784Y-68520862D01*
X174224338Y-68648416D01*
X174377078Y-68744389D01*
X174460381Y-68773538D01*
X174547345Y-68803968D01*
X174547350Y-68803969D01*
X174726596Y-68824165D01*
X174726600Y-68824165D01*
X174726604Y-68824165D01*
X174905849Y-68803969D01*
X174905852Y-68803968D01*
X174905855Y-68803968D01*
X175076122Y-68744389D01*
X175228862Y-68648416D01*
X175356416Y-68520862D01*
X175452389Y-68368122D01*
X175511968Y-68197855D01*
X175532165Y-68018600D01*
X175520633Y-67916253D01*
X175511969Y-67839350D01*
X175511968Y-67839345D01*
X175473758Y-67730147D01*
X175452389Y-67669078D01*
X175356416Y-67516338D01*
X175260548Y-67420470D01*
X175992300Y-67420470D01*
X175992301Y-67420476D01*
X175998708Y-67480083D01*
X176049002Y-67614928D01*
X176049006Y-67614935D01*
X176135252Y-67730144D01*
X176135255Y-67730147D01*
X176250464Y-67816393D01*
X176250471Y-67816397D01*
X176385317Y-67866691D01*
X176385316Y-67866691D01*
X176392244Y-67867435D01*
X176444927Y-67873100D01*
X178240672Y-67873099D01*
X178300283Y-67866691D01*
X178435131Y-67816396D01*
X178550346Y-67730146D01*
X178636596Y-67614931D01*
X178685610Y-67483516D01*
X178727481Y-67427584D01*
X178792945Y-67403166D01*
X178861218Y-67418017D01*
X178889473Y-67439168D01*
X179011399Y-67561095D01*
X179108184Y-67628864D01*
X179204965Y-67696632D01*
X179204967Y-67696633D01*
X179204970Y-67696635D01*
X179419137Y-67796503D01*
X179647392Y-67857663D01*
X179823834Y-67873100D01*
X179882799Y-67878259D01*
X179882800Y-67878259D01*
X179882801Y-67878259D01*
X179941766Y-67873100D01*
X180118208Y-67857663D01*
X180346463Y-67796503D01*
X180560630Y-67696635D01*
X180754201Y-67561095D01*
X180921295Y-67394001D01*
X181051224Y-67208442D01*
X181105802Y-67164817D01*
X181175300Y-67157623D01*
X181237655Y-67189146D01*
X181254375Y-67208442D01*
X181384300Y-67393995D01*
X181384305Y-67394001D01*
X181551399Y-67561095D01*
X181648184Y-67628864D01*
X181744965Y-67696632D01*
X181744967Y-67696633D01*
X181744970Y-67696635D01*
X181959137Y-67796503D01*
X182187392Y-67857663D01*
X182363834Y-67873100D01*
X182422799Y-67878259D01*
X182422800Y-67878259D01*
X182422801Y-67878259D01*
X182481766Y-67873100D01*
X182658208Y-67857663D01*
X182886463Y-67796503D01*
X183100630Y-67696635D01*
X183294201Y-67561095D01*
X183461295Y-67394001D01*
X183596835Y-67200430D01*
X183696703Y-66986263D01*
X183757863Y-66758008D01*
X183778459Y-66522600D01*
X183757863Y-66287192D01*
X183696703Y-66058937D01*
X183596835Y-65844771D01*
X183591225Y-65836758D01*
X183461294Y-65651197D01*
X183294202Y-65484106D01*
X183294195Y-65484101D01*
X183100634Y-65348567D01*
X183100630Y-65348565D01*
X183100630Y-65348564D01*
X182886463Y-65248697D01*
X182886459Y-65248696D01*
X182886455Y-65248694D01*
X182658213Y-65187538D01*
X182658203Y-65187536D01*
X182422801Y-65166941D01*
X182422799Y-65166941D01*
X182187396Y-65187536D01*
X182187386Y-65187538D01*
X181959144Y-65248694D01*
X181959135Y-65248698D01*
X181744971Y-65348564D01*
X181744969Y-65348565D01*
X181551397Y-65484105D01*
X181384305Y-65651197D01*
X181254375Y-65836758D01*
X181199798Y-65880383D01*
X181130300Y-65887577D01*
X181067945Y-65856054D01*
X181051225Y-65836758D01*
X180921294Y-65651197D01*
X180754202Y-65484106D01*
X180754195Y-65484101D01*
X180560634Y-65348567D01*
X180560630Y-65348565D01*
X180560630Y-65348564D01*
X180346463Y-65248697D01*
X180346459Y-65248696D01*
X180346455Y-65248694D01*
X180118213Y-65187538D01*
X180118203Y-65187536D01*
X179882801Y-65166941D01*
X179882799Y-65166941D01*
X179647396Y-65187536D01*
X179647386Y-65187538D01*
X179419144Y-65248694D01*
X179419135Y-65248698D01*
X179204971Y-65348564D01*
X179204969Y-65348565D01*
X179011400Y-65484103D01*
X178889473Y-65606030D01*
X178828150Y-65639514D01*
X178758458Y-65634530D01*
X178702525Y-65592658D01*
X178685610Y-65561681D01*
X178636597Y-65430271D01*
X178636593Y-65430264D01*
X178550347Y-65315055D01*
X178550344Y-65315052D01*
X178435135Y-65228806D01*
X178435128Y-65228802D01*
X178300282Y-65178508D01*
X178300283Y-65178508D01*
X178240683Y-65172101D01*
X178240681Y-65172100D01*
X178240673Y-65172100D01*
X178240664Y-65172100D01*
X176444929Y-65172100D01*
X176444923Y-65172101D01*
X176385316Y-65178508D01*
X176250471Y-65228802D01*
X176250464Y-65228806D01*
X176135255Y-65315052D01*
X176135252Y-65315055D01*
X176049006Y-65430264D01*
X176049002Y-65430271D01*
X175998708Y-65565117D01*
X175992301Y-65624716D01*
X175992300Y-65624735D01*
X175992300Y-67420470D01*
X175260548Y-67420470D01*
X175228862Y-67388784D01*
X175228862Y-67388783D01*
X175076123Y-67292811D01*
X174905854Y-67233231D01*
X174905849Y-67233230D01*
X174726604Y-67213035D01*
X174726596Y-67213035D01*
X174547350Y-67233230D01*
X174547345Y-67233231D01*
X174377076Y-67292811D01*
X174224337Y-67388784D01*
X174096784Y-67516337D01*
X174000811Y-67669076D01*
X173941231Y-67839345D01*
X173941230Y-67839350D01*
X173921035Y-68018596D01*
X173921035Y-68018603D01*
X170133756Y-68018603D01*
X170153280Y-67916257D01*
X170155671Y-67878259D01*
X170172246Y-67614805D01*
X170172246Y-67614794D01*
X170153281Y-67313353D01*
X170153280Y-67313346D01*
X170153280Y-67313343D01*
X170096681Y-67016640D01*
X170003341Y-66729370D01*
X169874733Y-66456064D01*
X169846828Y-66412093D01*
X169712888Y-66201036D01*
X169712885Y-66201032D01*
X169520349Y-65968296D01*
X169426731Y-65880383D01*
X169300163Y-65761527D01*
X169300153Y-65761519D01*
X169055806Y-65583991D01*
X169055799Y-65583986D01*
X169055795Y-65583984D01*
X168791104Y-65438468D01*
X168791101Y-65438466D01*
X168791096Y-65438464D01*
X168791095Y-65438463D01*
X168510265Y-65327275D01*
X168510262Y-65327274D01*
X168217695Y-65252157D01*
X167918036Y-65214300D01*
X167918027Y-65214300D01*
X167615973Y-65214300D01*
X167615963Y-65214300D01*
X167316304Y-65252157D01*
X167023737Y-65327274D01*
X167023734Y-65327275D01*
X166742904Y-65438463D01*
X166742903Y-65438464D01*
X166478205Y-65583984D01*
X166478193Y-65583991D01*
X166233846Y-65761519D01*
X166233836Y-65761527D01*
X166013652Y-65968294D01*
X165821111Y-66201036D01*
X165659268Y-66456061D01*
X165659265Y-66456067D01*
X165530661Y-66729363D01*
X165530659Y-66729368D01*
X165437320Y-67016635D01*
X165380719Y-67313346D01*
X165380718Y-67313353D01*
X165361754Y-67614794D01*
X165361754Y-67614805D01*
X165100500Y-67614805D01*
X165100500Y-64894500D01*
X165120185Y-64827461D01*
X165172989Y-64781706D01*
X165224500Y-64770500D01*
X208155500Y-64770500D01*
X208222539Y-64790185D01*
G37*
%TD.AperFunction*%
%TD*%
M02*
